<?xml version="1.0" encoding="utf-8" standalone="no"?>
<!DOCTYPE svg PUBLIC "-//W3C//DTD SVG 1.1//EN"
  "http://www.w3.org/Graphics/SVG/1.1/DTD/svg11.dtd">
<!-- Created with matplotlib (https://matplotlib.org/) -->
<svg height="1028.901538pt" version="1.1" viewBox="0 0 1835.73125 1028.901538" width="1835.73125pt" xmlns="http://www.w3.org/2000/svg" xmlns:xlink="http://www.w3.org/1999/xlink">
 <defs>
  <style type="text/css">
*{stroke-linecap:butt;stroke-linejoin:round;}
  </style>
 </defs>
 <g id="figure_1">
  <g id="patch_1">
   <path d="M 0 1028.901538 
L 1835.73125 1028.901538 
L 1835.73125 0 
L 0 0 
z
" style="fill:#ffffff;"/>
  </g>
  <g id="axes_1">
   <g id="patch_2">
    <path d="M 70.05625 779.535484 
L 1828.53125 779.535484 
L 1828.53125 81.56 
L 70.05625 81.56 
z
" style="fill:#ffffff;"/>
   </g>
   <g id="patch_3">
    <path clip-path="url(#p530cc42d5f)" d="M 149.986932 779.535484 
L 241.047202 779.535484 
L 241.047202 114.796928 
L 149.986932 114.796928 
z
" style="fill:#66c2a5;"/>
   </g>
   <g id="patch_4">
    <path clip-path="url(#p530cc42d5f)" d="M 352.343088 779.535484 
L 443.403359 779.535484 
L 443.403359 513.640062 
L 352.343088 513.640062 
z
" style="fill:#66c2a5;"/>
   </g>
   <g id="patch_5">
    <path clip-path="url(#p530cc42d5f)" d="M 554.699245 779.535484 
L 645.759515 779.535484 
L 645.759515 518.071652 
L 554.699245 518.071652 
z
" style="fill:#66c2a5;"/>
   </g>
   <g id="patch_6">
    <path clip-path="url(#p530cc42d5f)" d="M 757.055401 779.535484 
L 848.115672 779.535484 
L 848.115672 611.13505 
L 757.055401 611.13505 
z
" style="fill:#66c2a5;"/>
   </g>
   <g id="patch_7">
    <path clip-path="url(#p530cc42d5f)" d="M 959.411558 779.535484 
L 1050.471828 779.535484 
L 1050.471828 690.903677 
L 959.411558 690.903677 
z
" style="fill:#66c2a5;"/>
   </g>
   <g id="patch_8">
    <path clip-path="url(#p530cc42d5f)" d="M 1161.767714 779.535484 
L 1252.827985 779.535484 
L 1252.827985 748.514351 
L 1161.767714 748.514351 
z
" style="fill:#66c2a5;"/>
   </g>
   <g id="patch_9">
    <path clip-path="url(#p530cc42d5f)" d="M 1364.123871 779.535484 
L 1455.184141 779.535484 
L 1455.184141 764.763516 
L 1364.123871 764.763516 
z
" style="fill:#66c2a5;"/>
   </g>
   <g id="patch_10">
    <path clip-path="url(#p530cc42d5f)" d="M 1566.480027 779.535484 
L 1657.540298 779.535484 
L 1657.540298 778.058287 
L 1566.480027 778.058287 
z
" style="fill:#66c2a5;"/>
   </g>
   <g id="patch_11">
    <path clip-path="url(#p530cc42d5f)" d="M 241.047202 779.535484 
L 332.107473 779.535484 
L 332.107473 730.78799 
L 241.047202 730.78799 
z
" style="fill:#e78ac3;"/>
   </g>
   <g id="patch_12">
    <path clip-path="url(#p530cc42d5f)" d="M 443.403359 779.535484 
L 534.463629 779.535484 
L 534.463629 716.016022 
L 443.403359 716.016022 
z
" style="fill:#e78ac3;"/>
   </g>
   <g id="patch_13">
    <path clip-path="url(#p530cc42d5f)" d="M 645.759515 779.535484 
L 736.819786 779.535484 
L 736.819786 760.331926 
L 645.759515 760.331926 
z
" style="fill:#e78ac3;"/>
   </g>
   <g id="patch_14">
    <path clip-path="url(#p530cc42d5f)" d="M 848.115672 779.535484 
L 939.175942 779.535484 
L 939.175942 615.56664 
L 848.115672 615.56664 
z
" style="fill:#e78ac3;"/>
   </g>
   <g id="patch_15">
    <path clip-path="url(#p530cc42d5f)" d="M 1050.471828 779.535484 
L 1141.532099 779.535484 
L 1141.532099 739.651171 
L 1050.471828 739.651171 
z
" style="fill:#e78ac3;"/>
   </g>
   <g id="patch_16">
    <path clip-path="url(#p530cc42d5f)" d="M 1252.827985 779.535484 
L 1343.888255 779.535484 
L 1343.888255 772.1495 
L 1252.827985 772.1495 
z
" style="fill:#e78ac3;"/>
   </g>
   <g id="patch_17">
    <path clip-path="url(#p530cc42d5f)" d="M 1455.184141 779.535484 
L 1546.244412 779.535484 
L 1546.244412 776.581091 
L 1455.184141 776.581091 
z
" style="fill:#e78ac3;"/>
   </g>
   <g id="patch_18">
    <path clip-path="url(#p530cc42d5f)" d="M 1657.540298 779.535484 
L 1748.600568 779.535484 
L 1748.600568 720.447612 
L 1657.540298 720.447612 
z
" style="fill:#e78ac3;"/>
   </g>
   <g id="matplotlib.axis_1">
    <g id="xtick_1">
     <g id="line2d_1">
      <defs>
       <path d="M 0 0 
L 0 3.5 
" id="me52c28dc44" style="stroke:#000000;stroke-width:0.8;"/>
      </defs>
      <g>
       <use style="stroke:#000000;stroke-width:0.8;" x="241.047202" xlink:href="#me52c28dc44" y="779.535484"/>
      </g>
     </g>
     <g id="text_1">
      <!-- Ağiz ve Diş Sağliği Merkezi -->
      <defs>
       <path d="M 71.828125 0 
L 56.109375 0 
L 49.859375 16.265625 
L 21.234375 16.265625 
L 15.328125 0 
L 0 0 
L 27.875 71.578125 
L 43.171875 71.578125 
z
M 45.21875 28.328125 
L 35.359375 54.890625 
L 25.6875 28.328125 
z
" id="Arial-BoldMT-65"/>
       <path d="M 5.90625 -3.421875 
L 21.578125 -5.328125 
Q 21.96875 -8.0625 23.390625 -9.078125 
Q 25.34375 -10.546875 29.546875 -10.546875 
Q 34.90625 -10.546875 37.59375 -8.9375 
Q 39.40625 -7.859375 40.328125 -5.46875 
Q 40.96875 -3.765625 40.96875 0.828125 
L 40.96875 8.40625 
Q 34.8125 0 25.4375 0 
Q 14.984375 0 8.890625 8.84375 
Q 4.109375 15.828125 4.109375 26.21875 
Q 4.109375 39.265625 10.375 46.140625 
Q 16.65625 53.03125 25.984375 53.03125 
Q 35.59375 53.03125 41.84375 44.578125 
L 41.84375 51.859375 
L 54.6875 51.859375 
L 54.6875 5.328125 
Q 54.6875 -3.859375 53.171875 -8.390625 
Q 51.65625 -12.9375 48.921875 -15.515625 
Q 46.1875 -18.109375 41.625 -19.578125 
Q 37.0625 -21.046875 30.078125 -21.046875 
Q 16.890625 -21.046875 11.375 -16.53125 
Q 5.859375 -12.015625 5.859375 -5.078125 
Q 5.859375 -4.390625 5.90625 -3.421875 
z
M 18.171875 27 
Q 18.171875 18.75 21.359375 14.90625 
Q 24.5625 11.078125 29.25 11.078125 
Q 34.28125 11.078125 37.75 15.015625 
Q 41.21875 18.953125 41.21875 26.65625 
Q 41.21875 34.71875 37.890625 38.625 
Q 34.578125 42.53125 29.5 42.53125 
Q 24.5625 42.53125 21.359375 38.6875 
Q 18.171875 34.859375 18.171875 27 
z
M 37.796875 72.796875 
L 44.484375 72.796875 
Q 43.890625 66.15625 39.8125 62.375 
Q 35.75 58.59375 29.25 58.59375 
Q 22.75 58.59375 18.671875 62.375 
Q 14.59375 66.15625 14.015625 72.796875 
L 20.703125 72.796875 
Q 21.046875 69.34375 23.140625 67.546875 
Q 25.25 65.765625 29.25 65.765625 
Q 33.25 65.765625 35.34375 67.546875 
Q 37.453125 69.34375 37.796875 72.796875 
z
" id="Arial-BoldMT-287"/>
       <path d="M 7.171875 58.890625 
L 7.171875 71.578125 
L 20.90625 71.578125 
L 20.90625 58.890625 
z
M 7.171875 0 
L 7.171875 51.859375 
L 20.90625 51.859375 
L 20.90625 0 
z
" id="Arial-BoldMT-105"/>
       <path d="M 1.65625 0 
L 1.65625 10.6875 
L 21.09375 33.015625 
Q 25.875 38.484375 28.171875 40.765625 
Q 25.78125 40.625 21.875 40.578125 
L 3.5625 40.484375 
L 3.5625 51.859375 
L 46.4375 51.859375 
L 46.4375 42.140625 
L 26.609375 19.28125 
L 19.625 11.71875 
Q 25.34375 12.0625 26.703125 12.0625 
L 47.953125 12.0625 
L 47.953125 0 
z
" id="Arial-BoldMT-122"/>
       <path id="Arial-BoldMT-32"/>
       <path d="M 21.4375 0 
L 0.53125 51.859375 
L 14.9375 51.859375 
L 24.703125 25.390625 
L 27.546875 16.546875 
Q 28.65625 19.921875 28.953125 21 
Q 29.640625 23.1875 30.421875 25.390625 
L 40.28125 51.859375 
L 54.390625 51.859375 
L 33.796875 0 
z
" id="Arial-BoldMT-118"/>
       <path d="M 37.203125 16.5 
L 50.875 14.203125 
Q 48.25 6.6875 42.546875 2.75 
Q 36.859375 -1.171875 28.328125 -1.171875 
Q 14.796875 -1.171875 8.296875 7.671875 
Q 3.171875 14.75 3.171875 25.53125 
Q 3.171875 38.421875 9.90625 45.71875 
Q 16.65625 53.03125 26.953125 53.03125 
Q 38.53125 53.03125 45.21875 45.390625 
Q 51.90625 37.75 51.609375 21.96875 
L 17.234375 21.96875 
Q 17.390625 15.875 20.5625 12.46875 
Q 23.734375 9.078125 28.46875 9.078125 
Q 31.6875 9.078125 33.875 10.828125 
Q 36.078125 12.59375 37.203125 16.5 
z
M 37.984375 30.375 
Q 37.84375 36.328125 34.90625 39.421875 
Q 31.984375 42.53125 27.78125 42.53125 
Q 23.296875 42.53125 20.359375 39.265625 
Q 17.4375 35.984375 17.484375 30.375 
z
" id="Arial-BoldMT-101"/>
       <path d="M 7.234375 71.578125 
L 33.640625 71.578125 
Q 42.578125 71.578125 47.265625 70.21875 
Q 53.5625 68.359375 58.046875 63.625 
Q 62.546875 58.890625 64.890625 52.03125 
Q 67.234375 45.171875 67.234375 35.109375 
Q 67.234375 26.265625 65.046875 19.875 
Q 62.359375 12.0625 57.375 7.234375 
Q 53.609375 3.5625 47.21875 1.515625 
Q 42.4375 0 34.421875 0 
L 7.234375 0 
z
M 21.6875 59.46875 
L 21.6875 12.0625 
L 32.46875 12.0625 
Q 38.53125 12.0625 41.21875 12.75 
Q 44.734375 13.625 47.046875 15.71875 
Q 49.359375 17.828125 50.828125 22.625 
Q 52.296875 27.4375 52.296875 35.75 
Q 52.296875 44.046875 50.828125 48.484375 
Q 49.359375 52.9375 46.71875 55.421875 
Q 44.09375 57.90625 40.046875 58.796875 
Q 37.015625 59.46875 28.171875 59.46875 
z
" id="Arial-BoldMT-68"/>
       <path d="M 2.34375 14.796875 
L 16.109375 16.890625 
Q 17 12.890625 19.671875 10.8125 
Q 22.359375 8.734375 27.203125 8.734375 
Q 32.515625 8.734375 35.203125 10.6875 
Q 37.015625 12.0625 37.015625 14.359375 
Q 37.015625 15.921875 36.03125 16.9375 
Q 35.015625 17.921875 31.453125 18.75 
Q 14.84375 22.40625 10.40625 25.4375 
Q 4.25 29.640625 4.25 37.109375 
Q 4.25 43.84375 9.5625 48.4375 
Q 14.890625 53.03125 26.078125 53.03125 
Q 36.71875 53.03125 41.890625 49.5625 
Q 47.078125 46.09375 49.03125 39.3125 
L 36.078125 36.921875 
Q 35.25 39.9375 32.921875 41.546875 
Q 30.609375 43.171875 26.3125 43.171875 
Q 20.90625 43.171875 18.5625 41.65625 
Q 17 40.578125 17 38.875 
Q 17 37.40625 18.359375 36.375 
Q 20.21875 35.015625 31.171875 32.515625 
Q 42.140625 30.03125 46.484375 26.421875 
Q 50.78125 22.75 50.78125 16.21875 
Q 50.78125 9.078125 44.828125 3.953125 
Q 38.875 -1.171875 27.203125 -1.171875 
Q 16.609375 -1.171875 10.421875 3.125 
Q 4.25 7.421875 2.34375 14.796875 
z
M 15.4375 -19.671875 
L 15.4375 -13.921875 
Q 20.453125 -14.453125 24.65625 -14.453125 
Q 29 -14.453125 31.109375 -12.890625 
Q 32.71875 -11.71875 32.71875 -9.859375 
Q 32.71875 -8.203125 31.203125 -6.984375 
Q 29.6875 -5.765625 26.515625 -5.765625 
Q 23.390625 -5.765625 20.125 -6.734375 
L 21.390625 -1.90625 
Q 25.203125 -0.59375 29.59375 -0.59375 
Q 35.6875 -0.59375 38.859375 -3.265625 
Q 42.046875 -5.953125 42.046875 -9.8125 
Q 42.046875 -14.109375 38.53125 -16.796875 
Q 33.796875 -20.453125 24.953125 -20.453125 
Q 18.65625 -20.453125 15.4375 -19.671875 
z
" id="Arial-BoldMT-351"/>
       <path d="M 3.609375 23.296875 
L 17.671875 24.65625 
Q 18.953125 17.578125 22.828125 14.25 
Q 26.703125 10.9375 33.296875 10.9375 
Q 40.28125 10.9375 43.8125 13.890625 
Q 47.359375 16.84375 47.359375 20.796875 
Q 47.359375 23.34375 45.875 25.125 
Q 44.390625 26.90625 40.671875 28.21875 
Q 38.140625 29.109375 29.109375 31.34375 
Q 17.484375 34.234375 12.796875 38.421875 
Q 6.203125 44.34375 6.203125 52.828125 
Q 6.203125 58.296875 9.296875 63.0625 
Q 12.40625 67.828125 18.234375 70.3125 
Q 24.078125 72.796875 32.328125 72.796875 
Q 45.796875 72.796875 52.609375 66.890625 
Q 59.421875 60.984375 59.765625 51.125 
L 45.3125 50.484375 
Q 44.390625 56 41.328125 58.421875 
Q 38.28125 60.84375 32.171875 60.84375 
Q 25.875 60.84375 22.3125 58.25 
Q 20.015625 56.59375 20.015625 53.8125 
Q 20.015625 51.265625 22.171875 49.46875 
Q 24.90625 47.171875 35.453125 44.671875 
Q 46 42.1875 51.046875 39.515625 
Q 56.109375 36.859375 58.953125 32.25 
Q 61.8125 27.640625 61.8125 20.84375 
Q 61.8125 14.703125 58.390625 9.328125 
Q 54.984375 3.953125 48.734375 1.34375 
Q 42.484375 -1.265625 33.15625 -1.265625 
Q 19.578125 -1.265625 12.296875 5 
Q 5.03125 11.28125 3.609375 23.296875 
z
" id="Arial-BoldMT-83"/>
       <path d="M 17.4375 36.03125 
L 4.984375 38.28125 
Q 7.078125 45.796875 12.203125 49.40625 
Q 17.328125 53.03125 27.4375 53.03125 
Q 36.625 53.03125 41.109375 50.859375 
Q 45.609375 48.6875 47.4375 45.34375 
Q 49.265625 42 49.265625 33.0625 
L 49.125 17.046875 
Q 49.125 10.203125 49.78125 6.953125 
Q 50.4375 3.71875 52.25 0 
L 38.671875 0 
Q 38.140625 1.375 37.359375 4.046875 
Q 37.015625 5.28125 36.859375 5.671875 
Q 33.34375 2.25 29.34375 0.53125 
Q 25.34375 -1.171875 20.796875 -1.171875 
Q 12.796875 -1.171875 8.171875 3.171875 
Q 3.5625 7.515625 3.5625 14.15625 
Q 3.5625 18.5625 5.65625 22 
Q 7.765625 25.4375 11.546875 27.265625 
Q 15.328125 29.109375 22.46875 30.46875 
Q 32.078125 32.28125 35.796875 33.84375 
L 35.796875 35.203125 
Q 35.796875 39.15625 33.84375 40.84375 
Q 31.890625 42.53125 26.46875 42.53125 
Q 22.796875 42.53125 20.75 41.09375 
Q 18.703125 39.65625 17.4375 36.03125 
z
M 35.796875 24.90625 
Q 33.15625 24.03125 27.4375 22.796875 
Q 21.734375 21.578125 19.96875 20.40625 
Q 17.28125 18.5 17.28125 15.578125 
Q 17.28125 12.703125 19.421875 10.59375 
Q 21.578125 8.5 24.90625 8.5 
Q 28.609375 8.5 31.984375 10.9375 
Q 34.46875 12.796875 35.25 15.484375 
Q 35.796875 17.234375 35.796875 22.171875 
z
" id="Arial-BoldMT-97"/>
       <path d="M 7.171875 0 
L 7.171875 71.578125 
L 20.90625 71.578125 
L 20.90625 0 
z
" id="Arial-BoldMT-108"/>
       <path d="M 7.078125 0 
L 7.078125 71.578125 
L 28.71875 71.578125 
L 41.703125 22.75 
L 54.546875 71.578125 
L 76.21875 71.578125 
L 76.21875 0 
L 62.796875 0 
L 62.796875 56.34375 
L 48.578125 0 
L 34.671875 0 
L 20.515625 56.34375 
L 20.515625 0 
z
" id="Arial-BoldMT-77"/>
       <path d="M 20.3125 0 
L 6.59375 0 
L 6.59375 51.859375 
L 19.34375 51.859375 
L 19.34375 44.484375 
Q 22.609375 49.703125 25.21875 51.359375 
Q 27.828125 53.03125 31.15625 53.03125 
Q 35.84375 53.03125 40.1875 50.4375 
L 35.9375 38.484375 
Q 32.46875 40.71875 29.5 40.71875 
Q 26.609375 40.71875 24.609375 39.125 
Q 22.609375 37.546875 21.453125 33.390625 
Q 20.3125 29.25 20.3125 16.015625 
z
" id="Arial-BoldMT-114"/>
       <path d="M 6.6875 0 
L 6.6875 71.578125 
L 20.40625 71.578125 
L 20.40625 33.59375 
L 36.46875 51.859375 
L 53.375 51.859375 
L 35.640625 32.90625 
L 54.640625 0 
L 39.84375 0 
L 26.8125 23.296875 
L 20.40625 16.609375 
L 20.40625 0 
z
" id="Arial-BoldMT-107"/>
      </defs>
      <g transform="translate(165.040366 927.478527)rotate(-40)scale(0.16 -0.16)">
       <use xlink:href="#Arial-BoldMT-65"/>
       <use x="72.216797" xlink:href="#Arial-BoldMT-287"/>
       <use x="133.300781" xlink:href="#Arial-BoldMT-105"/>
       <use x="161.083984" xlink:href="#Arial-BoldMT-122"/>
       <use x="211.083984" xlink:href="#Arial-BoldMT-32"/>
       <use x="238.867188" xlink:href="#Arial-BoldMT-118"/>
       <use x="294.482422" xlink:href="#Arial-BoldMT-101"/>
       <use x="350.097656" xlink:href="#Arial-BoldMT-32"/>
       <use x="377.880859" xlink:href="#Arial-BoldMT-68"/>
       <use x="450.097656" xlink:href="#Arial-BoldMT-105"/>
       <use x="477.880859" xlink:href="#Arial-BoldMT-351"/>
       <use x="533.496094" xlink:href="#Arial-BoldMT-32"/>
       <use x="561.279297" xlink:href="#Arial-BoldMT-83"/>
       <use x="627.978516" xlink:href="#Arial-BoldMT-97"/>
       <use x="683.59375" xlink:href="#Arial-BoldMT-287"/>
       <use x="744.677734" xlink:href="#Arial-BoldMT-108"/>
       <use x="772.460938" xlink:href="#Arial-BoldMT-105"/>
       <use x="800.244141" xlink:href="#Arial-BoldMT-287"/>
       <use x="861.328125" xlink:href="#Arial-BoldMT-105"/>
       <use x="889.111328" xlink:href="#Arial-BoldMT-32"/>
       <use x="916.894531" xlink:href="#Arial-BoldMT-77"/>
       <use x="1000.195312" xlink:href="#Arial-BoldMT-101"/>
       <use x="1055.810547" xlink:href="#Arial-BoldMT-114"/>
       <use x="1094.726562" xlink:href="#Arial-BoldMT-107"/>
       <use x="1150.341797" xlink:href="#Arial-BoldMT-101"/>
       <use x="1205.957031" xlink:href="#Arial-BoldMT-122"/>
       <use x="1255.957031" xlink:href="#Arial-BoldMT-105"/>
      </g>
     </g>
    </g>
    <g id="xtick_2">
     <g id="line2d_2">
      <g>
       <use style="stroke:#000000;stroke-width:0.8;" x="443.403359" xlink:href="#me52c28dc44" y="779.535484"/>
      </g>
     </g>
     <g id="text_2">
      <!-- Hastane -->
      <defs>
       <path d="M 7.328125 0 
L 7.328125 71.578125 
L 21.78125 71.578125 
L 21.78125 43.40625 
L 50.09375 43.40625 
L 50.09375 71.578125 
L 64.546875 71.578125 
L 64.546875 0 
L 50.09375 0 
L 50.09375 31.296875 
L 21.78125 31.296875 
L 21.78125 0 
z
" id="Arial-BoldMT-72"/>
       <path d="M 2.34375 14.796875 
L 16.109375 16.890625 
Q 17 12.890625 19.671875 10.8125 
Q 22.359375 8.734375 27.203125 8.734375 
Q 32.515625 8.734375 35.203125 10.6875 
Q 37.015625 12.0625 37.015625 14.359375 
Q 37.015625 15.921875 36.03125 16.9375 
Q 35.015625 17.921875 31.453125 18.75 
Q 14.84375 22.40625 10.40625 25.4375 
Q 4.25 29.640625 4.25 37.109375 
Q 4.25 43.84375 9.5625 48.4375 
Q 14.890625 53.03125 26.078125 53.03125 
Q 36.71875 53.03125 41.890625 49.5625 
Q 47.078125 46.09375 49.03125 39.3125 
L 36.078125 36.921875 
Q 35.25 39.9375 32.921875 41.546875 
Q 30.609375 43.171875 26.3125 43.171875 
Q 20.90625 43.171875 18.5625 41.65625 
Q 17 40.578125 17 38.875 
Q 17 37.40625 18.359375 36.375 
Q 20.21875 35.015625 31.171875 32.515625 
Q 42.140625 30.03125 46.484375 26.421875 
Q 50.78125 22.75 50.78125 16.21875 
Q 50.78125 9.078125 44.828125 3.953125 
Q 38.875 -1.171875 27.203125 -1.171875 
Q 16.609375 -1.171875 10.421875 3.125 
Q 4.25 7.421875 2.34375 14.796875 
z
" id="Arial-BoldMT-115"/>
       <path d="M 30.953125 51.859375 
L 30.953125 40.921875 
L 21.578125 40.921875 
L 21.578125 20.015625 
Q 21.578125 13.671875 21.84375 12.625 
Q 22.125 11.578125 23.078125 10.890625 
Q 24.03125 10.203125 25.390625 10.203125 
Q 27.296875 10.203125 30.90625 11.53125 
L 32.078125 0.875 
Q 27.296875 -1.171875 21.234375 -1.171875 
Q 17.53125 -1.171875 14.546875 0.0625 
Q 11.578125 1.3125 10.1875 3.296875 
Q 8.796875 5.28125 8.25 8.640625 
Q 7.8125 11.03125 7.8125 18.3125 
L 7.8125 40.921875 
L 1.515625 40.921875 
L 1.515625 51.859375 
L 7.8125 51.859375 
L 7.8125 62.15625 
L 21.578125 70.171875 
L 21.578125 51.859375 
z
" id="Arial-BoldMT-116"/>
       <path d="M 54.34375 0 
L 40.625 0 
L 40.625 26.46875 
Q 40.625 34.859375 39.75 37.328125 
Q 38.875 39.796875 36.890625 41.15625 
Q 34.90625 42.53125 32.125 42.53125 
Q 28.5625 42.53125 25.734375 40.578125 
Q 22.90625 38.625 21.84375 35.390625 
Q 20.796875 32.171875 20.796875 23.484375 
L 20.796875 0 
L 7.078125 0 
L 7.078125 51.859375 
L 19.828125 51.859375 
L 19.828125 44.234375 
Q 26.609375 53.03125 36.921875 53.03125 
Q 41.453125 53.03125 45.203125 51.390625 
Q 48.96875 49.75 50.890625 47.203125 
Q 52.828125 44.671875 53.578125 41.453125 
Q 54.34375 38.234375 54.34375 32.234375 
z
" id="Arial-BoldMT-110"/>
      </defs>
      <g transform="translate(422.228102 835.318923)rotate(-40)scale(0.16 -0.16)">
       <use xlink:href="#Arial-BoldMT-72"/>
       <use x="72.216797" xlink:href="#Arial-BoldMT-97"/>
       <use x="127.832031" xlink:href="#Arial-BoldMT-115"/>
       <use x="183.447266" xlink:href="#Arial-BoldMT-116"/>
       <use x="216.748047" xlink:href="#Arial-BoldMT-97"/>
       <use x="272.363281" xlink:href="#Arial-BoldMT-110"/>
       <use x="333.447266" xlink:href="#Arial-BoldMT-101"/>
      </g>
     </g>
    </g>
    <g id="xtick_3">
     <g id="line2d_3">
      <g>
       <use style="stroke:#000000;stroke-width:0.8;" x="645.759515" xlink:href="#me52c28dc44" y="779.535484"/>
      </g>
     </g>
     <g id="text_3">
      <!-- Tip Merkezi -->
      <defs>
       <path d="M 23.390625 0 
L 23.390625 59.46875 
L 2.15625 59.46875 
L 2.15625 71.578125 
L 59.03125 71.578125 
L 59.03125 59.46875 
L 37.84375 59.46875 
L 37.84375 0 
z
" id="Arial-BoldMT-84"/>
       <path d="M 6.78125 51.859375 
L 19.578125 51.859375 
L 19.578125 44.234375 
Q 22.078125 48.140625 26.3125 50.578125 
Q 30.5625 53.03125 35.75 53.03125 
Q 44.78125 53.03125 51.078125 45.953125 
Q 57.375 38.875 57.375 26.21875 
Q 57.375 13.234375 51.015625 6.03125 
Q 44.671875 -1.171875 35.640625 -1.171875 
Q 31.34375 -1.171875 27.84375 0.53125 
Q 24.359375 2.25 20.515625 6.390625 
L 20.515625 -19.734375 
L 6.78125 -19.734375 
z
M 20.359375 26.8125 
Q 20.359375 18.0625 23.828125 13.890625 
Q 27.296875 9.71875 32.28125 9.71875 
Q 37.0625 9.71875 40.234375 13.546875 
Q 43.40625 17.390625 43.40625 26.125 
Q 43.40625 34.28125 40.125 38.234375 
Q 36.859375 42.1875 32.03125 42.1875 
Q 27 42.1875 23.671875 38.296875 
Q 20.359375 34.421875 20.359375 26.8125 
z
" id="Arial-BoldMT-112"/>
      </defs>
      <g transform="translate(615.054666 851.311479)rotate(-40)scale(0.16 -0.16)">
       <use xlink:href="#Arial-BoldMT-84"/>
       <use x="61.068359" xlink:href="#Arial-BoldMT-105"/>
       <use x="88.851562" xlink:href="#Arial-BoldMT-112"/>
       <use x="149.935547" xlink:href="#Arial-BoldMT-32"/>
       <use x="177.71875" xlink:href="#Arial-BoldMT-77"/>
       <use x="261.019531" xlink:href="#Arial-BoldMT-101"/>
       <use x="316.634766" xlink:href="#Arial-BoldMT-114"/>
       <use x="355.550781" xlink:href="#Arial-BoldMT-107"/>
       <use x="411.166016" xlink:href="#Arial-BoldMT-101"/>
       <use x="466.78125" xlink:href="#Arial-BoldMT-122"/>
       <use x="516.78125" xlink:href="#Arial-BoldMT-105"/>
      </g>
     </g>
    </g>
    <g id="xtick_4">
     <g id="line2d_4">
      <g>
       <use style="stroke:#000000;stroke-width:0.8;" x="848.115672" xlink:href="#me52c28dc44" y="779.535484"/>
      </g>
     </g>
     <g id="text_4">
      <!-- Poliklinik -->
      <defs>
       <path d="M 7.28125 0 
L 7.28125 71.578125 
L 30.46875 71.578125 
Q 43.65625 71.578125 47.65625 70.515625 
Q 53.8125 68.890625 57.953125 63.5 
Q 62.109375 58.109375 62.109375 49.5625 
Q 62.109375 42.96875 59.71875 38.46875 
Q 57.328125 33.984375 53.640625 31.421875 
Q 49.953125 28.859375 46.140625 28.03125 
Q 40.96875 27 31.15625 27 
L 21.734375 27 
L 21.734375 0 
z
M 21.734375 59.46875 
L 21.734375 39.15625 
L 29.640625 39.15625 
Q 38.1875 39.15625 41.0625 40.28125 
Q 43.953125 41.40625 45.578125 43.796875 
Q 47.21875 46.1875 47.21875 49.359375 
Q 47.21875 53.265625 44.921875 55.796875 
Q 42.625 58.34375 39.109375 58.984375 
Q 36.53125 59.46875 28.71875 59.46875 
z
" id="Arial-BoldMT-80"/>
       <path d="M 4 26.65625 
Q 4 33.5 7.375 39.890625 
Q 10.75 46.296875 16.921875 49.65625 
Q 23.09375 53.03125 30.71875 53.03125 
Q 42.484375 53.03125 50 45.390625 
Q 57.515625 37.75 57.515625 26.078125 
Q 57.515625 14.3125 49.921875 6.5625 
Q 42.328125 -1.171875 30.8125 -1.171875 
Q 23.6875 -1.171875 17.21875 2.046875 
Q 10.75 5.28125 7.375 11.5 
Q 4 17.71875 4 26.65625 
z
M 18.0625 25.921875 
Q 18.0625 18.21875 21.71875 14.109375 
Q 25.390625 10.015625 30.765625 10.015625 
Q 36.140625 10.015625 39.765625 14.109375 
Q 43.40625 18.21875 43.40625 26.03125 
Q 43.40625 33.640625 39.765625 37.734375 
Q 36.140625 41.84375 30.765625 41.84375 
Q 25.390625 41.84375 21.71875 37.734375 
Q 18.0625 33.640625 18.0625 25.921875 
z
" id="Arial-BoldMT-111"/>
      </defs>
      <g transform="translate(823.87911 840.456403)rotate(-40)scale(0.16 -0.16)">
       <use xlink:href="#Arial-BoldMT-80"/>
       <use x="66.699219" xlink:href="#Arial-BoldMT-111"/>
       <use x="127.783203" xlink:href="#Arial-BoldMT-108"/>
       <use x="155.566406" xlink:href="#Arial-BoldMT-105"/>
       <use x="183.349609" xlink:href="#Arial-BoldMT-107"/>
       <use x="238.964844" xlink:href="#Arial-BoldMT-108"/>
       <use x="266.748047" xlink:href="#Arial-BoldMT-105"/>
       <use x="294.53125" xlink:href="#Arial-BoldMT-110"/>
       <use x="355.615234" xlink:href="#Arial-BoldMT-105"/>
       <use x="383.398438" xlink:href="#Arial-BoldMT-107"/>
      </g>
     </g>
    </g>
    <g id="xtick_5">
     <g id="line2d_5">
      <g>
       <use style="stroke:#000000;stroke-width:0.8;" x="1050.471828" xlink:href="#me52c28dc44" y="779.535484"/>
      </g>
     </g>
     <g id="text_5">
      <!-- Diyaliz Merkezi -->
      <defs>
       <path d="M 0.6875 51.859375 
L 15.28125 51.859375 
L 27.6875 15.046875 
L 39.796875 51.859375 
L 54 51.859375 
L 35.6875 1.953125 
L 32.421875 -7.078125 
Q 30.609375 -11.625 28.96875 -14.015625 
Q 27.34375 -16.40625 25.21875 -17.890625 
Q 23.09375 -19.390625 19.984375 -20.21875 
Q 16.890625 -21.046875 12.984375 -21.046875 
Q 9.03125 -21.046875 5.21875 -20.21875 
L 4 -9.46875 
Q 7.234375 -10.109375 9.8125 -10.109375 
Q 14.59375 -10.109375 16.890625 -7.296875 
Q 19.1875 -4.5 20.40625 -0.140625 
z
" id="Arial-BoldMT-121"/>
      </defs>
      <g transform="translate(1009.47375 868.472301)rotate(-40)scale(0.16 -0.16)">
       <use xlink:href="#Arial-BoldMT-68"/>
       <use x="72.216797" xlink:href="#Arial-BoldMT-105"/>
       <use x="100" xlink:href="#Arial-BoldMT-121"/>
       <use x="155.615234" xlink:href="#Arial-BoldMT-97"/>
       <use x="211.230469" xlink:href="#Arial-BoldMT-108"/>
       <use x="239.013672" xlink:href="#Arial-BoldMT-105"/>
       <use x="266.796875" xlink:href="#Arial-BoldMT-122"/>
       <use x="316.796875" xlink:href="#Arial-BoldMT-32"/>
       <use x="344.580078" xlink:href="#Arial-BoldMT-77"/>
       <use x="427.880859" xlink:href="#Arial-BoldMT-101"/>
       <use x="483.496094" xlink:href="#Arial-BoldMT-114"/>
       <use x="522.412109" xlink:href="#Arial-BoldMT-107"/>
       <use x="578.027344" xlink:href="#Arial-BoldMT-101"/>
       <use x="633.642578" xlink:href="#Arial-BoldMT-122"/>
       <use x="683.642578" xlink:href="#Arial-BoldMT-105"/>
      </g>
     </g>
    </g>
    <g id="xtick_6">
     <g id="line2d_6">
      <g>
       <use style="stroke:#000000;stroke-width:0.8;" x="1252.827985" xlink:href="#me52c28dc44" y="779.535484"/>
      </g>
     </g>
     <g id="text_6">
      <!-- Fizik Tedavi Merkezi -->
      <defs>
       <path d="M 7.375 0 
L 7.375 71.578125 
L 56.453125 71.578125 
L 56.453125 59.46875 
L 21.828125 59.46875 
L 21.828125 42.53125 
L 51.703125 42.53125 
L 51.703125 30.421875 
L 21.828125 30.421875 
L 21.828125 0 
z
" id="Arial-BoldMT-70"/>
       <path d="M 54.734375 0 
L 42 0 
L 42 7.625 
Q 38.8125 3.171875 34.484375 1 
Q 30.171875 -1.171875 25.78125 -1.171875 
Q 16.84375 -1.171875 10.46875 6.03125 
Q 4.109375 13.234375 4.109375 26.125 
Q 4.109375 39.3125 10.296875 46.171875 
Q 16.5 53.03125 25.984375 53.03125 
Q 34.671875 53.03125 41.015625 45.796875 
L 41.015625 71.578125 
L 54.734375 71.578125 
z
M 18.109375 27.046875 
Q 18.109375 18.75 20.40625 15.046875 
Q 23.734375 9.671875 29.6875 9.671875 
Q 34.421875 9.671875 37.734375 13.6875 
Q 41.0625 17.71875 41.0625 25.734375 
Q 41.0625 34.671875 37.84375 38.59375 
Q 34.625 42.53125 29.59375 42.53125 
Q 24.703125 42.53125 21.40625 38.640625 
Q 18.109375 34.765625 18.109375 27.046875 
z
" id="Arial-BoldMT-100"/>
      </defs>
      <g transform="translate(1196.582256 894.174163)rotate(-40)scale(0.16 -0.16)">
       <use xlink:href="#Arial-BoldMT-70"/>
       <use x="61.083984" xlink:href="#Arial-BoldMT-105"/>
       <use x="88.867188" xlink:href="#Arial-BoldMT-122"/>
       <use x="138.867188" xlink:href="#Arial-BoldMT-105"/>
       <use x="166.650391" xlink:href="#Arial-BoldMT-107"/>
       <use x="222.265625" xlink:href="#Arial-BoldMT-32"/>
       <use x="250.048828" xlink:href="#Arial-BoldMT-84"/>
       <use x="311.023438" xlink:href="#Arial-BoldMT-101"/>
       <use x="366.638672" xlink:href="#Arial-BoldMT-100"/>
       <use x="427.722656" xlink:href="#Arial-BoldMT-97"/>
       <use x="483.337891" xlink:href="#Arial-BoldMT-118"/>
       <use x="538.953125" xlink:href="#Arial-BoldMT-105"/>
       <use x="566.736328" xlink:href="#Arial-BoldMT-32"/>
       <use x="594.519531" xlink:href="#Arial-BoldMT-77"/>
       <use x="677.820312" xlink:href="#Arial-BoldMT-101"/>
       <use x="733.435547" xlink:href="#Arial-BoldMT-114"/>
       <use x="772.351562" xlink:href="#Arial-BoldMT-107"/>
       <use x="827.966797" xlink:href="#Arial-BoldMT-101"/>
       <use x="883.582031" xlink:href="#Arial-BoldMT-122"/>
       <use x="933.582031" xlink:href="#Arial-BoldMT-105"/>
      </g>
     </g>
    </g>
    <g id="xtick_7">
     <g id="line2d_7">
      <g>
       <use style="stroke:#000000;stroke-width:0.8;" x="1455.184141" xlink:href="#me52c28dc44" y="779.535484"/>
      </g>
     </g>
     <g id="text_7">
      <!-- Kadin Hastaliklari ve Sağliği Merkezi -->
      <defs>
       <path d="M 7.46875 0 
L 7.46875 71.578125 
L 21.921875 71.578125 
L 21.921875 39.796875 
L 51.125 71.578125 
L 70.5625 71.578125 
L 43.609375 43.703125 
L 72.015625 0 
L 53.328125 0 
L 33.640625 33.59375 
L 21.921875 21.625 
L 21.921875 0 
z
" id="Arial-BoldMT-75"/>
      </defs>
      <g transform="translate(1351.925274 973.212865)rotate(-40)scale(0.16 -0.16)">
       <use xlink:href="#Arial-BoldMT-75"/>
       <use x="72.216797" xlink:href="#Arial-BoldMT-97"/>
       <use x="127.832031" xlink:href="#Arial-BoldMT-100"/>
       <use x="188.916016" xlink:href="#Arial-BoldMT-105"/>
       <use x="216.699219" xlink:href="#Arial-BoldMT-110"/>
       <use x="277.783203" xlink:href="#Arial-BoldMT-32"/>
       <use x="305.566406" xlink:href="#Arial-BoldMT-72"/>
       <use x="377.783203" xlink:href="#Arial-BoldMT-97"/>
       <use x="433.398438" xlink:href="#Arial-BoldMT-115"/>
       <use x="489.013672" xlink:href="#Arial-BoldMT-116"/>
       <use x="522.314453" xlink:href="#Arial-BoldMT-97"/>
       <use x="577.929688" xlink:href="#Arial-BoldMT-108"/>
       <use x="605.712891" xlink:href="#Arial-BoldMT-105"/>
       <use x="633.496094" xlink:href="#Arial-BoldMT-107"/>
       <use x="689.111328" xlink:href="#Arial-BoldMT-108"/>
       <use x="716.894531" xlink:href="#Arial-BoldMT-97"/>
       <use x="772.509766" xlink:href="#Arial-BoldMT-114"/>
       <use x="811.425781" xlink:href="#Arial-BoldMT-105"/>
       <use x="839.208984" xlink:href="#Arial-BoldMT-32"/>
       <use x="866.992188" xlink:href="#Arial-BoldMT-118"/>
       <use x="922.607422" xlink:href="#Arial-BoldMT-101"/>
       <use x="978.222656" xlink:href="#Arial-BoldMT-32"/>
       <use x="1006.005859" xlink:href="#Arial-BoldMT-83"/>
       <use x="1072.705078" xlink:href="#Arial-BoldMT-97"/>
       <use x="1128.320312" xlink:href="#Arial-BoldMT-287"/>
       <use x="1189.404297" xlink:href="#Arial-BoldMT-108"/>
       <use x="1217.1875" xlink:href="#Arial-BoldMT-105"/>
       <use x="1244.970703" xlink:href="#Arial-BoldMT-287"/>
       <use x="1306.054688" xlink:href="#Arial-BoldMT-105"/>
       <use x="1333.837891" xlink:href="#Arial-BoldMT-32"/>
       <use x="1361.621094" xlink:href="#Arial-BoldMT-77"/>
       <use x="1444.921875" xlink:href="#Arial-BoldMT-101"/>
       <use x="1500.537109" xlink:href="#Arial-BoldMT-114"/>
       <use x="1539.453125" xlink:href="#Arial-BoldMT-107"/>
       <use x="1595.068359" xlink:href="#Arial-BoldMT-101"/>
       <use x="1650.683594" xlink:href="#Arial-BoldMT-122"/>
       <use x="1700.683594" xlink:href="#Arial-BoldMT-105"/>
      </g>
     </g>
    </g>
    <g id="xtick_8">
     <g id="line2d_8">
      <g>
       <use style="stroke:#000000;stroke-width:0.8;" x="1657.540298" xlink:href="#me52c28dc44" y="779.535484"/>
      </g>
     </g>
     <g id="text_8">
      <!-- Ana Çocuk Sağliği ve Aile Planlama Merkezi -->
      <defs>
       <path d="M 53.078125 26.3125 
L 67.09375 21.875 
Q 63.875 10.15625 56.375 4.46875 
Q 48.875 -1.21875 37.359375 -1.21875 
Q 23.09375 -1.21875 13.90625 8.515625 
Q 4.734375 18.265625 4.734375 35.15625 
Q 4.734375 53.03125 13.953125 62.90625 
Q 23.1875 72.796875 38.234375 72.796875 
Q 51.375 72.796875 59.578125 65.046875 
Q 64.453125 60.453125 66.890625 51.859375 
L 52.59375 48.4375 
Q 51.3125 54 47.28125 57.21875 
Q 43.265625 60.453125 37.5 60.453125 
Q 29.546875 60.453125 24.578125 54.734375 
Q 19.625 49.03125 19.625 36.234375 
Q 19.625 22.65625 24.5 16.890625 
Q 29.390625 11.140625 37.203125 11.140625 
Q 42.96875 11.140625 47.109375 14.796875 
Q 51.265625 18.453125 53.078125 26.3125 
z
M 22.703125 -19.671875 
L 22.703125 -13.921875 
Q 27.734375 -14.453125 31.9375 -14.453125 
Q 36.28125 -14.453125 38.375 -12.890625 
Q 39.984375 -11.71875 39.984375 -9.859375 
Q 39.984375 -8.203125 38.46875 -6.984375 
Q 36.96875 -5.765625 33.796875 -5.765625 
Q 30.671875 -5.765625 27.390625 -6.734375 
L 28.65625 -1.90625 
Q 32.46875 -0.59375 36.859375 -0.59375 
Q 42.96875 -0.59375 46.140625 -3.265625 
Q 49.3125 -5.953125 49.3125 -9.8125 
Q 49.3125 -14.109375 45.796875 -16.796875 
Q 41.0625 -20.453125 32.234375 -20.453125 
Q 25.921875 -20.453125 22.703125 -19.671875 
z
" id="Arial-BoldMT-199"/>
       <path d="M 52.390625 36.53125 
L 38.875 34.078125 
Q 38.1875 38.140625 35.765625 40.1875 
Q 33.34375 42.234375 29.5 42.234375 
Q 24.359375 42.234375 21.3125 38.6875 
Q 18.265625 35.15625 18.265625 26.859375 
Q 18.265625 17.625 21.359375 13.8125 
Q 24.46875 10.015625 29.6875 10.015625 
Q 33.59375 10.015625 36.078125 12.234375 
Q 38.578125 14.453125 39.59375 19.875 
L 53.078125 17.578125 
Q 50.984375 8.296875 45.015625 3.5625 
Q 39.0625 -1.171875 29.046875 -1.171875 
Q 17.671875 -1.171875 10.90625 6 
Q 4.15625 13.1875 4.15625 25.875 
Q 4.15625 38.71875 10.9375 45.875 
Q 17.71875 53.03125 29.296875 53.03125 
Q 38.765625 53.03125 44.359375 48.953125 
Q 49.953125 44.875 52.390625 36.53125 
z
" id="Arial-BoldMT-99"/>
       <path d="M 41.3125 0 
L 41.3125 7.765625 
Q 38.484375 3.609375 33.859375 1.21875 
Q 29.25 -1.171875 24.125 -1.171875 
Q 18.890625 -1.171875 14.734375 1.125 
Q 10.59375 3.421875 8.734375 7.5625 
Q 6.890625 11.71875 6.890625 19.046875 
L 6.890625 51.859375 
L 20.609375 51.859375 
L 20.609375 28.03125 
Q 20.609375 17.09375 21.359375 14.625 
Q 22.125 12.15625 24.125 10.71875 
Q 26.125 9.28125 29.203125 9.28125 
Q 32.71875 9.28125 35.5 11.203125 
Q 38.28125 13.140625 39.296875 15.984375 
Q 40.328125 18.84375 40.328125 29.984375 
L 40.328125 51.859375 
L 54.046875 51.859375 
L 54.046875 0 
z
" id="Arial-BoldMT-117"/>
       <path d="M 6.15625 51.859375 
L 18.796875 51.859375 
L 18.796875 44.78125 
Q 25.59375 53.03125 34.96875 53.03125 
Q 39.9375 53.03125 43.59375 50.96875 
Q 47.265625 48.921875 49.609375 44.78125 
Q 53.03125 48.921875 56.984375 50.96875 
Q 60.9375 53.03125 65.4375 53.03125 
Q 71.140625 53.03125 75.09375 50.703125 
Q 79.046875 48.390625 81 43.890625 
Q 82.421875 40.578125 82.421875 33.15625 
L 82.421875 0 
L 68.703125 0 
L 68.703125 29.640625 
Q 68.703125 37.359375 67.28125 39.59375 
Q 65.375 42.53125 61.421875 42.53125 
Q 58.546875 42.53125 56 40.765625 
Q 53.46875 39.015625 52.34375 35.625 
Q 51.21875 32.234375 51.21875 24.90625 
L 51.21875 0 
L 37.5 0 
L 37.5 28.421875 
Q 37.5 35.984375 36.765625 38.171875 
Q 36.03125 40.375 34.484375 41.453125 
Q 32.953125 42.53125 30.328125 42.53125 
Q 27.15625 42.53125 24.609375 40.8125 
Q 22.078125 39.109375 20.96875 35.890625 
Q 19.875 32.671875 19.875 25.203125 
L 19.875 0 
L 6.15625 0 
z
" id="Arial-BoldMT-109"/>
      </defs>
      <g transform="translate(1532.150407 1010.353133)rotate(-40)scale(0.16 -0.16)">
       <use xlink:href="#Arial-BoldMT-65"/>
       <use x="72.216797" xlink:href="#Arial-BoldMT-110"/>
       <use x="133.300781" xlink:href="#Arial-BoldMT-97"/>
       <use x="188.916016" xlink:href="#Arial-BoldMT-32"/>
       <use x="216.699219" xlink:href="#Arial-BoldMT-199"/>
       <use x="288.916016" xlink:href="#Arial-BoldMT-111"/>
       <use x="350" xlink:href="#Arial-BoldMT-99"/>
       <use x="405.615234" xlink:href="#Arial-BoldMT-117"/>
       <use x="466.699219" xlink:href="#Arial-BoldMT-107"/>
       <use x="522.314453" xlink:href="#Arial-BoldMT-32"/>
       <use x="550.097656" xlink:href="#Arial-BoldMT-83"/>
       <use x="616.796875" xlink:href="#Arial-BoldMT-97"/>
       <use x="672.412109" xlink:href="#Arial-BoldMT-287"/>
       <use x="733.496094" xlink:href="#Arial-BoldMT-108"/>
       <use x="761.279297" xlink:href="#Arial-BoldMT-105"/>
       <use x="789.0625" xlink:href="#Arial-BoldMT-287"/>
       <use x="850.146484" xlink:href="#Arial-BoldMT-105"/>
       <use x="877.929688" xlink:href="#Arial-BoldMT-32"/>
       <use x="905.712891" xlink:href="#Arial-BoldMT-118"/>
       <use x="961.328125" xlink:href="#Arial-BoldMT-101"/>
       <use x="1016.943359" xlink:href="#Arial-BoldMT-32"/>
       <use x="1044.679688" xlink:href="#Arial-BoldMT-65"/>
       <use x="1116.896484" xlink:href="#Arial-BoldMT-105"/>
       <use x="1144.679688" xlink:href="#Arial-BoldMT-108"/>
       <use x="1172.462891" xlink:href="#Arial-BoldMT-101"/>
       <use x="1228.078125" xlink:href="#Arial-BoldMT-32"/>
       <use x="1255.861328" xlink:href="#Arial-BoldMT-80"/>
       <use x="1322.560547" xlink:href="#Arial-BoldMT-108"/>
       <use x="1350.34375" xlink:href="#Arial-BoldMT-97"/>
       <use x="1405.958984" xlink:href="#Arial-BoldMT-110"/>
       <use x="1467.042969" xlink:href="#Arial-BoldMT-108"/>
       <use x="1494.826172" xlink:href="#Arial-BoldMT-97"/>
       <use x="1550.441406" xlink:href="#Arial-BoldMT-109"/>
       <use x="1639.357422" xlink:href="#Arial-BoldMT-97"/>
       <use x="1694.972656" xlink:href="#Arial-BoldMT-32"/>
       <use x="1722.755859" xlink:href="#Arial-BoldMT-77"/>
       <use x="1806.056641" xlink:href="#Arial-BoldMT-101"/>
       <use x="1861.671875" xlink:href="#Arial-BoldMT-114"/>
       <use x="1900.587891" xlink:href="#Arial-BoldMT-107"/>
       <use x="1956.203125" xlink:href="#Arial-BoldMT-101"/>
       <use x="2011.818359" xlink:href="#Arial-BoldMT-122"/>
       <use x="2061.818359" xlink:href="#Arial-BoldMT-105"/>
      </g>
     </g>
    </g>
    <g id="text_9">
     <!-- Sağlık Kuruluşu Türü -->
     <defs>
      <path d="M 7.171875 0 
L 7.171875 51.859375 
L 20.90625 51.859375 
L 20.90625 0 
z
" id="Arial-BoldMT-305"/>
      <path d="M 41.3125 0 
L 41.3125 7.765625 
Q 38.484375 3.609375 33.859375 1.21875 
Q 29.25 -1.171875 24.125 -1.171875 
Q 18.890625 -1.171875 14.734375 1.125 
Q 10.59375 3.421875 8.734375 7.5625 
Q 6.890625 11.71875 6.890625 19.046875 
L 6.890625 51.859375 
L 20.609375 51.859375 
L 20.609375 28.03125 
Q 20.609375 17.09375 21.359375 14.625 
Q 22.125 12.15625 24.125 10.71875 
Q 26.125 9.28125 29.203125 9.28125 
Q 32.71875 9.28125 35.5 11.203125 
Q 38.28125 13.140625 39.296875 15.984375 
Q 40.328125 18.84375 40.328125 29.984375 
L 40.328125 51.859375 
L 54.046875 51.859375 
L 54.046875 0 
z
M 14.0625 61.03125 
L 14.0625 72.796875 
L 25.828125 72.796875 
L 25.828125 61.03125 
z
M 35.0625 61.03125 
L 35.0625 72.796875 
L 46.875 72.796875 
L 46.875 61.03125 
z
" id="Arial-BoldMT-252"/>
     </defs>
     <g transform="translate(848.18125 1017.492163)scale(0.2 -0.2)">
      <use xlink:href="#Arial-BoldMT-83"/>
      <use x="66.699219" xlink:href="#Arial-BoldMT-97"/>
      <use x="122.314453" xlink:href="#Arial-BoldMT-287"/>
      <use x="183.398438" xlink:href="#Arial-BoldMT-108"/>
      <use x="211.181641" xlink:href="#Arial-BoldMT-305"/>
      <use x="238.964844" xlink:href="#Arial-BoldMT-107"/>
      <use x="294.580078" xlink:href="#Arial-BoldMT-32"/>
      <use x="322.363281" xlink:href="#Arial-BoldMT-75"/>
      <use x="394.580078" xlink:href="#Arial-BoldMT-117"/>
      <use x="455.664062" xlink:href="#Arial-BoldMT-114"/>
      <use x="494.580078" xlink:href="#Arial-BoldMT-117"/>
      <use x="555.664062" xlink:href="#Arial-BoldMT-108"/>
      <use x="583.447266" xlink:href="#Arial-BoldMT-117"/>
      <use x="644.53125" xlink:href="#Arial-BoldMT-351"/>
      <use x="700.146484" xlink:href="#Arial-BoldMT-117"/>
      <use x="761.230469" xlink:href="#Arial-BoldMT-32"/>
      <use x="789.013672" xlink:href="#Arial-BoldMT-84"/>
      <use x="850.097656" xlink:href="#Arial-BoldMT-252"/>
      <use x="911.181641" xlink:href="#Arial-BoldMT-114"/>
      <use x="950.097656" xlink:href="#Arial-BoldMT-252"/>
     </g>
    </g>
   </g>
   <g id="matplotlib.axis_2">
    <g id="ytick_1">
     <g id="line2d_9">
      <defs>
       <path d="M 0 0 
L -3.5 0 
" id="m37a2da4237" style="stroke:#000000;stroke-width:0.8;"/>
      </defs>
      <g>
       <use style="stroke:#000000;stroke-width:0.8;" x="70.05625" xlink:href="#m37a2da4237" y="779.535484"/>
      </g>
     </g>
     <g id="text_10">
      <!-- 0 -->
      <defs>
       <path d="M 31.78125 66.40625 
Q 24.171875 66.40625 20.328125 58.90625 
Q 16.5 51.421875 16.5 36.375 
Q 16.5 21.390625 20.328125 13.890625 
Q 24.171875 6.390625 31.78125 6.390625 
Q 39.453125 6.390625 43.28125 13.890625 
Q 47.125 21.390625 47.125 36.375 
Q 47.125 51.421875 43.28125 58.90625 
Q 39.453125 66.40625 31.78125 66.40625 
z
M 31.78125 74.21875 
Q 44.046875 74.21875 50.515625 64.515625 
Q 56.984375 54.828125 56.984375 36.375 
Q 56.984375 17.96875 50.515625 8.265625 
Q 44.046875 -1.421875 31.78125 -1.421875 
Q 19.53125 -1.421875 13.0625 8.265625 
Q 6.59375 17.96875 6.59375 36.375 
Q 6.59375 54.828125 13.0625 64.515625 
Q 19.53125 74.21875 31.78125 74.21875 
z
" id="DejaVuSans-48"/>
      </defs>
      <g transform="translate(56.69375 783.334703)scale(0.1 -0.1)">
       <use xlink:href="#DejaVuSans-48"/>
      </g>
     </g>
    </g>
    <g id="ytick_2">
     <g id="line2d_10">
      <g>
       <use style="stroke:#000000;stroke-width:0.8;" x="70.05625" xlink:href="#m37a2da4237" y="742.605564"/>
      </g>
     </g>
     <g id="text_11">
      <!-- 25 -->
      <defs>
       <path d="M 19.1875 8.296875 
L 53.609375 8.296875 
L 53.609375 0 
L 7.328125 0 
L 7.328125 8.296875 
Q 12.9375 14.109375 22.625 23.890625 
Q 32.328125 33.6875 34.8125 36.53125 
Q 39.546875 41.84375 41.421875 45.53125 
Q 43.3125 49.21875 43.3125 52.78125 
Q 43.3125 58.59375 39.234375 62.25 
Q 35.15625 65.921875 28.609375 65.921875 
Q 23.96875 65.921875 18.8125 64.3125 
Q 13.671875 62.703125 7.8125 59.421875 
L 7.8125 69.390625 
Q 13.765625 71.78125 18.9375 73 
Q 24.125 74.21875 28.421875 74.21875 
Q 39.75 74.21875 46.484375 68.546875 
Q 53.21875 62.890625 53.21875 53.421875 
Q 53.21875 48.921875 51.53125 44.890625 
Q 49.859375 40.875 45.40625 35.40625 
Q 44.1875 33.984375 37.640625 27.21875 
Q 31.109375 20.453125 19.1875 8.296875 
z
" id="DejaVuSans-50"/>
       <path d="M 10.796875 72.90625 
L 49.515625 72.90625 
L 49.515625 64.59375 
L 19.828125 64.59375 
L 19.828125 46.734375 
Q 21.96875 47.46875 24.109375 47.828125 
Q 26.265625 48.1875 28.421875 48.1875 
Q 40.625 48.1875 47.75 41.5 
Q 54.890625 34.8125 54.890625 23.390625 
Q 54.890625 11.625 47.5625 5.09375 
Q 40.234375 -1.421875 26.90625 -1.421875 
Q 22.3125 -1.421875 17.546875 -0.640625 
Q 12.796875 0.140625 7.71875 1.703125 
L 7.71875 11.625 
Q 12.109375 9.234375 16.796875 8.0625 
Q 21.484375 6.890625 26.703125 6.890625 
Q 35.15625 6.890625 40.078125 11.328125 
Q 45.015625 15.765625 45.015625 23.390625 
Q 45.015625 31 40.078125 35.4375 
Q 35.15625 39.890625 26.703125 39.890625 
Q 22.75 39.890625 18.8125 39.015625 
Q 14.890625 38.140625 10.796875 36.28125 
z
" id="DejaVuSans-53"/>
      </defs>
      <g transform="translate(50.33125 746.404783)scale(0.1 -0.1)">
       <use xlink:href="#DejaVuSans-50"/>
       <use x="63.623047" xlink:href="#DejaVuSans-53"/>
      </g>
     </g>
    </g>
    <g id="ytick_3">
     <g id="line2d_11">
      <g>
       <use style="stroke:#000000;stroke-width:0.8;" x="70.05625" xlink:href="#m37a2da4237" y="705.675645"/>
      </g>
     </g>
     <g id="text_12">
      <!-- 50 -->
      <g transform="translate(50.33125 709.474863)scale(0.1 -0.1)">
       <use xlink:href="#DejaVuSans-53"/>
       <use x="63.623047" xlink:href="#DejaVuSans-48"/>
      </g>
     </g>
    </g>
    <g id="ytick_4">
     <g id="line2d_12">
      <g>
       <use style="stroke:#000000;stroke-width:0.8;" x="70.05625" xlink:href="#m37a2da4237" y="668.745725"/>
      </g>
     </g>
     <g id="text_13">
      <!-- 75 -->
      <defs>
       <path d="M 8.203125 72.90625 
L 55.078125 72.90625 
L 55.078125 68.703125 
L 28.609375 0 
L 18.3125 0 
L 43.21875 64.59375 
L 8.203125 64.59375 
z
" id="DejaVuSans-55"/>
      </defs>
      <g transform="translate(50.33125 672.544943)scale(0.1 -0.1)">
       <use xlink:href="#DejaVuSans-55"/>
       <use x="63.623047" xlink:href="#DejaVuSans-53"/>
      </g>
     </g>
    </g>
    <g id="ytick_5">
     <g id="line2d_13">
      <g>
       <use style="stroke:#000000;stroke-width:0.8;" x="70.05625" xlink:href="#m37a2da4237" y="631.815805"/>
      </g>
     </g>
     <g id="text_14">
      <!-- 100 -->
      <defs>
       <path d="M 12.40625 8.296875 
L 28.515625 8.296875 
L 28.515625 63.921875 
L 10.984375 60.40625 
L 10.984375 69.390625 
L 28.421875 72.90625 
L 38.28125 72.90625 
L 38.28125 8.296875 
L 54.390625 8.296875 
L 54.390625 0 
L 12.40625 0 
z
" id="DejaVuSans-49"/>
      </defs>
      <g transform="translate(43.96875 635.615024)scale(0.1 -0.1)">
       <use xlink:href="#DejaVuSans-49"/>
       <use x="63.623047" xlink:href="#DejaVuSans-48"/>
       <use x="127.246094" xlink:href="#DejaVuSans-48"/>
      </g>
     </g>
    </g>
    <g id="ytick_6">
     <g id="line2d_14">
      <g>
       <use style="stroke:#000000;stroke-width:0.8;" x="70.05625" xlink:href="#m37a2da4237" y="594.885885"/>
      </g>
     </g>
     <g id="text_15">
      <!-- 125 -->
      <g transform="translate(43.96875 598.685104)scale(0.1 -0.1)">
       <use xlink:href="#DejaVuSans-49"/>
       <use x="63.623047" xlink:href="#DejaVuSans-50"/>
       <use x="127.246094" xlink:href="#DejaVuSans-53"/>
      </g>
     </g>
    </g>
    <g id="ytick_7">
     <g id="line2d_15">
      <g>
       <use style="stroke:#000000;stroke-width:0.8;" x="70.05625" xlink:href="#m37a2da4237" y="557.955965"/>
      </g>
     </g>
     <g id="text_16">
      <!-- 150 -->
      <g transform="translate(43.96875 561.755184)scale(0.1 -0.1)">
       <use xlink:href="#DejaVuSans-49"/>
       <use x="63.623047" xlink:href="#DejaVuSans-53"/>
       <use x="127.246094" xlink:href="#DejaVuSans-48"/>
      </g>
     </g>
    </g>
    <g id="ytick_8">
     <g id="line2d_16">
      <g>
       <use style="stroke:#000000;stroke-width:0.8;" x="70.05625" xlink:href="#m37a2da4237" y="521.026046"/>
      </g>
     </g>
     <g id="text_17">
      <!-- 175 -->
      <g transform="translate(43.96875 524.825264)scale(0.1 -0.1)">
       <use xlink:href="#DejaVuSans-49"/>
       <use x="63.623047" xlink:href="#DejaVuSans-55"/>
       <use x="127.246094" xlink:href="#DejaVuSans-53"/>
      </g>
     </g>
    </g>
    <g id="ytick_9">
     <g id="line2d_17">
      <g>
       <use style="stroke:#000000;stroke-width:0.8;" x="70.05625" xlink:href="#m37a2da4237" y="484.096126"/>
      </g>
     </g>
     <g id="text_18">
      <!-- 200 -->
      <g transform="translate(43.96875 487.895345)scale(0.1 -0.1)">
       <use xlink:href="#DejaVuSans-50"/>
       <use x="63.623047" xlink:href="#DejaVuSans-48"/>
       <use x="127.246094" xlink:href="#DejaVuSans-48"/>
      </g>
     </g>
    </g>
    <g id="ytick_10">
     <g id="line2d_18">
      <g>
       <use style="stroke:#000000;stroke-width:0.8;" x="70.05625" xlink:href="#m37a2da4237" y="447.166206"/>
      </g>
     </g>
     <g id="text_19">
      <!-- 225 -->
      <g transform="translate(43.96875 450.965425)scale(0.1 -0.1)">
       <use xlink:href="#DejaVuSans-50"/>
       <use x="63.623047" xlink:href="#DejaVuSans-50"/>
       <use x="127.246094" xlink:href="#DejaVuSans-53"/>
      </g>
     </g>
    </g>
    <g id="ytick_11">
     <g id="line2d_19">
      <g>
       <use style="stroke:#000000;stroke-width:0.8;" x="70.05625" xlink:href="#m37a2da4237" y="410.236286"/>
      </g>
     </g>
     <g id="text_20">
      <!-- 250 -->
      <g transform="translate(43.96875 414.035505)scale(0.1 -0.1)">
       <use xlink:href="#DejaVuSans-50"/>
       <use x="63.623047" xlink:href="#DejaVuSans-53"/>
       <use x="127.246094" xlink:href="#DejaVuSans-48"/>
      </g>
     </g>
    </g>
    <g id="ytick_12">
     <g id="line2d_20">
      <g>
       <use style="stroke:#000000;stroke-width:0.8;" x="70.05625" xlink:href="#m37a2da4237" y="373.306366"/>
      </g>
     </g>
     <g id="text_21">
      <!-- 275 -->
      <g transform="translate(43.96875 377.105585)scale(0.1 -0.1)">
       <use xlink:href="#DejaVuSans-50"/>
       <use x="63.623047" xlink:href="#DejaVuSans-55"/>
       <use x="127.246094" xlink:href="#DejaVuSans-53"/>
      </g>
     </g>
    </g>
    <g id="ytick_13">
     <g id="line2d_21">
      <g>
       <use style="stroke:#000000;stroke-width:0.8;" x="70.05625" xlink:href="#m37a2da4237" y="336.376447"/>
      </g>
     </g>
     <g id="text_22">
      <!-- 300 -->
      <defs>
       <path d="M 40.578125 39.3125 
Q 47.65625 37.796875 51.625 33 
Q 55.609375 28.21875 55.609375 21.1875 
Q 55.609375 10.40625 48.1875 4.484375 
Q 40.765625 -1.421875 27.09375 -1.421875 
Q 22.515625 -1.421875 17.65625 -0.515625 
Q 12.796875 0.390625 7.625 2.203125 
L 7.625 11.71875 
Q 11.71875 9.328125 16.59375 8.109375 
Q 21.484375 6.890625 26.8125 6.890625 
Q 36.078125 6.890625 40.9375 10.546875 
Q 45.796875 14.203125 45.796875 21.1875 
Q 45.796875 27.640625 41.28125 31.265625 
Q 36.765625 34.90625 28.71875 34.90625 
L 20.21875 34.90625 
L 20.21875 43.015625 
L 29.109375 43.015625 
Q 36.375 43.015625 40.234375 45.921875 
Q 44.09375 48.828125 44.09375 54.296875 
Q 44.09375 59.90625 40.109375 62.90625 
Q 36.140625 65.921875 28.71875 65.921875 
Q 24.65625 65.921875 20.015625 65.03125 
Q 15.375 64.15625 9.8125 62.3125 
L 9.8125 71.09375 
Q 15.4375 72.65625 20.34375 73.4375 
Q 25.25 74.21875 29.59375 74.21875 
Q 40.828125 74.21875 47.359375 69.109375 
Q 53.90625 64.015625 53.90625 55.328125 
Q 53.90625 49.265625 50.4375 45.09375 
Q 46.96875 40.921875 40.578125 39.3125 
z
" id="DejaVuSans-51"/>
      </defs>
      <g transform="translate(43.96875 340.175665)scale(0.1 -0.1)">
       <use xlink:href="#DejaVuSans-51"/>
       <use x="63.623047" xlink:href="#DejaVuSans-48"/>
       <use x="127.246094" xlink:href="#DejaVuSans-48"/>
      </g>
     </g>
    </g>
    <g id="ytick_14">
     <g id="line2d_22">
      <g>
       <use style="stroke:#000000;stroke-width:0.8;" x="70.05625" xlink:href="#m37a2da4237" y="299.446527"/>
      </g>
     </g>
     <g id="text_23">
      <!-- 325 -->
      <g transform="translate(43.96875 303.245746)scale(0.1 -0.1)">
       <use xlink:href="#DejaVuSans-51"/>
       <use x="63.623047" xlink:href="#DejaVuSans-50"/>
       <use x="127.246094" xlink:href="#DejaVuSans-53"/>
      </g>
     </g>
    </g>
    <g id="ytick_15">
     <g id="line2d_23">
      <g>
       <use style="stroke:#000000;stroke-width:0.8;" x="70.05625" xlink:href="#m37a2da4237" y="262.516607"/>
      </g>
     </g>
     <g id="text_24">
      <!-- 350 -->
      <g transform="translate(43.96875 266.315826)scale(0.1 -0.1)">
       <use xlink:href="#DejaVuSans-51"/>
       <use x="63.623047" xlink:href="#DejaVuSans-53"/>
       <use x="127.246094" xlink:href="#DejaVuSans-48"/>
      </g>
     </g>
    </g>
    <g id="ytick_16">
     <g id="line2d_24">
      <g>
       <use style="stroke:#000000;stroke-width:0.8;" x="70.05625" xlink:href="#m37a2da4237" y="225.586687"/>
      </g>
     </g>
     <g id="text_25">
      <!-- 375 -->
      <g transform="translate(43.96875 229.385906)scale(0.1 -0.1)">
       <use xlink:href="#DejaVuSans-51"/>
       <use x="63.623047" xlink:href="#DejaVuSans-55"/>
       <use x="127.246094" xlink:href="#DejaVuSans-53"/>
      </g>
     </g>
    </g>
    <g id="ytick_17">
     <g id="line2d_25">
      <g>
       <use style="stroke:#000000;stroke-width:0.8;" x="70.05625" xlink:href="#m37a2da4237" y="188.656767"/>
      </g>
     </g>
     <g id="text_26">
      <!-- 400 -->
      <defs>
       <path d="M 37.796875 64.3125 
L 12.890625 25.390625 
L 37.796875 25.390625 
z
M 35.203125 72.90625 
L 47.609375 72.90625 
L 47.609375 25.390625 
L 58.015625 25.390625 
L 58.015625 17.1875 
L 47.609375 17.1875 
L 47.609375 0 
L 37.796875 0 
L 37.796875 17.1875 
L 4.890625 17.1875 
L 4.890625 26.703125 
z
" id="DejaVuSans-52"/>
      </defs>
      <g transform="translate(43.96875 192.455986)scale(0.1 -0.1)">
       <use xlink:href="#DejaVuSans-52"/>
       <use x="63.623047" xlink:href="#DejaVuSans-48"/>
       <use x="127.246094" xlink:href="#DejaVuSans-48"/>
      </g>
     </g>
    </g>
    <g id="ytick_18">
     <g id="line2d_26">
      <g>
       <use style="stroke:#000000;stroke-width:0.8;" x="70.05625" xlink:href="#m37a2da4237" y="151.726848"/>
      </g>
     </g>
     <g id="text_27">
      <!-- 425 -->
      <g transform="translate(43.96875 155.526066)scale(0.1 -0.1)">
       <use xlink:href="#DejaVuSans-52"/>
       <use x="63.623047" xlink:href="#DejaVuSans-50"/>
       <use x="127.246094" xlink:href="#DejaVuSans-53"/>
      </g>
     </g>
    </g>
    <g id="ytick_19">
     <g id="line2d_27">
      <g>
       <use style="stroke:#000000;stroke-width:0.8;" x="70.05625" xlink:href="#m37a2da4237" y="114.796928"/>
      </g>
     </g>
     <g id="text_28">
      <!-- 450 -->
      <g transform="translate(43.96875 118.596147)scale(0.1 -0.1)">
       <use xlink:href="#DejaVuSans-52"/>
       <use x="63.623047" xlink:href="#DejaVuSans-53"/>
       <use x="127.246094" xlink:href="#DejaVuSans-48"/>
      </g>
     </g>
    </g>
    <g id="text_29">
     <!-- Sağlık kuruluşu sayısı -->
     <g transform="translate(21.759375 535.58368)rotate(-90)scale(0.2 -0.2)">
      <use xlink:href="#Arial-BoldMT-83"/>
      <use x="66.699219" xlink:href="#Arial-BoldMT-97"/>
      <use x="122.314453" xlink:href="#Arial-BoldMT-287"/>
      <use x="183.398438" xlink:href="#Arial-BoldMT-108"/>
      <use x="211.181641" xlink:href="#Arial-BoldMT-305"/>
      <use x="238.964844" xlink:href="#Arial-BoldMT-107"/>
      <use x="294.580078" xlink:href="#Arial-BoldMT-32"/>
      <use x="322.363281" xlink:href="#Arial-BoldMT-107"/>
      <use x="377.978516" xlink:href="#Arial-BoldMT-117"/>
      <use x="439.0625" xlink:href="#Arial-BoldMT-114"/>
      <use x="477.978516" xlink:href="#Arial-BoldMT-117"/>
      <use x="539.0625" xlink:href="#Arial-BoldMT-108"/>
      <use x="566.845703" xlink:href="#Arial-BoldMT-117"/>
      <use x="627.929688" xlink:href="#Arial-BoldMT-351"/>
      <use x="683.544922" xlink:href="#Arial-BoldMT-117"/>
      <use x="744.628906" xlink:href="#Arial-BoldMT-32"/>
      <use x="772.412109" xlink:href="#Arial-BoldMT-115"/>
      <use x="828.027344" xlink:href="#Arial-BoldMT-97"/>
      <use x="883.642578" xlink:href="#Arial-BoldMT-121"/>
      <use x="939.257812" xlink:href="#Arial-BoldMT-305"/>
      <use x="967.041016" xlink:href="#Arial-BoldMT-115"/>
      <use x="1022.65625" xlink:href="#Arial-BoldMT-305"/>
     </g>
    </g>
   </g>
   <g id="patch_19">
    <path d="M 70.05625 779.535484 
L 70.05625 81.56 
" style="fill:none;stroke:#000000;stroke-linecap:square;stroke-linejoin:miter;stroke-width:0.8;"/>
   </g>
   <g id="patch_20">
    <path d="M 70.05625 779.535484 
L 1828.53125 779.535484 
" style="fill:none;stroke:#000000;stroke-linecap:square;stroke-linejoin:miter;stroke-width:0.8;"/>
   </g>
   <g id="text_30">
    <!-- 450 -->
    <g transform="translate(199.65613 109.796928)rotate(-90)scale(0.15 -0.15)">
     <use xlink:href="#DejaVuSans-52"/>
     <use x="63.623047" xlink:href="#DejaVuSans-53"/>
     <use x="127.246094" xlink:href="#DejaVuSans-48"/>
    </g>
   </g>
   <g id="text_31">
    <!-- 180 -->
    <defs>
     <path d="M 31.78125 34.625 
Q 24.75 34.625 20.71875 30.859375 
Q 16.703125 27.09375 16.703125 20.515625 
Q 16.703125 13.921875 20.71875 10.15625 
Q 24.75 6.390625 31.78125 6.390625 
Q 38.8125 6.390625 42.859375 10.171875 
Q 46.921875 13.96875 46.921875 20.515625 
Q 46.921875 27.09375 42.890625 30.859375 
Q 38.875 34.625 31.78125 34.625 
z
M 21.921875 38.8125 
Q 15.578125 40.375 12.03125 44.71875 
Q 8.5 49.078125 8.5 55.328125 
Q 8.5 64.0625 14.71875 69.140625 
Q 20.953125 74.21875 31.78125 74.21875 
Q 42.671875 74.21875 48.875 69.140625 
Q 55.078125 64.0625 55.078125 55.328125 
Q 55.078125 49.078125 51.53125 44.71875 
Q 48 40.375 41.703125 38.8125 
Q 48.828125 37.15625 52.796875 32.3125 
Q 56.78125 27.484375 56.78125 20.515625 
Q 56.78125 9.90625 50.3125 4.234375 
Q 43.84375 -1.421875 31.78125 -1.421875 
Q 19.734375 -1.421875 13.25 4.234375 
Q 6.78125 9.90625 6.78125 20.515625 
Q 6.78125 27.484375 10.78125 32.3125 
Q 14.796875 37.15625 21.921875 38.8125 
z
M 18.3125 54.390625 
Q 18.3125 48.734375 21.84375 45.5625 
Q 25.390625 42.390625 31.78125 42.390625 
Q 38.140625 42.390625 41.71875 45.5625 
Q 45.3125 48.734375 45.3125 54.390625 
Q 45.3125 60.0625 41.71875 63.234375 
Q 38.140625 66.40625 31.78125 66.40625 
Q 25.390625 66.40625 21.84375 63.234375 
Q 18.3125 60.0625 18.3125 54.390625 
z
" id="DejaVuSans-56"/>
    </defs>
    <g transform="translate(402.012286 508.640062)rotate(-90)scale(0.15 -0.15)">
     <use xlink:href="#DejaVuSans-49"/>
     <use x="63.623047" xlink:href="#DejaVuSans-56"/>
     <use x="127.246094" xlink:href="#DejaVuSans-48"/>
    </g>
   </g>
   <g id="text_32">
    <!-- 177 -->
    <g transform="translate(604.368443 513.071652)rotate(-90)scale(0.15 -0.15)">
     <use xlink:href="#DejaVuSans-49"/>
     <use x="63.623047" xlink:href="#DejaVuSans-55"/>
     <use x="127.246094" xlink:href="#DejaVuSans-55"/>
    </g>
   </g>
   <g id="text_33">
    <!-- 114 -->
    <g transform="translate(806.724599 606.13505)rotate(-90)scale(0.15 -0.15)">
     <use xlink:href="#DejaVuSans-49"/>
     <use x="63.623047" xlink:href="#DejaVuSans-49"/>
     <use x="127.246094" xlink:href="#DejaVuSans-52"/>
    </g>
   </g>
   <g id="text_34">
    <!-- 60 -->
    <defs>
     <path d="M 33.015625 40.375 
Q 26.375 40.375 22.484375 35.828125 
Q 18.609375 31.296875 18.609375 23.390625 
Q 18.609375 15.53125 22.484375 10.953125 
Q 26.375 6.390625 33.015625 6.390625 
Q 39.65625 6.390625 43.53125 10.953125 
Q 47.40625 15.53125 47.40625 23.390625 
Q 47.40625 31.296875 43.53125 35.828125 
Q 39.65625 40.375 33.015625 40.375 
z
M 52.59375 71.296875 
L 52.59375 62.3125 
Q 48.875 64.0625 45.09375 64.984375 
Q 41.3125 65.921875 37.59375 65.921875 
Q 27.828125 65.921875 22.671875 59.328125 
Q 17.53125 52.734375 16.796875 39.40625 
Q 19.671875 43.65625 24.015625 45.921875 
Q 28.375 48.1875 33.59375 48.1875 
Q 44.578125 48.1875 50.953125 41.515625 
Q 57.328125 34.859375 57.328125 23.390625 
Q 57.328125 12.15625 50.6875 5.359375 
Q 44.046875 -1.421875 33.015625 -1.421875 
Q 20.359375 -1.421875 13.671875 8.265625 
Q 6.984375 17.96875 6.984375 36.375 
Q 6.984375 53.65625 15.1875 63.9375 
Q 23.390625 74.21875 37.203125 74.21875 
Q 40.921875 74.21875 44.703125 73.484375 
Q 48.484375 72.75 52.59375 71.296875 
z
" id="DejaVuSans-54"/>
    </defs>
    <g transform="translate(1009.080756 685.903677)rotate(-90)scale(0.15 -0.15)">
     <use xlink:href="#DejaVuSans-54"/>
     <use x="63.623047" xlink:href="#DejaVuSans-48"/>
    </g>
   </g>
   <g id="text_35">
    <!-- 21 -->
    <g transform="translate(1211.436912 743.514351)rotate(-90)scale(0.15 -0.15)">
     <use xlink:href="#DejaVuSans-50"/>
     <use x="63.623047" xlink:href="#DejaVuSans-49"/>
    </g>
   </g>
   <g id="text_36">
    <!-- 10 -->
    <g transform="translate(1413.793069 759.763516)rotate(-90)scale(0.15 -0.15)">
     <use xlink:href="#DejaVuSans-49"/>
     <use x="63.623047" xlink:href="#DejaVuSans-48"/>
    </g>
   </g>
   <g id="text_37">
    <!-- 1 -->
    <g transform="translate(1616.149225 773.058287)rotate(-90)scale(0.15 -0.15)">
     <use xlink:href="#DejaVuSans-49"/>
    </g>
   </g>
   <g id="text_38">
    <!-- 33 -->
    <g transform="translate(290.7164 725.78799)rotate(-90)scale(0.15 -0.15)">
     <use xlink:href="#DejaVuSans-51"/>
     <use x="63.623047" xlink:href="#DejaVuSans-51"/>
    </g>
   </g>
   <g id="text_39">
    <!-- 43 -->
    <g transform="translate(493.072556 711.016022)rotate(-90)scale(0.15 -0.15)">
     <use xlink:href="#DejaVuSans-52"/>
     <use x="63.623047" xlink:href="#DejaVuSans-51"/>
    </g>
   </g>
   <g id="text_40">
    <!-- 13 -->
    <g transform="translate(695.428713 755.331926)rotate(-90)scale(0.15 -0.15)">
     <use xlink:href="#DejaVuSans-49"/>
     <use x="63.623047" xlink:href="#DejaVuSans-51"/>
    </g>
   </g>
   <g id="text_41">
    <!-- 111 -->
    <g transform="translate(897.784869 610.56664)rotate(-90)scale(0.15 -0.15)">
     <use xlink:href="#DejaVuSans-49"/>
     <use x="63.623047" xlink:href="#DejaVuSans-49"/>
     <use x="127.246094" xlink:href="#DejaVuSans-49"/>
    </g>
   </g>
   <g id="text_42">
    <!-- 27 -->
    <g transform="translate(1100.141026 734.651171)rotate(-90)scale(0.15 -0.15)">
     <use xlink:href="#DejaVuSans-50"/>
     <use x="63.623047" xlink:href="#DejaVuSans-55"/>
    </g>
   </g>
   <g id="text_43">
    <!-- 5 -->
    <g transform="translate(1302.497182 767.1495)rotate(-90)scale(0.15 -0.15)">
     <use xlink:href="#DejaVuSans-53"/>
    </g>
   </g>
   <g id="text_44">
    <!-- 2 -->
    <g transform="translate(1504.853339 771.581091)rotate(-90)scale(0.15 -0.15)">
     <use xlink:href="#DejaVuSans-50"/>
    </g>
   </g>
   <g id="text_45">
    <!-- 40 -->
    <g transform="translate(1707.209495 715.447612)rotate(-90)scale(0.15 -0.15)">
     <use xlink:href="#DejaVuSans-52"/>
     <use x="63.623047" xlink:href="#DejaVuSans-48"/>
    </g>
   </g>
   <g id="text_46">
    <!-- 33 tür sağlık kuruluşundan 8'i özel sektör tarafından da işletilebiliyor.  -->
    <defs>
     <path d="M 3.765625 19 
L 17.046875 20.609375 
Q 17.671875 15.53125 20.453125 12.84375 
Q 23.25 10.15625 27.203125 10.15625 
Q 31.453125 10.15625 34.34375 13.375 
Q 37.25 16.609375 37.25 22.078125 
Q 37.25 27.25 34.46875 30.265625 
Q 31.6875 33.296875 27.6875 33.296875 
Q 25.046875 33.296875 21.390625 32.28125 
L 22.90625 43.453125 
Q 28.46875 43.3125 31.390625 45.875 
Q 34.328125 48.4375 34.328125 52.6875 
Q 34.328125 56.296875 32.171875 58.4375 
Q 30.03125 60.59375 26.46875 60.59375 
Q 22.953125 60.59375 20.453125 58.15625 
Q 17.96875 55.71875 17.4375 51.03125 
L 4.78125 53.171875 
Q 6.109375 59.671875 8.765625 63.546875 
Q 11.421875 67.4375 16.1875 69.65625 
Q 20.953125 71.875 26.859375 71.875 
Q 36.96875 71.875 43.0625 65.4375 
Q 48.09375 60.15625 48.09375 53.515625 
Q 48.09375 44.09375 37.796875 38.484375 
Q 43.953125 37.15625 47.625 32.5625 
Q 51.3125 27.984375 51.3125 21.484375 
Q 51.3125 12.0625 44.421875 5.421875 
Q 37.546875 -1.21875 27.296875 -1.21875 
Q 17.578125 -1.21875 11.171875 4.375 
Q 4.78125 9.96875 3.765625 19 
z
" id="Arial-BoldMT-51"/>
     <path d="M 16.015625 38.625 
Q 10.6875 40.875 8.265625 44.796875 
Q 5.859375 48.734375 5.859375 53.421875 
Q 5.859375 61.421875 11.453125 66.640625 
Q 17.046875 71.875 27.34375 71.875 
Q 37.546875 71.875 43.1875 66.640625 
Q 48.828125 61.421875 48.828125 53.421875 
Q 48.828125 48.4375 46.234375 44.546875 
Q 43.65625 40.671875 38.96875 38.625 
Q 44.921875 36.234375 48.015625 31.640625 
Q 51.125 27.046875 51.125 21.046875 
Q 51.125 11.140625 44.796875 4.9375 
Q 38.484375 -1.265625 27.984375 -1.265625 
Q 18.21875 -1.265625 11.71875 3.859375 
Q 4.046875 9.90625 4.046875 20.453125 
Q 4.046875 26.265625 6.921875 31.125 
Q 9.8125 35.984375 16.015625 38.625 
z
M 18.84375 52.4375 
Q 18.84375 48.34375 21.15625 46.046875 
Q 23.484375 43.75 27.34375 43.75 
Q 31.25 43.75 33.59375 46.0625 
Q 35.9375 48.390625 35.9375 52.484375 
Q 35.9375 56.34375 33.609375 58.65625 
Q 31.296875 60.984375 27.484375 60.984375 
Q 23.53125 60.984375 21.1875 58.640625 
Q 18.84375 56.296875 18.84375 52.4375 
z
M 17.578125 21.78125 
Q 17.578125 16.109375 20.484375 12.9375 
Q 23.390625 9.765625 27.734375 9.765625 
Q 31.984375 9.765625 34.765625 12.8125 
Q 37.546875 15.875 37.546875 21.625 
Q 37.546875 26.65625 34.71875 29.703125 
Q 31.890625 32.765625 27.546875 32.765625 
Q 22.515625 32.765625 20.046875 29.296875 
Q 17.578125 25.828125 17.578125 21.78125 
z
" id="Arial-BoldMT-56"/>
     <path d="M 7.078125 46.140625 
L 4.5 59.46875 
L 4.5 71.578125 
L 19.4375 71.578125 
L 19.4375 59.46875 
L 17.1875 46.140625 
z
" id="Arial-BoldMT-39"/>
     <path d="M 4 26.65625 
Q 4 33.5 7.375 39.890625 
Q 10.75 46.296875 16.921875 49.65625 
Q 23.09375 53.03125 30.71875 53.03125 
Q 42.484375 53.03125 50 45.390625 
Q 57.515625 37.75 57.515625 26.078125 
Q 57.515625 14.3125 49.921875 6.5625 
Q 42.328125 -1.171875 30.8125 -1.171875 
Q 23.6875 -1.171875 17.21875 2.046875 
Q 10.75 5.28125 7.375 11.5 
Q 4 17.71875 4 26.65625 
z
M 18.0625 25.921875 
Q 18.0625 18.21875 21.71875 14.109375 
Q 25.390625 10.015625 30.765625 10.015625 
Q 36.140625 10.015625 39.765625 14.109375 
Q 43.40625 18.21875 43.40625 26.03125 
Q 43.40625 33.640625 39.765625 37.734375 
Q 36.140625 41.84375 30.765625 41.84375 
Q 25.390625 41.84375 21.71875 37.734375 
Q 18.0625 33.640625 18.0625 25.921875 
z
M 13.8125 61.03125 
L 13.8125 72.796875 
L 25.59375 72.796875 
L 25.59375 61.03125 
z
M 34.8125 61.03125 
L 34.8125 72.796875 
L 46.625 72.796875 
L 46.625 61.03125 
z
" id="Arial-BoldMT-246"/>
     <path d="M 1.171875 51.859375 
L 8.796875 51.859375 
L 8.796875 55.765625 
Q 8.796875 62.3125 10.1875 65.53125 
Q 11.578125 68.75 15.3125 70.765625 
Q 19.046875 72.796875 24.75 72.796875 
Q 30.609375 72.796875 36.234375 71.046875 
L 34.375 61.46875 
Q 31.109375 62.25 28.078125 62.25 
Q 25.09375 62.25 23.796875 60.859375 
Q 22.515625 59.46875 22.515625 55.515625 
L 22.515625 51.859375 
L 32.765625 51.859375 
L 32.765625 41.0625 
L 22.515625 41.0625 
L 22.515625 0 
L 8.796875 0 
L 8.796875 41.0625 
L 1.171875 41.0625 
z
" id="Arial-BoldMT-102"/>
     <path d="M 6.59375 0 
L 6.59375 71.578125 
L 20.3125 71.578125 
L 20.3125 45.796875 
Q 26.65625 53.03125 35.359375 53.03125 
Q 44.828125 53.03125 51.03125 46.171875 
Q 57.234375 39.3125 57.234375 26.46875 
Q 57.234375 13.1875 50.90625 6 
Q 44.578125 -1.171875 35.546875 -1.171875 
Q 31.109375 -1.171875 26.78125 1.046875 
Q 22.46875 3.265625 19.34375 7.625 
L 19.34375 0 
z
M 20.21875 27.046875 
Q 20.21875 19 22.75 15.140625 
Q 26.3125 9.671875 32.234375 9.671875 
Q 36.765625 9.671875 39.96875 13.546875 
Q 43.171875 17.4375 43.171875 25.78125 
Q 43.171875 34.671875 39.9375 38.59375 
Q 36.71875 42.53125 31.6875 42.53125 
Q 26.765625 42.53125 23.484375 38.6875 
Q 20.21875 34.859375 20.21875 27.046875 
z
" id="Arial-BoldMT-98"/>
     <path d="M 7.171875 0 
L 7.171875 13.71875 
L 20.90625 13.71875 
L 20.90625 0 
z
" id="Arial-BoldMT-46"/>
    </defs>
    <g transform="translate(453.142969 29.039062)scale(0.3 -0.3)">
     <use xlink:href="#Arial-BoldMT-51"/>
     <use x="55.615234" xlink:href="#Arial-BoldMT-51"/>
     <use x="111.230469" xlink:href="#Arial-BoldMT-32"/>
     <use x="139.013672" xlink:href="#Arial-BoldMT-116"/>
     <use x="172.314453" xlink:href="#Arial-BoldMT-252"/>
     <use x="233.398438" xlink:href="#Arial-BoldMT-114"/>
     <use x="272.314453" xlink:href="#Arial-BoldMT-32"/>
     <use x="300.097656" xlink:href="#Arial-BoldMT-115"/>
     <use x="355.712891" xlink:href="#Arial-BoldMT-97"/>
     <use x="411.328125" xlink:href="#Arial-BoldMT-287"/>
     <use x="472.412109" xlink:href="#Arial-BoldMT-108"/>
     <use x="500.195312" xlink:href="#Arial-BoldMT-305"/>
     <use x="527.978516" xlink:href="#Arial-BoldMT-107"/>
     <use x="583.59375" xlink:href="#Arial-BoldMT-32"/>
     <use x="611.376953" xlink:href="#Arial-BoldMT-107"/>
     <use x="666.992188" xlink:href="#Arial-BoldMT-117"/>
     <use x="728.076172" xlink:href="#Arial-BoldMT-114"/>
     <use x="766.992188" xlink:href="#Arial-BoldMT-117"/>
     <use x="828.076172" xlink:href="#Arial-BoldMT-108"/>
     <use x="855.859375" xlink:href="#Arial-BoldMT-117"/>
     <use x="916.943359" xlink:href="#Arial-BoldMT-351"/>
     <use x="972.558594" xlink:href="#Arial-BoldMT-117"/>
     <use x="1033.642578" xlink:href="#Arial-BoldMT-110"/>
     <use x="1094.726562" xlink:href="#Arial-BoldMT-100"/>
     <use x="1155.810547" xlink:href="#Arial-BoldMT-97"/>
     <use x="1211.425781" xlink:href="#Arial-BoldMT-110"/>
     <use x="1272.509766" xlink:href="#Arial-BoldMT-32"/>
     <use x="1300.292969" xlink:href="#Arial-BoldMT-56"/>
     <use x="1355.908203" xlink:href="#Arial-BoldMT-39"/>
     <use x="1379.6875" xlink:href="#Arial-BoldMT-105"/>
     <use x="1407.470703" xlink:href="#Arial-BoldMT-32"/>
     <use x="1435.253906" xlink:href="#Arial-BoldMT-246"/>
     <use x="1496.337891" xlink:href="#Arial-BoldMT-122"/>
     <use x="1546.337891" xlink:href="#Arial-BoldMT-101"/>
     <use x="1601.953125" xlink:href="#Arial-BoldMT-108"/>
     <use x="1629.736328" xlink:href="#Arial-BoldMT-32"/>
     <use x="1657.519531" xlink:href="#Arial-BoldMT-115"/>
     <use x="1713.134766" xlink:href="#Arial-BoldMT-101"/>
     <use x="1768.75" xlink:href="#Arial-BoldMT-107"/>
     <use x="1824.365234" xlink:href="#Arial-BoldMT-116"/>
     <use x="1857.666016" xlink:href="#Arial-BoldMT-246"/>
     <use x="1918.75" xlink:href="#Arial-BoldMT-114"/>
     <use x="1957.666016" xlink:href="#Arial-BoldMT-32"/>
     <use x="1985.449219" xlink:href="#Arial-BoldMT-116"/>
     <use x="2018.75" xlink:href="#Arial-BoldMT-97"/>
     <use x="2074.365234" xlink:href="#Arial-BoldMT-114"/>
     <use x="2113.28125" xlink:href="#Arial-BoldMT-97"/>
     <use x="2168.896484" xlink:href="#Arial-BoldMT-102"/>
     <use x="2202.197266" xlink:href="#Arial-BoldMT-305"/>
     <use x="2229.980469" xlink:href="#Arial-BoldMT-110"/>
     <use x="2291.064453" xlink:href="#Arial-BoldMT-100"/>
     <use x="2352.148438" xlink:href="#Arial-BoldMT-97"/>
     <use x="2407.763672" xlink:href="#Arial-BoldMT-110"/>
     <use x="2468.847656" xlink:href="#Arial-BoldMT-32"/>
     <use x="2496.630859" xlink:href="#Arial-BoldMT-100"/>
     <use x="2557.714844" xlink:href="#Arial-BoldMT-97"/>
     <use x="2613.330078" xlink:href="#Arial-BoldMT-32"/>
     <use x="2641.113281" xlink:href="#Arial-BoldMT-105"/>
     <use x="2668.896484" xlink:href="#Arial-BoldMT-351"/>
     <use x="2724.511719" xlink:href="#Arial-BoldMT-108"/>
     <use x="2752.294922" xlink:href="#Arial-BoldMT-101"/>
     <use x="2807.910156" xlink:href="#Arial-BoldMT-116"/>
     <use x="2841.210938" xlink:href="#Arial-BoldMT-105"/>
     <use x="2868.994141" xlink:href="#Arial-BoldMT-108"/>
     <use x="2896.777344" xlink:href="#Arial-BoldMT-101"/>
     <use x="2952.392578" xlink:href="#Arial-BoldMT-98"/>
     <use x="3013.476562" xlink:href="#Arial-BoldMT-105"/>
     <use x="3041.259766" xlink:href="#Arial-BoldMT-108"/>
     <use x="3069.042969" xlink:href="#Arial-BoldMT-105"/>
     <use x="3096.826172" xlink:href="#Arial-BoldMT-121"/>
     <use x="3152.441406" xlink:href="#Arial-BoldMT-111"/>
     <use x="3213.525391" xlink:href="#Arial-BoldMT-114"/>
     <use x="3252.363281" xlink:href="#Arial-BoldMT-46"/>
     <use x="3280.146484" xlink:href="#Arial-BoldMT-32"/>
    </g>
    <!--  Bu 8 tür kuruluş içinde özel işletme sayısı devletten genelde daha fazla. -->
    <defs>
     <path d="M 7.328125 71.578125 
L 35.9375 71.578125 
Q 44.4375 71.578125 48.609375 70.875 
Q 52.78125 70.171875 56.078125 67.921875 
Q 59.375 65.671875 61.5625 61.9375 
Q 63.765625 58.203125 63.765625 53.5625 
Q 63.765625 48.53125 61.046875 44.328125 
Q 58.34375 40.140625 53.71875 38.03125 
Q 60.25 36.140625 63.765625 31.546875 
Q 67.28125 26.953125 67.28125 20.75 
Q 67.28125 15.875 65.015625 11.25 
Q 62.75 6.640625 58.8125 3.875 
Q 54.890625 1.125 49.125 0.484375 
Q 45.515625 0.09375 31.6875 0 
L 7.328125 0 
z
M 21.78125 59.671875 
L 21.78125 43.109375 
L 31.25 43.109375 
Q 39.703125 43.109375 41.75 43.359375 
Q 45.453125 43.796875 47.578125 45.921875 
Q 49.703125 48.046875 49.703125 51.515625 
Q 49.703125 54.828125 47.875 56.90625 
Q 46.046875 58.984375 42.4375 59.421875 
Q 40.28125 59.671875 30.078125 59.671875 
z
M 21.78125 31.203125 
L 21.78125 12.0625 
L 35.15625 12.0625 
Q 42.96875 12.0625 45.0625 12.5 
Q 48.296875 13.09375 50.3125 15.359375 
Q 52.34375 17.625 52.34375 21.4375 
Q 52.34375 24.65625 50.78125 26.90625 
Q 49.21875 29.15625 46.265625 30.171875 
Q 43.3125 31.203125 33.453125 31.203125 
z
" id="Arial-BoldMT-66"/>
     <path d="M 52.390625 36.53125 
L 38.875 34.078125 
Q 38.1875 38.140625 35.765625 40.1875 
Q 33.34375 42.234375 29.5 42.234375 
Q 24.359375 42.234375 21.3125 38.6875 
Q 18.265625 35.15625 18.265625 26.859375 
Q 18.265625 17.625 21.359375 13.8125 
Q 24.46875 10.015625 29.6875 10.015625 
Q 33.59375 10.015625 36.078125 12.234375 
Q 38.578125 14.453125 39.59375 19.875 
L 53.078125 17.578125 
Q 50.984375 8.296875 45.015625 3.5625 
Q 39.0625 -1.171875 29.046875 -1.171875 
Q 17.671875 -1.171875 10.90625 6 
Q 4.15625 13.1875 4.15625 25.875 
Q 4.15625 38.71875 10.9375 45.875 
Q 17.71875 53.03125 29.296875 53.03125 
Q 38.765625 53.03125 44.359375 48.953125 
Q 49.953125 44.875 52.390625 36.53125 
z
M 15.4375 -19.671875 
L 15.4375 -13.921875 
Q 20.453125 -14.453125 24.65625 -14.453125 
Q 29 -14.453125 31.109375 -12.890625 
Q 32.71875 -11.71875 32.71875 -9.859375 
Q 32.71875 -8.203125 31.203125 -6.984375 
Q 29.6875 -5.765625 26.515625 -5.765625 
Q 23.390625 -5.765625 20.125 -6.734375 
L 21.390625 -1.90625 
Q 25.203125 -0.59375 29.59375 -0.59375 
Q 35.6875 -0.59375 38.859375 -3.265625 
Q 42.046875 -5.953125 42.046875 -9.8125 
Q 42.046875 -14.109375 38.53125 -16.796875 
Q 33.796875 -20.453125 24.953125 -20.453125 
Q 18.65625 -20.453125 15.4375 -19.671875 
z
" id="Arial-BoldMT-231"/>
     <path d="M 5.90625 -3.421875 
L 21.578125 -5.328125 
Q 21.96875 -8.0625 23.390625 -9.078125 
Q 25.34375 -10.546875 29.546875 -10.546875 
Q 34.90625 -10.546875 37.59375 -8.9375 
Q 39.40625 -7.859375 40.328125 -5.46875 
Q 40.96875 -3.765625 40.96875 0.828125 
L 40.96875 8.40625 
Q 34.8125 0 25.4375 0 
Q 14.984375 0 8.890625 8.84375 
Q 4.109375 15.828125 4.109375 26.21875 
Q 4.109375 39.265625 10.375 46.140625 
Q 16.65625 53.03125 25.984375 53.03125 
Q 35.59375 53.03125 41.84375 44.578125 
L 41.84375 51.859375 
L 54.6875 51.859375 
L 54.6875 5.328125 
Q 54.6875 -3.859375 53.171875 -8.390625 
Q 51.65625 -12.9375 48.921875 -15.515625 
Q 46.1875 -18.109375 41.625 -19.578125 
Q 37.0625 -21.046875 30.078125 -21.046875 
Q 16.890625 -21.046875 11.375 -16.53125 
Q 5.859375 -12.015625 5.859375 -5.078125 
Q 5.859375 -4.390625 5.90625 -3.421875 
z
M 18.171875 27 
Q 18.171875 18.75 21.359375 14.90625 
Q 24.5625 11.078125 29.25 11.078125 
Q 34.28125 11.078125 37.75 15.015625 
Q 41.21875 18.953125 41.21875 26.65625 
Q 41.21875 34.71875 37.890625 38.625 
Q 34.578125 42.53125 29.5 42.53125 
Q 24.5625 42.53125 21.359375 38.6875 
Q 18.171875 34.859375 18.171875 27 
z
" id="Arial-BoldMT-103"/>
     <path d="M 20.84375 71.578125 
L 20.84375 45.265625 
Q 27.484375 53.03125 36.71875 53.03125 
Q 41.453125 53.03125 45.265625 51.265625 
Q 49.078125 49.515625 51 46.78125 
Q 52.9375 44.046875 53.640625 40.71875 
Q 54.34375 37.40625 54.34375 30.421875 
L 54.34375 0 
L 40.625 0 
L 40.625 27.390625 
Q 40.625 35.546875 39.84375 37.734375 
Q 39.0625 39.9375 37.078125 41.234375 
Q 35.109375 42.53125 32.125 42.53125 
Q 28.71875 42.53125 26.03125 40.859375 
Q 23.34375 39.203125 22.09375 35.859375 
Q 20.84375 32.515625 20.84375 25.984375 
L 20.84375 0 
L 7.125 0 
L 7.125 71.578125 
z
" id="Arial-BoldMT-104"/>
    </defs>
    <g transform="translate(435.841406 61.56)scale(0.3 -0.3)">
     <use xlink:href="#Arial-BoldMT-32"/>
     <use x="27.783203" xlink:href="#Arial-BoldMT-66"/>
     <use x="100" xlink:href="#Arial-BoldMT-117"/>
     <use x="161.083984" xlink:href="#Arial-BoldMT-32"/>
     <use x="188.867188" xlink:href="#Arial-BoldMT-56"/>
     <use x="244.482422" xlink:href="#Arial-BoldMT-32"/>
     <use x="272.265625" xlink:href="#Arial-BoldMT-116"/>
     <use x="305.566406" xlink:href="#Arial-BoldMT-252"/>
     <use x="366.650391" xlink:href="#Arial-BoldMT-114"/>
     <use x="405.566406" xlink:href="#Arial-BoldMT-32"/>
     <use x="433.349609" xlink:href="#Arial-BoldMT-107"/>
     <use x="488.964844" xlink:href="#Arial-BoldMT-117"/>
     <use x="550.048828" xlink:href="#Arial-BoldMT-114"/>
     <use x="588.964844" xlink:href="#Arial-BoldMT-117"/>
     <use x="650.048828" xlink:href="#Arial-BoldMT-108"/>
     <use x="677.832031" xlink:href="#Arial-BoldMT-117"/>
     <use x="738.916016" xlink:href="#Arial-BoldMT-351"/>
     <use x="794.53125" xlink:href="#Arial-BoldMT-32"/>
     <use x="822.314453" xlink:href="#Arial-BoldMT-105"/>
     <use x="850.097656" xlink:href="#Arial-BoldMT-231"/>
     <use x="905.712891" xlink:href="#Arial-BoldMT-105"/>
     <use x="933.496094" xlink:href="#Arial-BoldMT-110"/>
     <use x="994.580078" xlink:href="#Arial-BoldMT-100"/>
     <use x="1055.664062" xlink:href="#Arial-BoldMT-101"/>
     <use x="1111.279297" xlink:href="#Arial-BoldMT-32"/>
     <use x="1139.0625" xlink:href="#Arial-BoldMT-246"/>
     <use x="1200.146484" xlink:href="#Arial-BoldMT-122"/>
     <use x="1250.146484" xlink:href="#Arial-BoldMT-101"/>
     <use x="1305.761719" xlink:href="#Arial-BoldMT-108"/>
     <use x="1333.544922" xlink:href="#Arial-BoldMT-32"/>
     <use x="1361.328125" xlink:href="#Arial-BoldMT-105"/>
     <use x="1389.111328" xlink:href="#Arial-BoldMT-351"/>
     <use x="1444.726562" xlink:href="#Arial-BoldMT-108"/>
     <use x="1472.509766" xlink:href="#Arial-BoldMT-101"/>
     <use x="1528.125" xlink:href="#Arial-BoldMT-116"/>
     <use x="1561.425781" xlink:href="#Arial-BoldMT-109"/>
     <use x="1650.341797" xlink:href="#Arial-BoldMT-101"/>
     <use x="1705.957031" xlink:href="#Arial-BoldMT-32"/>
     <use x="1733.740234" xlink:href="#Arial-BoldMT-115"/>
     <use x="1789.355469" xlink:href="#Arial-BoldMT-97"/>
     <use x="1844.970703" xlink:href="#Arial-BoldMT-121"/>
     <use x="1900.585938" xlink:href="#Arial-BoldMT-305"/>
     <use x="1928.369141" xlink:href="#Arial-BoldMT-115"/>
     <use x="1983.984375" xlink:href="#Arial-BoldMT-305"/>
     <use x="2011.767578" xlink:href="#Arial-BoldMT-32"/>
     <use x="2039.550781" xlink:href="#Arial-BoldMT-100"/>
     <use x="2100.634766" xlink:href="#Arial-BoldMT-101"/>
     <use x="2156.25" xlink:href="#Arial-BoldMT-118"/>
     <use x="2211.865234" xlink:href="#Arial-BoldMT-108"/>
     <use x="2239.648438" xlink:href="#Arial-BoldMT-101"/>
     <use x="2295.263672" xlink:href="#Arial-BoldMT-116"/>
     <use x="2328.564453" xlink:href="#Arial-BoldMT-116"/>
     <use x="2361.865234" xlink:href="#Arial-BoldMT-101"/>
     <use x="2417.480469" xlink:href="#Arial-BoldMT-110"/>
     <use x="2478.564453" xlink:href="#Arial-BoldMT-32"/>
     <use x="2506.347656" xlink:href="#Arial-BoldMT-103"/>
     <use x="2567.431641" xlink:href="#Arial-BoldMT-101"/>
     <use x="2623.046875" xlink:href="#Arial-BoldMT-110"/>
     <use x="2684.130859" xlink:href="#Arial-BoldMT-101"/>
     <use x="2739.746094" xlink:href="#Arial-BoldMT-108"/>
     <use x="2767.529297" xlink:href="#Arial-BoldMT-100"/>
     <use x="2828.613281" xlink:href="#Arial-BoldMT-101"/>
     <use x="2884.228516" xlink:href="#Arial-BoldMT-32"/>
     <use x="2912.011719" xlink:href="#Arial-BoldMT-100"/>
     <use x="2973.095703" xlink:href="#Arial-BoldMT-97"/>
     <use x="3028.710938" xlink:href="#Arial-BoldMT-104"/>
     <use x="3089.794922" xlink:href="#Arial-BoldMT-97"/>
     <use x="3145.410156" xlink:href="#Arial-BoldMT-32"/>
     <use x="3173.193359" xlink:href="#Arial-BoldMT-102"/>
     <use x="3206.494141" xlink:href="#Arial-BoldMT-97"/>
     <use x="3262.109375" xlink:href="#Arial-BoldMT-122"/>
     <use x="3312.109375" xlink:href="#Arial-BoldMT-108"/>
     <use x="3339.892578" xlink:href="#Arial-BoldMT-97"/>
     <use x="3395.507812" xlink:href="#Arial-BoldMT-46"/>
    </g>
   </g>
   <g id="legend_1">
    <g id="patch_21">
     <path d="M 1613.660937 193.62875 
L 1807.53125 193.62875 
Q 1813.53125 193.62875 1813.53125 187.62875 
L 1813.53125 102.56 
Q 1813.53125 96.56 1807.53125 96.56 
L 1613.660937 96.56 
Q 1607.660937 96.56 1607.660937 102.56 
L 1607.660937 187.62875 
Q 1607.660937 193.62875 1613.660937 193.62875 
z
" style="fill:#ffffff;opacity:0.8;stroke:#cccccc;stroke-linejoin:miter;"/>
    </g>
    <g id="patch_22">
     <path d="M 1619.660937 131.355312 
L 1679.660937 131.355312 
L 1679.660937 110.355312 
L 1619.660937 110.355312 
z
" style="fill:#66c2a5;"/>
    </g>
    <g id="text_47">
     <!-- Özel -->
     <defs>
      <path d="M 39.40625 66.21875 
Q 28.65625 66.21875 22.328125 58.203125 
Q 16.015625 50.203125 16.015625 36.375 
Q 16.015625 22.609375 22.328125 14.59375 
Q 28.65625 6.59375 39.40625 6.59375 
Q 50.140625 6.59375 56.421875 14.59375 
Q 62.703125 22.609375 62.703125 36.375 
Q 62.703125 50.203125 56.421875 58.203125 
Q 50.140625 66.21875 39.40625 66.21875 
z
M 39.40625 74.21875 
Q 54.734375 74.21875 63.90625 63.9375 
Q 73.09375 53.65625 73.09375 36.375 
Q 73.09375 19.140625 63.90625 8.859375 
Q 54.734375 -1.421875 39.40625 -1.421875 
Q 24.03125 -1.421875 14.8125 8.828125 
Q 5.609375 19.09375 5.609375 36.375 
Q 5.609375 53.65625 14.8125 63.9375 
Q 24.03125 74.21875 39.40625 74.21875 
z
M 44 91.3125 
L 53.90625 91.3125 
L 53.90625 81.40625 
L 44 81.40625 
z
M 24.90625 91.3125 
L 34.8125 91.3125 
L 34.8125 81.40625 
L 24.90625 81.40625 
z
" id="DejaVuSans-214"/>
      <path d="M 5.515625 54.6875 
L 48.1875 54.6875 
L 48.1875 46.484375 
L 14.40625 7.171875 
L 48.1875 7.171875 
L 48.1875 0 
L 4.296875 0 
L 4.296875 8.203125 
L 38.09375 47.515625 
L 5.515625 47.515625 
z
" id="DejaVuSans-122"/>
      <path d="M 56.203125 29.59375 
L 56.203125 25.203125 
L 14.890625 25.203125 
Q 15.484375 15.921875 20.484375 11.0625 
Q 25.484375 6.203125 34.421875 6.203125 
Q 39.59375 6.203125 44.453125 7.46875 
Q 49.3125 8.734375 54.109375 11.28125 
L 54.109375 2.78125 
Q 49.265625 0.734375 44.1875 -0.34375 
Q 39.109375 -1.421875 33.890625 -1.421875 
Q 20.796875 -1.421875 13.15625 6.1875 
Q 5.515625 13.8125 5.515625 26.8125 
Q 5.515625 40.234375 12.765625 48.109375 
Q 20.015625 56 32.328125 56 
Q 43.359375 56 49.78125 48.890625 
Q 56.203125 41.796875 56.203125 29.59375 
z
M 47.21875 32.234375 
Q 47.125 39.59375 43.09375 43.984375 
Q 39.0625 48.390625 32.421875 48.390625 
Q 24.90625 48.390625 20.390625 44.140625 
Q 15.875 39.890625 15.1875 32.171875 
z
" id="DejaVuSans-101"/>
      <path d="M 9.421875 75.984375 
L 18.40625 75.984375 
L 18.40625 0 
L 9.421875 0 
z
" id="DejaVuSans-108"/>
     </defs>
     <g transform="translate(1703.660937 131.355312)scale(0.3 -0.3)">
      <use xlink:href="#DejaVuSans-214"/>
      <use x="78.710938" xlink:href="#DejaVuSans-122"/>
      <use x="131.201172" xlink:href="#DejaVuSans-101"/>
      <use x="192.724609" xlink:href="#DejaVuSans-108"/>
     </g>
    </g>
    <g id="patch_23">
     <path d="M 1619.660937 175.389687 
L 1679.660937 175.389687 
L 1679.660937 154.389687 
L 1619.660937 154.389687 
z
" style="fill:#e78ac3;"/>
    </g>
    <g id="text_48">
     <!-- Devlet -->
     <defs>
      <path d="M 19.671875 64.796875 
L 19.671875 8.109375 
L 31.59375 8.109375 
Q 46.6875 8.109375 53.6875 14.9375 
Q 60.6875 21.78125 60.6875 36.53125 
Q 60.6875 51.171875 53.6875 57.984375 
Q 46.6875 64.796875 31.59375 64.796875 
z
M 9.8125 72.90625 
L 30.078125 72.90625 
Q 51.265625 72.90625 61.171875 64.09375 
Q 71.09375 55.28125 71.09375 36.53125 
Q 71.09375 17.671875 61.125 8.828125 
Q 51.171875 0 30.078125 0 
L 9.8125 0 
z
" id="DejaVuSans-68"/>
      <path d="M 2.984375 54.6875 
L 12.5 54.6875 
L 29.59375 8.796875 
L 46.6875 54.6875 
L 56.203125 54.6875 
L 35.6875 0 
L 23.484375 0 
z
" id="DejaVuSans-118"/>
      <path d="M 18.3125 70.21875 
L 18.3125 54.6875 
L 36.8125 54.6875 
L 36.8125 47.703125 
L 18.3125 47.703125 
L 18.3125 18.015625 
Q 18.3125 11.328125 20.140625 9.421875 
Q 21.96875 7.515625 27.59375 7.515625 
L 36.8125 7.515625 
L 36.8125 0 
L 27.59375 0 
Q 17.1875 0 13.234375 3.875 
Q 9.28125 7.765625 9.28125 18.015625 
L 9.28125 47.703125 
L 2.6875 47.703125 
L 2.6875 54.6875 
L 9.28125 54.6875 
L 9.28125 70.21875 
z
" id="DejaVuSans-116"/>
     </defs>
     <g transform="translate(1703.660937 175.389687)scale(0.3 -0.3)">
      <use xlink:href="#DejaVuSans-68"/>
      <use x="77.001953" xlink:href="#DejaVuSans-101"/>
      <use x="138.525391" xlink:href="#DejaVuSans-118"/>
      <use x="197.705078" xlink:href="#DejaVuSans-108"/>
      <use x="225.488281" xlink:href="#DejaVuSans-101"/>
      <use x="287.011719" xlink:href="#DejaVuSans-116"/>
     </g>
    </g>
   </g>
  </g>
 </g>
 <defs>
  <clipPath id="p530cc42d5f">
   <rect height="697.975484" width="1758.475" x="70.05625" y="81.56"/>
  </clipPath>
 </defs>
</svg>
