<?xml version="1.0" encoding="utf-8" standalone="no"?>
<!DOCTYPE svg PUBLIC "-//W3C//DTD SVG 1.1//EN"
  "http://www.w3.org/Graphics/SVG/1.1/DTD/svg11.dtd">
<!-- Created with matplotlib (https://matplotlib.org/) -->
<svg height="1028.443281pt" version="1.1" viewBox="0 0 1789.7775 1028.443281" width="1789.7775pt" xmlns="http://www.w3.org/2000/svg" xmlns:xlink="http://www.w3.org/1999/xlink">
 <defs>
  <style type="text/css">
*{stroke-linecap:butt;stroke-linejoin:round;}
  </style>
 </defs>
 <g id="figure_1">
  <g id="patch_1">
   <path d="M 0 1028.443281 
L 1789.7775 1028.443281 
L 1789.7775 0 
L 0 0 
z
" style="fill:#ffffff;"/>
  </g>
  <g id="axes_1">
   <g id="patch_2">
    <path d="M 69.55 829.391427 
L 1782.5775 829.391427 
L 1782.5775 81.12125 
L 69.55 81.12125 
z
" style="fill:#ffffff;"/>
   </g>
   <g id="patch_3">
    <path clip-path="url(#p3145f4ef15)" d="M 147.414886 829.391427 
L 236.121719 829.391427 
L 236.121719 116.753163 
L 147.414886 116.753163 
z
" style="fill:#66c2a5;"/>
   </g>
   <g id="patch_4">
    <path clip-path="url(#p3145f4ef15)" d="M 344.541181 829.391427 
L 433.248014 829.391427 
L 433.248014 544.336121 
L 344.541181 544.336121 
z
" style="fill:#66c2a5;"/>
   </g>
   <g id="patch_5">
    <path clip-path="url(#p3145f4ef15)" d="M 541.667476 829.391427 
L 630.374308 829.391427 
L 630.374308 549.087043 
L 541.667476 549.087043 
z
" style="fill:#66c2a5;"/>
   </g>
   <g id="patch_6">
    <path clip-path="url(#p3145f4ef15)" d="M 738.79377 829.391427 
L 827.500603 829.391427 
L 827.500603 648.8564 
L 738.79377 648.8564 
z
" style="fill:#66c2a5;"/>
   </g>
   <g id="patch_7">
    <path clip-path="url(#p3145f4ef15)" d="M 935.920065 829.391427 
L 1024.626897 829.391427 
L 1024.626897 734.372992 
L 935.920065 734.372992 
z
" style="fill:#66c2a5;"/>
   </g>
   <g id="patch_8">
    <path clip-path="url(#p3145f4ef15)" d="M 1133.046359 829.391427 
L 1221.753192 829.391427 
L 1221.753192 796.134975 
L 1133.046359 796.134975 
z
" style="fill:#66c2a5;"/>
   </g>
   <g id="patch_9">
    <path clip-path="url(#p3145f4ef15)" d="M 1330.172654 829.391427 
L 1418.879486 829.391427 
L 1418.879486 813.555021 
L 1330.172654 813.555021 
z
" style="fill:#66c2a5;"/>
   </g>
   <g id="patch_10">
    <path clip-path="url(#p3145f4ef15)" d="M 1527.298949 829.391427 
L 1616.005781 829.391427 
L 1616.005781 827.807786 
L 1527.298949 827.807786 
z
" style="fill:#66c2a5;"/>
   </g>
   <g id="patch_11">
    <path clip-path="url(#p3145f4ef15)" d="M 236.121719 829.391427 
L 324.828551 829.391427 
L 324.828551 777.131288 
L 236.121719 777.131288 
z
" style="fill:#e78ac3;"/>
   </g>
   <g id="patch_12">
    <path clip-path="url(#p3145f4ef15)" d="M 433.248014 829.391427 
L 521.954846 829.391427 
L 521.954846 761.294882 
L 433.248014 761.294882 
z
" style="fill:#e78ac3;"/>
   </g>
   <g id="patch_13">
    <path clip-path="url(#p3145f4ef15)" d="M 630.374308 829.391427 
L 719.081141 829.391427 
L 719.081141 808.804099 
L 630.374308 808.804099 
z
" style="fill:#e78ac3;"/>
   </g>
   <g id="patch_14">
    <path clip-path="url(#p3145f4ef15)" d="M 827.500603 829.391427 
L 916.207435 829.391427 
L 916.207435 653.607322 
L 827.500603 653.607322 
z
" style="fill:#e78ac3;"/>
   </g>
   <g id="patch_15">
    <path clip-path="url(#p3145f4ef15)" d="M 1024.626897 829.391427 
L 1113.33373 829.391427 
L 1113.33373 786.633131 
L 1024.626897 786.633131 
z
" style="fill:#e78ac3;"/>
   </g>
   <g id="patch_16">
    <path clip-path="url(#p3145f4ef15)" d="M 1221.753192 829.391427 
L 1310.460024 829.391427 
L 1310.460024 821.473224 
L 1221.753192 821.473224 
z
" style="fill:#e78ac3;"/>
   </g>
   <g id="patch_17">
    <path clip-path="url(#p3145f4ef15)" d="M 1418.879486 829.391427 
L 1507.586319 829.391427 
L 1507.586319 826.224146 
L 1418.879486 826.224146 
z
" style="fill:#e78ac3;"/>
   </g>
   <g id="patch_18">
    <path clip-path="url(#p3145f4ef15)" d="M 1616.005781 829.391427 
L 1704.712614 829.391427 
L 1704.712614 766.045803 
L 1616.005781 766.045803 
z
" style="fill:#e78ac3;"/>
   </g>
   <g id="matplotlib.axis_1">
    <g id="xtick_1">
     <g id="line2d_1">
      <defs>
       <path d="M 0 0 
L 0 3.5 
" id="m0331480156" style="stroke:#000000;stroke-width:0.8;"/>
      </defs>
      <g>
       <use style="stroke:#000000;stroke-width:0.8;" x="236.121719" xlink:href="#m0331480156" y="829.391427"/>
      </g>
     </g>
     <g id="text_1">
      <!-- Dental Health Center -->
      <defs>
       <path d="M 7.234375 71.578125 
L 33.640625 71.578125 
Q 42.578125 71.578125 47.265625 70.21875 
Q 53.5625 68.359375 58.046875 63.625 
Q 62.546875 58.890625 64.890625 52.03125 
Q 67.234375 45.171875 67.234375 35.109375 
Q 67.234375 26.265625 65.046875 19.875 
Q 62.359375 12.0625 57.375 7.234375 
Q 53.609375 3.5625 47.21875 1.515625 
Q 42.4375 0 34.421875 0 
L 7.234375 0 
z
M 21.6875 59.46875 
L 21.6875 12.0625 
L 32.46875 12.0625 
Q 38.53125 12.0625 41.21875 12.75 
Q 44.734375 13.625 47.046875 15.71875 
Q 49.359375 17.828125 50.828125 22.625 
Q 52.296875 27.4375 52.296875 35.75 
Q 52.296875 44.046875 50.828125 48.484375 
Q 49.359375 52.9375 46.71875 55.421875 
Q 44.09375 57.90625 40.046875 58.796875 
Q 37.015625 59.46875 28.171875 59.46875 
z
" id="Arial-BoldMT-68"/>
       <path d="M 37.203125 16.5 
L 50.875 14.203125 
Q 48.25 6.6875 42.546875 2.75 
Q 36.859375 -1.171875 28.328125 -1.171875 
Q 14.796875 -1.171875 8.296875 7.671875 
Q 3.171875 14.75 3.171875 25.53125 
Q 3.171875 38.421875 9.90625 45.71875 
Q 16.65625 53.03125 26.953125 53.03125 
Q 38.53125 53.03125 45.21875 45.390625 
Q 51.90625 37.75 51.609375 21.96875 
L 17.234375 21.96875 
Q 17.390625 15.875 20.5625 12.46875 
Q 23.734375 9.078125 28.46875 9.078125 
Q 31.6875 9.078125 33.875 10.828125 
Q 36.078125 12.59375 37.203125 16.5 
z
M 37.984375 30.375 
Q 37.84375 36.328125 34.90625 39.421875 
Q 31.984375 42.53125 27.78125 42.53125 
Q 23.296875 42.53125 20.359375 39.265625 
Q 17.4375 35.984375 17.484375 30.375 
z
" id="Arial-BoldMT-101"/>
       <path d="M 54.34375 0 
L 40.625 0 
L 40.625 26.46875 
Q 40.625 34.859375 39.75 37.328125 
Q 38.875 39.796875 36.890625 41.15625 
Q 34.90625 42.53125 32.125 42.53125 
Q 28.5625 42.53125 25.734375 40.578125 
Q 22.90625 38.625 21.84375 35.390625 
Q 20.796875 32.171875 20.796875 23.484375 
L 20.796875 0 
L 7.078125 0 
L 7.078125 51.859375 
L 19.828125 51.859375 
L 19.828125 44.234375 
Q 26.609375 53.03125 36.921875 53.03125 
Q 41.453125 53.03125 45.203125 51.390625 
Q 48.96875 49.75 50.890625 47.203125 
Q 52.828125 44.671875 53.578125 41.453125 
Q 54.34375 38.234375 54.34375 32.234375 
z
" id="Arial-BoldMT-110"/>
       <path d="M 30.953125 51.859375 
L 30.953125 40.921875 
L 21.578125 40.921875 
L 21.578125 20.015625 
Q 21.578125 13.671875 21.84375 12.625 
Q 22.125 11.578125 23.078125 10.890625 
Q 24.03125 10.203125 25.390625 10.203125 
Q 27.296875 10.203125 30.90625 11.53125 
L 32.078125 0.875 
Q 27.296875 -1.171875 21.234375 -1.171875 
Q 17.53125 -1.171875 14.546875 0.0625 
Q 11.578125 1.3125 10.1875 3.296875 
Q 8.796875 5.28125 8.25 8.640625 
Q 7.8125 11.03125 7.8125 18.3125 
L 7.8125 40.921875 
L 1.515625 40.921875 
L 1.515625 51.859375 
L 7.8125 51.859375 
L 7.8125 62.15625 
L 21.578125 70.171875 
L 21.578125 51.859375 
z
" id="Arial-BoldMT-116"/>
       <path d="M 17.4375 36.03125 
L 4.984375 38.28125 
Q 7.078125 45.796875 12.203125 49.40625 
Q 17.328125 53.03125 27.4375 53.03125 
Q 36.625 53.03125 41.109375 50.859375 
Q 45.609375 48.6875 47.4375 45.34375 
Q 49.265625 42 49.265625 33.0625 
L 49.125 17.046875 
Q 49.125 10.203125 49.78125 6.953125 
Q 50.4375 3.71875 52.25 0 
L 38.671875 0 
Q 38.140625 1.375 37.359375 4.046875 
Q 37.015625 5.28125 36.859375 5.671875 
Q 33.34375 2.25 29.34375 0.53125 
Q 25.34375 -1.171875 20.796875 -1.171875 
Q 12.796875 -1.171875 8.171875 3.171875 
Q 3.5625 7.515625 3.5625 14.15625 
Q 3.5625 18.5625 5.65625 22 
Q 7.765625 25.4375 11.546875 27.265625 
Q 15.328125 29.109375 22.46875 30.46875 
Q 32.078125 32.28125 35.796875 33.84375 
L 35.796875 35.203125 
Q 35.796875 39.15625 33.84375 40.84375 
Q 31.890625 42.53125 26.46875 42.53125 
Q 22.796875 42.53125 20.75 41.09375 
Q 18.703125 39.65625 17.4375 36.03125 
z
M 35.796875 24.90625 
Q 33.15625 24.03125 27.4375 22.796875 
Q 21.734375 21.578125 19.96875 20.40625 
Q 17.28125 18.5 17.28125 15.578125 
Q 17.28125 12.703125 19.421875 10.59375 
Q 21.578125 8.5 24.90625 8.5 
Q 28.609375 8.5 31.984375 10.9375 
Q 34.46875 12.796875 35.25 15.484375 
Q 35.796875 17.234375 35.796875 22.171875 
z
" id="Arial-BoldMT-97"/>
       <path d="M 7.171875 0 
L 7.171875 71.578125 
L 20.90625 71.578125 
L 20.90625 0 
z
" id="Arial-BoldMT-108"/>
       <path id="Arial-BoldMT-32"/>
       <path d="M 7.328125 0 
L 7.328125 71.578125 
L 21.78125 71.578125 
L 21.78125 43.40625 
L 50.09375 43.40625 
L 50.09375 71.578125 
L 64.546875 71.578125 
L 64.546875 0 
L 50.09375 0 
L 50.09375 31.296875 
L 21.78125 31.296875 
L 21.78125 0 
z
" id="Arial-BoldMT-72"/>
       <path d="M 20.84375 71.578125 
L 20.84375 45.265625 
Q 27.484375 53.03125 36.71875 53.03125 
Q 41.453125 53.03125 45.265625 51.265625 
Q 49.078125 49.515625 51 46.78125 
Q 52.9375 44.046875 53.640625 40.71875 
Q 54.34375 37.40625 54.34375 30.421875 
L 54.34375 0 
L 40.625 0 
L 40.625 27.390625 
Q 40.625 35.546875 39.84375 37.734375 
Q 39.0625 39.9375 37.078125 41.234375 
Q 35.109375 42.53125 32.125 42.53125 
Q 28.71875 42.53125 26.03125 40.859375 
Q 23.34375 39.203125 22.09375 35.859375 
Q 20.84375 32.515625 20.84375 25.984375 
L 20.84375 0 
L 7.125 0 
L 7.125 71.578125 
z
" id="Arial-BoldMT-104"/>
       <path d="M 53.078125 26.3125 
L 67.09375 21.875 
Q 63.875 10.15625 56.375 4.46875 
Q 48.875 -1.21875 37.359375 -1.21875 
Q 23.09375 -1.21875 13.90625 8.515625 
Q 4.734375 18.265625 4.734375 35.15625 
Q 4.734375 53.03125 13.953125 62.90625 
Q 23.1875 72.796875 38.234375 72.796875 
Q 51.375 72.796875 59.578125 65.046875 
Q 64.453125 60.453125 66.890625 51.859375 
L 52.59375 48.4375 
Q 51.3125 54 47.28125 57.21875 
Q 43.265625 60.453125 37.5 60.453125 
Q 29.546875 60.453125 24.578125 54.734375 
Q 19.625 49.03125 19.625 36.234375 
Q 19.625 22.65625 24.5 16.890625 
Q 29.390625 11.140625 37.203125 11.140625 
Q 42.96875 11.140625 47.109375 14.796875 
Q 51.265625 18.453125 53.078125 26.3125 
z
" id="Arial-BoldMT-67"/>
       <path d="M 20.3125 0 
L 6.59375 0 
L 6.59375 51.859375 
L 19.34375 51.859375 
L 19.34375 44.484375 
Q 22.609375 49.703125 25.21875 51.359375 
Q 27.828125 53.03125 31.15625 53.03125 
Q 35.84375 53.03125 40.1875 50.4375 
L 35.9375 38.484375 
Q 32.46875 40.71875 29.5 40.71875 
Q 26.609375 40.71875 24.609375 39.125 
Q 22.609375 37.546875 21.453125 33.390625 
Q 20.3125 29.25 20.3125 16.015625 
z
" id="Arial-BoldMT-114"/>
      </defs>
      <g transform="translate(178.516261 946.312002)rotate(-40)scale(0.16 -0.16)">
       <use xlink:href="#Arial-BoldMT-68"/>
       <use x="72.216797" xlink:href="#Arial-BoldMT-101"/>
       <use x="127.832031" xlink:href="#Arial-BoldMT-110"/>
       <use x="188.916016" xlink:href="#Arial-BoldMT-116"/>
       <use x="222.216797" xlink:href="#Arial-BoldMT-97"/>
       <use x="277.832031" xlink:href="#Arial-BoldMT-108"/>
       <use x="305.615234" xlink:href="#Arial-BoldMT-32"/>
       <use x="333.398438" xlink:href="#Arial-BoldMT-72"/>
       <use x="405.615234" xlink:href="#Arial-BoldMT-101"/>
       <use x="461.230469" xlink:href="#Arial-BoldMT-97"/>
       <use x="516.845703" xlink:href="#Arial-BoldMT-108"/>
       <use x="544.628906" xlink:href="#Arial-BoldMT-116"/>
       <use x="577.929688" xlink:href="#Arial-BoldMT-104"/>
       <use x="639.013672" xlink:href="#Arial-BoldMT-32"/>
       <use x="666.796875" xlink:href="#Arial-BoldMT-67"/>
       <use x="739.013672" xlink:href="#Arial-BoldMT-101"/>
       <use x="794.628906" xlink:href="#Arial-BoldMT-110"/>
       <use x="855.712891" xlink:href="#Arial-BoldMT-116"/>
       <use x="889.013672" xlink:href="#Arial-BoldMT-101"/>
       <use x="944.628906" xlink:href="#Arial-BoldMT-114"/>
      </g>
     </g>
    </g>
    <g id="xtick_2">
     <g id="line2d_2">
      <g>
       <use style="stroke:#000000;stroke-width:0.8;" x="433.248014" xlink:href="#m0331480156" y="829.391427"/>
      </g>
     </g>
     <g id="text_2">
      <!-- Hospital -->
      <defs>
       <path d="M 4 26.65625 
Q 4 33.5 7.375 39.890625 
Q 10.75 46.296875 16.921875 49.65625 
Q 23.09375 53.03125 30.71875 53.03125 
Q 42.484375 53.03125 50 45.390625 
Q 57.515625 37.75 57.515625 26.078125 
Q 57.515625 14.3125 49.921875 6.5625 
Q 42.328125 -1.171875 30.8125 -1.171875 
Q 23.6875 -1.171875 17.21875 2.046875 
Q 10.75 5.28125 7.375 11.5 
Q 4 17.71875 4 26.65625 
z
M 18.0625 25.921875 
Q 18.0625 18.21875 21.71875 14.109375 
Q 25.390625 10.015625 30.765625 10.015625 
Q 36.140625 10.015625 39.765625 14.109375 
Q 43.40625 18.21875 43.40625 26.03125 
Q 43.40625 33.640625 39.765625 37.734375 
Q 36.140625 41.84375 30.765625 41.84375 
Q 25.390625 41.84375 21.71875 37.734375 
Q 18.0625 33.640625 18.0625 25.921875 
z
" id="Arial-BoldMT-111"/>
       <path d="M 2.34375 14.796875 
L 16.109375 16.890625 
Q 17 12.890625 19.671875 10.8125 
Q 22.359375 8.734375 27.203125 8.734375 
Q 32.515625 8.734375 35.203125 10.6875 
Q 37.015625 12.0625 37.015625 14.359375 
Q 37.015625 15.921875 36.03125 16.9375 
Q 35.015625 17.921875 31.453125 18.75 
Q 14.84375 22.40625 10.40625 25.4375 
Q 4.25 29.640625 4.25 37.109375 
Q 4.25 43.84375 9.5625 48.4375 
Q 14.890625 53.03125 26.078125 53.03125 
Q 36.71875 53.03125 41.890625 49.5625 
Q 47.078125 46.09375 49.03125 39.3125 
L 36.078125 36.921875 
Q 35.25 39.9375 32.921875 41.546875 
Q 30.609375 43.171875 26.3125 43.171875 
Q 20.90625 43.171875 18.5625 41.65625 
Q 17 40.578125 17 38.875 
Q 17 37.40625 18.359375 36.375 
Q 20.21875 35.015625 31.171875 32.515625 
Q 42.140625 30.03125 46.484375 26.421875 
Q 50.78125 22.75 50.78125 16.21875 
Q 50.78125 9.078125 44.828125 3.953125 
Q 38.875 -1.171875 27.203125 -1.171875 
Q 16.609375 -1.171875 10.421875 3.125 
Q 4.25 7.421875 2.34375 14.796875 
z
" id="Arial-BoldMT-115"/>
       <path d="M 6.78125 51.859375 
L 19.578125 51.859375 
L 19.578125 44.234375 
Q 22.078125 48.140625 26.3125 50.578125 
Q 30.5625 53.03125 35.75 53.03125 
Q 44.78125 53.03125 51.078125 45.953125 
Q 57.375 38.875 57.375 26.21875 
Q 57.375 13.234375 51.015625 6.03125 
Q 44.671875 -1.171875 35.640625 -1.171875 
Q 31.34375 -1.171875 27.84375 0.53125 
Q 24.359375 2.25 20.515625 6.390625 
L 20.515625 -19.734375 
L 6.78125 -19.734375 
z
M 20.359375 26.8125 
Q 20.359375 18.0625 23.828125 13.890625 
Q 27.296875 9.71875 32.28125 9.71875 
Q 37.0625 9.71875 40.234375 13.546875 
Q 43.40625 17.390625 43.40625 26.125 
Q 43.40625 34.28125 40.125 38.234375 
Q 36.859375 42.1875 32.03125 42.1875 
Q 27 42.1875 23.671875 38.296875 
Q 20.359375 34.421875 20.359375 26.8125 
z
" id="Arial-BoldMT-112"/>
       <path d="M 7.171875 58.890625 
L 7.171875 71.578125 
L 20.90625 71.578125 
L 20.90625 58.890625 
z
M 7.171875 0 
L 7.171875 51.859375 
L 20.90625 51.859375 
L 20.90625 0 
z
" id="Arial-BoldMT-105"/>
      </defs>
      <g transform="translate(411.740485 885.732484)rotate(-40)scale(0.16 -0.16)">
       <use xlink:href="#Arial-BoldMT-72"/>
       <use x="72.216797" xlink:href="#Arial-BoldMT-111"/>
       <use x="133.300781" xlink:href="#Arial-BoldMT-115"/>
       <use x="188.916016" xlink:href="#Arial-BoldMT-112"/>
       <use x="250" xlink:href="#Arial-BoldMT-105"/>
       <use x="277.783203" xlink:href="#Arial-BoldMT-116"/>
       <use x="311.083984" xlink:href="#Arial-BoldMT-97"/>
       <use x="366.699219" xlink:href="#Arial-BoldMT-108"/>
      </g>
     </g>
    </g>
    <g id="xtick_3">
     <g id="line2d_3">
      <g>
       <use style="stroke:#000000;stroke-width:0.8;" x="630.374308" xlink:href="#m0331480156" y="829.391427"/>
      </g>
     </g>
     <g id="text_3">
      <!-- Medical Center -->
      <defs>
       <path d="M 7.078125 0 
L 7.078125 71.578125 
L 28.71875 71.578125 
L 41.703125 22.75 
L 54.546875 71.578125 
L 76.21875 71.578125 
L 76.21875 0 
L 62.796875 0 
L 62.796875 56.34375 
L 48.578125 0 
L 34.671875 0 
L 20.515625 56.34375 
L 20.515625 0 
z
" id="Arial-BoldMT-77"/>
       <path d="M 54.734375 0 
L 42 0 
L 42 7.625 
Q 38.8125 3.171875 34.484375 1 
Q 30.171875 -1.171875 25.78125 -1.171875 
Q 16.84375 -1.171875 10.46875 6.03125 
Q 4.109375 13.234375 4.109375 26.125 
Q 4.109375 39.3125 10.296875 46.171875 
Q 16.5 53.03125 25.984375 53.03125 
Q 34.671875 53.03125 41.015625 45.796875 
L 41.015625 71.578125 
L 54.734375 71.578125 
z
M 18.109375 27.046875 
Q 18.109375 18.75 20.40625 15.046875 
Q 23.734375 9.671875 29.6875 9.671875 
Q 34.421875 9.671875 37.734375 13.6875 
Q 41.0625 17.71875 41.0625 25.734375 
Q 41.0625 34.671875 37.84375 38.59375 
Q 34.625 42.53125 29.59375 42.53125 
Q 24.703125 42.53125 21.40625 38.640625 
Q 18.109375 34.765625 18.109375 27.046875 
z
" id="Arial-BoldMT-100"/>
       <path d="M 52.390625 36.53125 
L 38.875 34.078125 
Q 38.1875 38.140625 35.765625 40.1875 
Q 33.34375 42.234375 29.5 42.234375 
Q 24.359375 42.234375 21.3125 38.6875 
Q 18.265625 35.15625 18.265625 26.859375 
Q 18.265625 17.625 21.359375 13.8125 
Q 24.46875 10.015625 29.6875 10.015625 
Q 33.59375 10.015625 36.078125 12.234375 
Q 38.578125 14.453125 39.59375 19.875 
L 53.078125 17.578125 
Q 50.984375 8.296875 45.015625 3.5625 
Q 39.0625 -1.171875 29.046875 -1.171875 
Q 17.671875 -1.171875 10.90625 6 
Q 4.15625 13.1875 4.15625 25.875 
Q 4.15625 38.71875 10.9375 45.875 
Q 17.71875 53.03125 29.296875 53.03125 
Q 38.765625 53.03125 44.359375 48.953125 
Q 49.953125 44.875 52.390625 36.53125 
z
" id="Arial-BoldMT-99"/>
      </defs>
      <g transform="translate(589.450426 918.316995)rotate(-40)scale(0.16 -0.16)">
       <use xlink:href="#Arial-BoldMT-77"/>
       <use x="83.300781" xlink:href="#Arial-BoldMT-101"/>
       <use x="138.916016" xlink:href="#Arial-BoldMT-100"/>
       <use x="200" xlink:href="#Arial-BoldMT-105"/>
       <use x="227.783203" xlink:href="#Arial-BoldMT-99"/>
       <use x="283.398438" xlink:href="#Arial-BoldMT-97"/>
       <use x="339.013672" xlink:href="#Arial-BoldMT-108"/>
       <use x="366.796875" xlink:href="#Arial-BoldMT-32"/>
       <use x="394.580078" xlink:href="#Arial-BoldMT-67"/>
       <use x="466.796875" xlink:href="#Arial-BoldMT-101"/>
       <use x="522.412109" xlink:href="#Arial-BoldMT-110"/>
       <use x="583.496094" xlink:href="#Arial-BoldMT-116"/>
       <use x="616.796875" xlink:href="#Arial-BoldMT-101"/>
       <use x="672.412109" xlink:href="#Arial-BoldMT-114"/>
      </g>
     </g>
    </g>
    <g id="xtick_4">
     <g id="line2d_4">
      <g>
       <use style="stroke:#000000;stroke-width:0.8;" x="827.500603" xlink:href="#m0331480156" y="829.391427"/>
      </g>
     </g>
     <g id="text_4">
      <!-- Polyclinic -->
      <defs>
       <path d="M 7.28125 0 
L 7.28125 71.578125 
L 30.46875 71.578125 
Q 43.65625 71.578125 47.65625 70.515625 
Q 53.8125 68.890625 57.953125 63.5 
Q 62.109375 58.109375 62.109375 49.5625 
Q 62.109375 42.96875 59.71875 38.46875 
Q 57.328125 33.984375 53.640625 31.421875 
Q 49.953125 28.859375 46.140625 28.03125 
Q 40.96875 27 31.15625 27 
L 21.734375 27 
L 21.734375 0 
z
M 21.734375 59.46875 
L 21.734375 39.15625 
L 29.640625 39.15625 
Q 38.1875 39.15625 41.0625 40.28125 
Q 43.953125 41.40625 45.578125 43.796875 
Q 47.21875 46.1875 47.21875 49.359375 
Q 47.21875 53.265625 44.921875 55.796875 
Q 42.625 58.34375 39.109375 58.984375 
Q 36.53125 59.46875 28.71875 59.46875 
z
" id="Arial-BoldMT-80"/>
       <path d="M 0.6875 51.859375 
L 15.28125 51.859375 
L 27.6875 15.046875 
L 39.796875 51.859375 
L 54 51.859375 
L 35.6875 1.953125 
L 32.421875 -7.078125 
Q 30.609375 -11.625 28.96875 -14.015625 
Q 27.34375 -16.40625 25.21875 -17.890625 
Q 23.09375 -19.390625 19.984375 -20.21875 
Q 16.890625 -21.046875 12.984375 -21.046875 
Q 9.03125 -21.046875 5.21875 -20.21875 
L 4 -9.46875 
Q 7.234375 -10.109375 9.8125 -10.109375 
Q 14.59375 -10.109375 16.890625 -7.296875 
Q 19.1875 -4.5 20.40625 -0.140625 
z
" id="Arial-BoldMT-121"/>
      </defs>
      <g transform="translate(801.491142 893.174357)rotate(-40)scale(0.16 -0.16)">
       <use xlink:href="#Arial-BoldMT-80"/>
       <use x="66.699219" xlink:href="#Arial-BoldMT-111"/>
       <use x="127.783203" xlink:href="#Arial-BoldMT-108"/>
       <use x="155.566406" xlink:href="#Arial-BoldMT-121"/>
       <use x="211.181641" xlink:href="#Arial-BoldMT-99"/>
       <use x="266.796875" xlink:href="#Arial-BoldMT-108"/>
       <use x="294.580078" xlink:href="#Arial-BoldMT-105"/>
       <use x="322.363281" xlink:href="#Arial-BoldMT-110"/>
       <use x="383.447266" xlink:href="#Arial-BoldMT-105"/>
       <use x="411.230469" xlink:href="#Arial-BoldMT-99"/>
      </g>
     </g>
    </g>
    <g id="xtick_5">
     <g id="line2d_5">
      <g>
       <use style="stroke:#000000;stroke-width:0.8;" x="1024.626897" xlink:href="#m0331480156" y="829.391427"/>
      </g>
     </g>
     <g id="text_5">
      <!-- Dialysis Center -->
      <g transform="translate(983.009712 919.621784)rotate(-40)scale(0.16 -0.16)">
       <use xlink:href="#Arial-BoldMT-68"/>
       <use x="72.216797" xlink:href="#Arial-BoldMT-105"/>
       <use x="100" xlink:href="#Arial-BoldMT-97"/>
       <use x="155.615234" xlink:href="#Arial-BoldMT-108"/>
       <use x="183.398438" xlink:href="#Arial-BoldMT-121"/>
       <use x="239.013672" xlink:href="#Arial-BoldMT-115"/>
       <use x="294.628906" xlink:href="#Arial-BoldMT-105"/>
       <use x="322.412109" xlink:href="#Arial-BoldMT-115"/>
       <use x="378.027344" xlink:href="#Arial-BoldMT-32"/>
       <use x="405.810547" xlink:href="#Arial-BoldMT-67"/>
       <use x="478.027344" xlink:href="#Arial-BoldMT-101"/>
       <use x="533.642578" xlink:href="#Arial-BoldMT-110"/>
       <use x="594.726562" xlink:href="#Arial-BoldMT-116"/>
       <use x="628.027344" xlink:href="#Arial-BoldMT-101"/>
       <use x="683.642578" xlink:href="#Arial-BoldMT-114"/>
      </g>
     </g>
    </g>
    <g id="xtick_6">
     <g id="line2d_6">
      <g>
       <use style="stroke:#000000;stroke-width:0.8;" x="1221.753192" xlink:href="#m0331480156" y="829.391427"/>
      </g>
     </g>
     <g id="text_6">
      <!-- Physical Therapy Center -->
      <defs>
       <path d="M 23.390625 0 
L 23.390625 59.46875 
L 2.15625 59.46875 
L 2.15625 71.578125 
L 59.03125 71.578125 
L 59.03125 59.46875 
L 37.84375 59.46875 
L 37.84375 0 
z
" id="Arial-BoldMT-84"/>
      </defs>
      <g transform="translate(1152.892593 965.34166)rotate(-40)scale(0.16 -0.16)">
       <use xlink:href="#Arial-BoldMT-80"/>
       <use x="66.699219" xlink:href="#Arial-BoldMT-104"/>
       <use x="127.783203" xlink:href="#Arial-BoldMT-121"/>
       <use x="183.398438" xlink:href="#Arial-BoldMT-115"/>
       <use x="239.013672" xlink:href="#Arial-BoldMT-105"/>
       <use x="266.796875" xlink:href="#Arial-BoldMT-99"/>
       <use x="322.412109" xlink:href="#Arial-BoldMT-97"/>
       <use x="378.027344" xlink:href="#Arial-BoldMT-108"/>
       <use x="405.810547" xlink:href="#Arial-BoldMT-32"/>
       <use x="433.59375" xlink:href="#Arial-BoldMT-84"/>
       <use x="494.677734" xlink:href="#Arial-BoldMT-104"/>
       <use x="555.761719" xlink:href="#Arial-BoldMT-101"/>
       <use x="611.376953" xlink:href="#Arial-BoldMT-114"/>
       <use x="650.292969" xlink:href="#Arial-BoldMT-97"/>
       <use x="705.908203" xlink:href="#Arial-BoldMT-112"/>
       <use x="766.992188" xlink:href="#Arial-BoldMT-121"/>
       <use x="822.607422" xlink:href="#Arial-BoldMT-32"/>
       <use x="850.390625" xlink:href="#Arial-BoldMT-67"/>
       <use x="922.607422" xlink:href="#Arial-BoldMT-101"/>
       <use x="978.222656" xlink:href="#Arial-BoldMT-110"/>
       <use x="1039.306641" xlink:href="#Arial-BoldMT-116"/>
       <use x="1072.607422" xlink:href="#Arial-BoldMT-101"/>
       <use x="1128.222656" xlink:href="#Arial-BoldMT-114"/>
      </g>
     </g>
    </g>
    <g id="xtick_7">
     <g id="line2d_7">
      <g>
       <use style="stroke:#000000;stroke-width:0.8;" x="1418.879486" xlink:href="#m0331480156" y="829.391427"/>
      </g>
     </g>
     <g id="text_7">
      <!-- Gynecology and Obstetrics Clinic -->
      <defs>
       <path d="M 40.578125 26.3125 
L 40.578125 38.375 
L 71.734375 38.375 
L 71.734375 9.859375 
Q 67.1875 5.46875 58.5625 2.125 
Q 49.953125 -1.21875 41.109375 -1.21875 
Q 29.890625 -1.21875 21.53125 3.484375 
Q 13.1875 8.203125 8.984375 16.96875 
Q 4.78125 25.734375 4.78125 36.03125 
Q 4.78125 47.21875 9.46875 55.90625 
Q 14.15625 64.59375 23.1875 69.234375 
Q 30.078125 72.796875 40.328125 72.796875 
Q 53.65625 72.796875 61.15625 67.203125 
Q 68.65625 61.625 70.796875 51.765625 
L 56.453125 49.078125 
Q 54.9375 54.34375 50.75 57.390625 
Q 46.578125 60.453125 40.328125 60.453125 
Q 30.859375 60.453125 25.265625 54.4375 
Q 19.671875 48.4375 19.671875 36.625 
Q 19.671875 23.875 25.328125 17.5 
Q 31 11.140625 40.1875 11.140625 
Q 44.734375 11.140625 49.296875 12.921875 
Q 53.859375 14.703125 57.125 17.234375 
L 57.125 26.3125 
z
" id="Arial-BoldMT-71"/>
       <path d="M 5.90625 -3.421875 
L 21.578125 -5.328125 
Q 21.96875 -8.0625 23.390625 -9.078125 
Q 25.34375 -10.546875 29.546875 -10.546875 
Q 34.90625 -10.546875 37.59375 -8.9375 
Q 39.40625 -7.859375 40.328125 -5.46875 
Q 40.96875 -3.765625 40.96875 0.828125 
L 40.96875 8.40625 
Q 34.8125 0 25.4375 0 
Q 14.984375 0 8.890625 8.84375 
Q 4.109375 15.828125 4.109375 26.21875 
Q 4.109375 39.265625 10.375 46.140625 
Q 16.65625 53.03125 25.984375 53.03125 
Q 35.59375 53.03125 41.84375 44.578125 
L 41.84375 51.859375 
L 54.6875 51.859375 
L 54.6875 5.328125 
Q 54.6875 -3.859375 53.171875 -8.390625 
Q 51.65625 -12.9375 48.921875 -15.515625 
Q 46.1875 -18.109375 41.625 -19.578125 
Q 37.0625 -21.046875 30.078125 -21.046875 
Q 16.890625 -21.046875 11.375 -16.53125 
Q 5.859375 -12.015625 5.859375 -5.078125 
Q 5.859375 -4.390625 5.90625 -3.421875 
z
M 18.171875 27 
Q 18.171875 18.75 21.359375 14.90625 
Q 24.5625 11.078125 29.25 11.078125 
Q 34.28125 11.078125 37.75 15.015625 
Q 41.21875 18.953125 41.21875 26.65625 
Q 41.21875 34.71875 37.890625 38.625 
Q 34.578125 42.53125 29.5 42.53125 
Q 24.5625 42.53125 21.359375 38.6875 
Q 18.171875 34.859375 18.171875 27 
z
" id="Arial-BoldMT-103"/>
       <path d="M 4.34375 35.359375 
Q 4.34375 46.296875 7.625 53.71875 
Q 10.0625 59.1875 14.28125 63.53125 
Q 18.5 67.875 23.53125 69.96875 
Q 30.21875 72.796875 38.96875 72.796875 
Q 54.78125 72.796875 64.28125 62.984375 
Q 73.78125 53.171875 73.78125 35.6875 
Q 73.78125 18.359375 64.359375 8.5625 
Q 54.9375 -1.21875 39.15625 -1.21875 
Q 23.1875 -1.21875 13.765625 8.515625 
Q 4.34375 18.265625 4.34375 35.359375 
z
M 19.234375 35.84375 
Q 19.234375 23.6875 24.84375 17.40625 
Q 30.46875 11.140625 39.109375 11.140625 
Q 47.75 11.140625 53.296875 17.359375 
Q 58.84375 23.578125 58.84375 36.03125 
Q 58.84375 48.34375 53.4375 54.390625 
Q 48.046875 60.453125 39.109375 60.453125 
Q 30.171875 60.453125 24.703125 54.3125 
Q 19.234375 48.1875 19.234375 35.84375 
z
" id="Arial-BoldMT-79"/>
       <path d="M 6.59375 0 
L 6.59375 71.578125 
L 20.3125 71.578125 
L 20.3125 45.796875 
Q 26.65625 53.03125 35.359375 53.03125 
Q 44.828125 53.03125 51.03125 46.171875 
Q 57.234375 39.3125 57.234375 26.46875 
Q 57.234375 13.1875 50.90625 6 
Q 44.578125 -1.171875 35.546875 -1.171875 
Q 31.109375 -1.171875 26.78125 1.046875 
Q 22.46875 3.265625 19.34375 7.625 
L 19.34375 0 
z
M 20.21875 27.046875 
Q 20.21875 19 22.75 15.140625 
Q 26.3125 9.671875 32.234375 9.671875 
Q 36.765625 9.671875 39.96875 13.546875 
Q 43.171875 17.4375 43.171875 25.78125 
Q 43.171875 34.671875 39.9375 38.59375 
Q 36.71875 42.53125 31.6875 42.53125 
Q 26.765625 42.53125 23.484375 38.6875 
Q 20.21875 34.859375 20.21875 27.046875 
z
" id="Arial-BoldMT-98"/>
      </defs>
      <g transform="translate(1323.47066 1009.894876)rotate(-40)scale(0.16 -0.16)">
       <use xlink:href="#Arial-BoldMT-71"/>
       <use x="77.783203" xlink:href="#Arial-BoldMT-121"/>
       <use x="133.398438" xlink:href="#Arial-BoldMT-110"/>
       <use x="194.482422" xlink:href="#Arial-BoldMT-101"/>
       <use x="250.097656" xlink:href="#Arial-BoldMT-99"/>
       <use x="305.712891" xlink:href="#Arial-BoldMT-111"/>
       <use x="366.796875" xlink:href="#Arial-BoldMT-108"/>
       <use x="394.580078" xlink:href="#Arial-BoldMT-111"/>
       <use x="455.664062" xlink:href="#Arial-BoldMT-103"/>
       <use x="516.748047" xlink:href="#Arial-BoldMT-121"/>
       <use x="572.363281" xlink:href="#Arial-BoldMT-32"/>
       <use x="600.146484" xlink:href="#Arial-BoldMT-97"/>
       <use x="655.761719" xlink:href="#Arial-BoldMT-110"/>
       <use x="716.845703" xlink:href="#Arial-BoldMT-100"/>
       <use x="777.929688" xlink:href="#Arial-BoldMT-32"/>
       <use x="805.712891" xlink:href="#Arial-BoldMT-79"/>
       <use x="883.496094" xlink:href="#Arial-BoldMT-98"/>
       <use x="944.580078" xlink:href="#Arial-BoldMT-115"/>
       <use x="1000.195312" xlink:href="#Arial-BoldMT-116"/>
       <use x="1033.496094" xlink:href="#Arial-BoldMT-101"/>
       <use x="1089.111328" xlink:href="#Arial-BoldMT-116"/>
       <use x="1122.412109" xlink:href="#Arial-BoldMT-114"/>
       <use x="1161.328125" xlink:href="#Arial-BoldMT-105"/>
       <use x="1189.111328" xlink:href="#Arial-BoldMT-99"/>
       <use x="1244.726562" xlink:href="#Arial-BoldMT-115"/>
       <use x="1300.341797" xlink:href="#Arial-BoldMT-32"/>
       <use x="1328.125" xlink:href="#Arial-BoldMT-67"/>
       <use x="1400.341797" xlink:href="#Arial-BoldMT-108"/>
       <use x="1428.125" xlink:href="#Arial-BoldMT-105"/>
       <use x="1455.908203" xlink:href="#Arial-BoldMT-110"/>
       <use x="1516.992188" xlink:href="#Arial-BoldMT-105"/>
       <use x="1544.775391" xlink:href="#Arial-BoldMT-99"/>
      </g>
     </g>
    </g>
    <g id="xtick_8">
     <g id="line2d_8">
      <g>
       <use style="stroke:#000000;stroke-width:0.8;" x="1616.005781" xlink:href="#m0331480156" y="829.391427"/>
      </g>
     </g>
     <g id="text_8">
      <!-- Planned Parenthood Center -->
      <g transform="translate(1537.975663 980.588651)rotate(-40)scale(0.16 -0.16)">
       <use xlink:href="#Arial-BoldMT-80"/>
       <use x="66.699219" xlink:href="#Arial-BoldMT-108"/>
       <use x="94.482422" xlink:href="#Arial-BoldMT-97"/>
       <use x="150.097656" xlink:href="#Arial-BoldMT-110"/>
       <use x="211.181641" xlink:href="#Arial-BoldMT-110"/>
       <use x="272.265625" xlink:href="#Arial-BoldMT-101"/>
       <use x="327.880859" xlink:href="#Arial-BoldMT-100"/>
       <use x="388.964844" xlink:href="#Arial-BoldMT-32"/>
       <use x="416.748047" xlink:href="#Arial-BoldMT-80"/>
       <use x="483.447266" xlink:href="#Arial-BoldMT-97"/>
       <use x="539.0625" xlink:href="#Arial-BoldMT-114"/>
       <use x="577.978516" xlink:href="#Arial-BoldMT-101"/>
       <use x="633.59375" xlink:href="#Arial-BoldMT-110"/>
       <use x="694.677734" xlink:href="#Arial-BoldMT-116"/>
       <use x="727.978516" xlink:href="#Arial-BoldMT-104"/>
       <use x="789.0625" xlink:href="#Arial-BoldMT-111"/>
       <use x="850.146484" xlink:href="#Arial-BoldMT-111"/>
       <use x="911.230469" xlink:href="#Arial-BoldMT-100"/>
       <use x="972.314453" xlink:href="#Arial-BoldMT-32"/>
       <use x="1000.097656" xlink:href="#Arial-BoldMT-67"/>
       <use x="1072.314453" xlink:href="#Arial-BoldMT-101"/>
       <use x="1127.929688" xlink:href="#Arial-BoldMT-110"/>
       <use x="1189.013672" xlink:href="#Arial-BoldMT-116"/>
       <use x="1222.314453" xlink:href="#Arial-BoldMT-101"/>
       <use x="1277.929688" xlink:href="#Arial-BoldMT-114"/>
      </g>
     </g>
    </g>
    <g id="text_9">
     <!-- Types of healthcare institutions -->
     <defs>
      <path d="M 1.171875 51.859375 
L 8.796875 51.859375 
L 8.796875 55.765625 
Q 8.796875 62.3125 10.1875 65.53125 
Q 11.578125 68.75 15.3125 70.765625 
Q 19.046875 72.796875 24.75 72.796875 
Q 30.609375 72.796875 36.234375 71.046875 
L 34.375 61.46875 
Q 31.109375 62.25 28.078125 62.25 
Q 25.09375 62.25 23.796875 60.859375 
Q 22.515625 59.46875 22.515625 55.515625 
L 22.515625 51.859375 
L 32.765625 51.859375 
L 32.765625 41.0625 
L 22.515625 41.0625 
L 22.515625 0 
L 8.796875 0 
L 8.796875 41.0625 
L 1.171875 41.0625 
z
" id="Arial-BoldMT-102"/>
      <path d="M 41.3125 0 
L 41.3125 7.765625 
Q 38.484375 3.609375 33.859375 1.21875 
Q 29.25 -1.171875 24.125 -1.171875 
Q 18.890625 -1.171875 14.734375 1.125 
Q 10.59375 3.421875 8.734375 7.5625 
Q 6.890625 11.71875 6.890625 19.046875 
L 6.890625 51.859375 
L 20.609375 51.859375 
L 20.609375 28.03125 
Q 20.609375 17.09375 21.359375 14.625 
Q 22.125 12.15625 24.125 10.71875 
Q 26.125 9.28125 29.203125 9.28125 
Q 32.71875 9.28125 35.5 11.203125 
Q 38.28125 13.140625 39.296875 15.984375 
Q 40.328125 18.84375 40.328125 29.984375 
L 40.328125 51.859375 
L 54.046875 51.859375 
L 54.046875 0 
z
" id="Arial-BoldMT-117"/>
     </defs>
     <g transform="translate(775.5075 1017.033906)scale(0.2 -0.2)">
      <use xlink:href="#Arial-BoldMT-84"/>
      <use x="60.974609" xlink:href="#Arial-BoldMT-121"/>
      <use x="116.589844" xlink:href="#Arial-BoldMT-112"/>
      <use x="177.673828" xlink:href="#Arial-BoldMT-101"/>
      <use x="233.289062" xlink:href="#Arial-BoldMT-115"/>
      <use x="288.904297" xlink:href="#Arial-BoldMT-32"/>
      <use x="316.6875" xlink:href="#Arial-BoldMT-111"/>
      <use x="377.771484" xlink:href="#Arial-BoldMT-102"/>
      <use x="411.072266" xlink:href="#Arial-BoldMT-32"/>
      <use x="438.855469" xlink:href="#Arial-BoldMT-104"/>
      <use x="499.939453" xlink:href="#Arial-BoldMT-101"/>
      <use x="555.554688" xlink:href="#Arial-BoldMT-97"/>
      <use x="611.169922" xlink:href="#Arial-BoldMT-108"/>
      <use x="638.953125" xlink:href="#Arial-BoldMT-116"/>
      <use x="672.253906" xlink:href="#Arial-BoldMT-104"/>
      <use x="733.337891" xlink:href="#Arial-BoldMT-99"/>
      <use x="788.953125" xlink:href="#Arial-BoldMT-97"/>
      <use x="844.568359" xlink:href="#Arial-BoldMT-114"/>
      <use x="883.484375" xlink:href="#Arial-BoldMT-101"/>
      <use x="939.099609" xlink:href="#Arial-BoldMT-32"/>
      <use x="966.882812" xlink:href="#Arial-BoldMT-105"/>
      <use x="994.666016" xlink:href="#Arial-BoldMT-110"/>
      <use x="1055.75" xlink:href="#Arial-BoldMT-115"/>
      <use x="1111.365234" xlink:href="#Arial-BoldMT-116"/>
      <use x="1144.666016" xlink:href="#Arial-BoldMT-105"/>
      <use x="1172.449219" xlink:href="#Arial-BoldMT-116"/>
      <use x="1205.75" xlink:href="#Arial-BoldMT-117"/>
      <use x="1266.833984" xlink:href="#Arial-BoldMT-116"/>
      <use x="1300.134766" xlink:href="#Arial-BoldMT-105"/>
      <use x="1327.917969" xlink:href="#Arial-BoldMT-111"/>
      <use x="1389.001953" xlink:href="#Arial-BoldMT-110"/>
      <use x="1450.085938" xlink:href="#Arial-BoldMT-115"/>
     </g>
    </g>
   </g>
   <g id="matplotlib.axis_2">
    <g id="ytick_1">
     <g id="line2d_9">
      <defs>
       <path d="M 0 0 
L -3.5 0 
" id="mc91ea59ad0" style="stroke:#000000;stroke-width:0.8;"/>
      </defs>
      <g>
       <use style="stroke:#000000;stroke-width:0.8;" x="69.55" xlink:href="#mc91ea59ad0" y="829.391427"/>
      </g>
     </g>
     <g id="text_10">
      <!-- 0 -->
      <defs>
       <path d="M 31.78125 66.40625 
Q 24.171875 66.40625 20.328125 58.90625 
Q 16.5 51.421875 16.5 36.375 
Q 16.5 21.390625 20.328125 13.890625 
Q 24.171875 6.390625 31.78125 6.390625 
Q 39.453125 6.390625 43.28125 13.890625 
Q 47.125 21.390625 47.125 36.375 
Q 47.125 51.421875 43.28125 58.90625 
Q 39.453125 66.40625 31.78125 66.40625 
z
M 31.78125 74.21875 
Q 44.046875 74.21875 50.515625 64.515625 
Q 56.984375 54.828125 56.984375 36.375 
Q 56.984375 17.96875 50.515625 8.265625 
Q 44.046875 -1.421875 31.78125 -1.421875 
Q 19.53125 -1.421875 13.0625 8.265625 
Q 6.59375 17.96875 6.59375 36.375 
Q 6.59375 54.828125 13.0625 64.515625 
Q 19.53125 74.21875 31.78125 74.21875 
z
" id="DejaVuSans-48"/>
      </defs>
      <g transform="translate(56.1875 833.190646)scale(0.1 -0.1)">
       <use xlink:href="#DejaVuSans-48"/>
      </g>
     </g>
    </g>
    <g id="ytick_2">
     <g id="line2d_10">
      <g>
       <use style="stroke:#000000;stroke-width:0.8;" x="69.55" xlink:href="#mc91ea59ad0" y="789.800412"/>
      </g>
     </g>
     <g id="text_11">
      <!-- 25 -->
      <defs>
       <path d="M 19.1875 8.296875 
L 53.609375 8.296875 
L 53.609375 0 
L 7.328125 0 
L 7.328125 8.296875 
Q 12.9375 14.109375 22.625 23.890625 
Q 32.328125 33.6875 34.8125 36.53125 
Q 39.546875 41.84375 41.421875 45.53125 
Q 43.3125 49.21875 43.3125 52.78125 
Q 43.3125 58.59375 39.234375 62.25 
Q 35.15625 65.921875 28.609375 65.921875 
Q 23.96875 65.921875 18.8125 64.3125 
Q 13.671875 62.703125 7.8125 59.421875 
L 7.8125 69.390625 
Q 13.765625 71.78125 18.9375 73 
Q 24.125 74.21875 28.421875 74.21875 
Q 39.75 74.21875 46.484375 68.546875 
Q 53.21875 62.890625 53.21875 53.421875 
Q 53.21875 48.921875 51.53125 44.890625 
Q 49.859375 40.875 45.40625 35.40625 
Q 44.1875 33.984375 37.640625 27.21875 
Q 31.109375 20.453125 19.1875 8.296875 
z
" id="DejaVuSans-50"/>
       <path d="M 10.796875 72.90625 
L 49.515625 72.90625 
L 49.515625 64.59375 
L 19.828125 64.59375 
L 19.828125 46.734375 
Q 21.96875 47.46875 24.109375 47.828125 
Q 26.265625 48.1875 28.421875 48.1875 
Q 40.625 48.1875 47.75 41.5 
Q 54.890625 34.8125 54.890625 23.390625 
Q 54.890625 11.625 47.5625 5.09375 
Q 40.234375 -1.421875 26.90625 -1.421875 
Q 22.3125 -1.421875 17.546875 -0.640625 
Q 12.796875 0.140625 7.71875 1.703125 
L 7.71875 11.625 
Q 12.109375 9.234375 16.796875 8.0625 
Q 21.484375 6.890625 26.703125 6.890625 
Q 35.15625 6.890625 40.078125 11.328125 
Q 45.015625 15.765625 45.015625 23.390625 
Q 45.015625 31 40.078125 35.4375 
Q 35.15625 39.890625 26.703125 39.890625 
Q 22.75 39.890625 18.8125 39.015625 
Q 14.890625 38.140625 10.796875 36.28125 
z
" id="DejaVuSans-53"/>
      </defs>
      <g transform="translate(49.825 793.599631)scale(0.1 -0.1)">
       <use xlink:href="#DejaVuSans-50"/>
       <use x="63.623047" xlink:href="#DejaVuSans-53"/>
      </g>
     </g>
    </g>
    <g id="ytick_3">
     <g id="line2d_11">
      <g>
       <use style="stroke:#000000;stroke-width:0.8;" x="69.55" xlink:href="#mc91ea59ad0" y="750.209398"/>
      </g>
     </g>
     <g id="text_12">
      <!-- 50 -->
      <g transform="translate(49.825 754.008616)scale(0.1 -0.1)">
       <use xlink:href="#DejaVuSans-53"/>
       <use x="63.623047" xlink:href="#DejaVuSans-48"/>
      </g>
     </g>
    </g>
    <g id="ytick_4">
     <g id="line2d_12">
      <g>
       <use style="stroke:#000000;stroke-width:0.8;" x="69.55" xlink:href="#mc91ea59ad0" y="710.618383"/>
      </g>
     </g>
     <g id="text_13">
      <!-- 75 -->
      <defs>
       <path d="M 8.203125 72.90625 
L 55.078125 72.90625 
L 55.078125 68.703125 
L 28.609375 0 
L 18.3125 0 
L 43.21875 64.59375 
L 8.203125 64.59375 
z
" id="DejaVuSans-55"/>
      </defs>
      <g transform="translate(49.825 714.417602)scale(0.1 -0.1)">
       <use xlink:href="#DejaVuSans-55"/>
       <use x="63.623047" xlink:href="#DejaVuSans-53"/>
      </g>
     </g>
    </g>
    <g id="ytick_5">
     <g id="line2d_13">
      <g>
       <use style="stroke:#000000;stroke-width:0.8;" x="69.55" xlink:href="#mc91ea59ad0" y="671.027368"/>
      </g>
     </g>
     <g id="text_14">
      <!-- 100 -->
      <defs>
       <path d="M 12.40625 8.296875 
L 28.515625 8.296875 
L 28.515625 63.921875 
L 10.984375 60.40625 
L 10.984375 69.390625 
L 28.421875 72.90625 
L 38.28125 72.90625 
L 38.28125 8.296875 
L 54.390625 8.296875 
L 54.390625 0 
L 12.40625 0 
z
" id="DejaVuSans-49"/>
      </defs>
      <g transform="translate(43.4625 674.826587)scale(0.1 -0.1)">
       <use xlink:href="#DejaVuSans-49"/>
       <use x="63.623047" xlink:href="#DejaVuSans-48"/>
       <use x="127.246094" xlink:href="#DejaVuSans-48"/>
      </g>
     </g>
    </g>
    <g id="ytick_6">
     <g id="line2d_14">
      <g>
       <use style="stroke:#000000;stroke-width:0.8;" x="69.55" xlink:href="#mc91ea59ad0" y="631.436354"/>
      </g>
     </g>
     <g id="text_15">
      <!-- 125 -->
      <g transform="translate(43.4625 635.235572)scale(0.1 -0.1)">
       <use xlink:href="#DejaVuSans-49"/>
       <use x="63.623047" xlink:href="#DejaVuSans-50"/>
       <use x="127.246094" xlink:href="#DejaVuSans-53"/>
      </g>
     </g>
    </g>
    <g id="ytick_7">
     <g id="line2d_15">
      <g>
       <use style="stroke:#000000;stroke-width:0.8;" x="69.55" xlink:href="#mc91ea59ad0" y="591.845339"/>
      </g>
     </g>
     <g id="text_16">
      <!-- 150 -->
      <g transform="translate(43.4625 595.644558)scale(0.1 -0.1)">
       <use xlink:href="#DejaVuSans-49"/>
       <use x="63.623047" xlink:href="#DejaVuSans-53"/>
       <use x="127.246094" xlink:href="#DejaVuSans-48"/>
      </g>
     </g>
    </g>
    <g id="ytick_8">
     <g id="line2d_16">
      <g>
       <use style="stroke:#000000;stroke-width:0.8;" x="69.55" xlink:href="#mc91ea59ad0" y="552.254324"/>
      </g>
     </g>
     <g id="text_17">
      <!-- 175 -->
      <g transform="translate(43.4625 556.053543)scale(0.1 -0.1)">
       <use xlink:href="#DejaVuSans-49"/>
       <use x="63.623047" xlink:href="#DejaVuSans-55"/>
       <use x="127.246094" xlink:href="#DejaVuSans-53"/>
      </g>
     </g>
    </g>
    <g id="ytick_9">
     <g id="line2d_17">
      <g>
       <use style="stroke:#000000;stroke-width:0.8;" x="69.55" xlink:href="#mc91ea59ad0" y="512.66331"/>
      </g>
     </g>
     <g id="text_18">
      <!-- 200 -->
      <g transform="translate(43.4625 516.462528)scale(0.1 -0.1)">
       <use xlink:href="#DejaVuSans-50"/>
       <use x="63.623047" xlink:href="#DejaVuSans-48"/>
       <use x="127.246094" xlink:href="#DejaVuSans-48"/>
      </g>
     </g>
    </g>
    <g id="ytick_10">
     <g id="line2d_18">
      <g>
       <use style="stroke:#000000;stroke-width:0.8;" x="69.55" xlink:href="#mc91ea59ad0" y="473.072295"/>
      </g>
     </g>
     <g id="text_19">
      <!-- 225 -->
      <g transform="translate(43.4625 476.871514)scale(0.1 -0.1)">
       <use xlink:href="#DejaVuSans-50"/>
       <use x="63.623047" xlink:href="#DejaVuSans-50"/>
       <use x="127.246094" xlink:href="#DejaVuSans-53"/>
      </g>
     </g>
    </g>
    <g id="ytick_11">
     <g id="line2d_19">
      <g>
       <use style="stroke:#000000;stroke-width:0.8;" x="69.55" xlink:href="#mc91ea59ad0" y="433.48128"/>
      </g>
     </g>
     <g id="text_20">
      <!-- 250 -->
      <g transform="translate(43.4625 437.280499)scale(0.1 -0.1)">
       <use xlink:href="#DejaVuSans-50"/>
       <use x="63.623047" xlink:href="#DejaVuSans-53"/>
       <use x="127.246094" xlink:href="#DejaVuSans-48"/>
      </g>
     </g>
    </g>
    <g id="ytick_12">
     <g id="line2d_20">
      <g>
       <use style="stroke:#000000;stroke-width:0.8;" x="69.55" xlink:href="#mc91ea59ad0" y="393.890266"/>
      </g>
     </g>
     <g id="text_21">
      <!-- 275 -->
      <g transform="translate(43.4625 397.689484)scale(0.1 -0.1)">
       <use xlink:href="#DejaVuSans-50"/>
       <use x="63.623047" xlink:href="#DejaVuSans-55"/>
       <use x="127.246094" xlink:href="#DejaVuSans-53"/>
      </g>
     </g>
    </g>
    <g id="ytick_13">
     <g id="line2d_21">
      <g>
       <use style="stroke:#000000;stroke-width:0.8;" x="69.55" xlink:href="#mc91ea59ad0" y="354.299251"/>
      </g>
     </g>
     <g id="text_22">
      <!-- 300 -->
      <defs>
       <path d="M 40.578125 39.3125 
Q 47.65625 37.796875 51.625 33 
Q 55.609375 28.21875 55.609375 21.1875 
Q 55.609375 10.40625 48.1875 4.484375 
Q 40.765625 -1.421875 27.09375 -1.421875 
Q 22.515625 -1.421875 17.65625 -0.515625 
Q 12.796875 0.390625 7.625 2.203125 
L 7.625 11.71875 
Q 11.71875 9.328125 16.59375 8.109375 
Q 21.484375 6.890625 26.8125 6.890625 
Q 36.078125 6.890625 40.9375 10.546875 
Q 45.796875 14.203125 45.796875 21.1875 
Q 45.796875 27.640625 41.28125 31.265625 
Q 36.765625 34.90625 28.71875 34.90625 
L 20.21875 34.90625 
L 20.21875 43.015625 
L 29.109375 43.015625 
Q 36.375 43.015625 40.234375 45.921875 
Q 44.09375 48.828125 44.09375 54.296875 
Q 44.09375 59.90625 40.109375 62.90625 
Q 36.140625 65.921875 28.71875 65.921875 
Q 24.65625 65.921875 20.015625 65.03125 
Q 15.375 64.15625 9.8125 62.3125 
L 9.8125 71.09375 
Q 15.4375 72.65625 20.34375 73.4375 
Q 25.25 74.21875 29.59375 74.21875 
Q 40.828125 74.21875 47.359375 69.109375 
Q 53.90625 64.015625 53.90625 55.328125 
Q 53.90625 49.265625 50.4375 45.09375 
Q 46.96875 40.921875 40.578125 39.3125 
z
" id="DejaVuSans-51"/>
      </defs>
      <g transform="translate(43.4625 358.09847)scale(0.1 -0.1)">
       <use xlink:href="#DejaVuSans-51"/>
       <use x="63.623047" xlink:href="#DejaVuSans-48"/>
       <use x="127.246094" xlink:href="#DejaVuSans-48"/>
      </g>
     </g>
    </g>
    <g id="ytick_14">
     <g id="line2d_22">
      <g>
       <use style="stroke:#000000;stroke-width:0.8;" x="69.55" xlink:href="#mc91ea59ad0" y="314.708236"/>
      </g>
     </g>
     <g id="text_23">
      <!-- 325 -->
      <g transform="translate(43.4625 318.507455)scale(0.1 -0.1)">
       <use xlink:href="#DejaVuSans-51"/>
       <use x="63.623047" xlink:href="#DejaVuSans-50"/>
       <use x="127.246094" xlink:href="#DejaVuSans-53"/>
      </g>
     </g>
    </g>
    <g id="ytick_15">
     <g id="line2d_23">
      <g>
       <use style="stroke:#000000;stroke-width:0.8;" x="69.55" xlink:href="#mc91ea59ad0" y="275.117222"/>
      </g>
     </g>
     <g id="text_24">
      <!-- 350 -->
      <g transform="translate(43.4625 278.916441)scale(0.1 -0.1)">
       <use xlink:href="#DejaVuSans-51"/>
       <use x="63.623047" xlink:href="#DejaVuSans-53"/>
       <use x="127.246094" xlink:href="#DejaVuSans-48"/>
      </g>
     </g>
    </g>
    <g id="ytick_16">
     <g id="line2d_24">
      <g>
       <use style="stroke:#000000;stroke-width:0.8;" x="69.55" xlink:href="#mc91ea59ad0" y="235.526207"/>
      </g>
     </g>
     <g id="text_25">
      <!-- 375 -->
      <g transform="translate(43.4625 239.325426)scale(0.1 -0.1)">
       <use xlink:href="#DejaVuSans-51"/>
       <use x="63.623047" xlink:href="#DejaVuSans-55"/>
       <use x="127.246094" xlink:href="#DejaVuSans-53"/>
      </g>
     </g>
    </g>
    <g id="ytick_17">
     <g id="line2d_25">
      <g>
       <use style="stroke:#000000;stroke-width:0.8;" x="69.55" xlink:href="#mc91ea59ad0" y="195.935192"/>
      </g>
     </g>
     <g id="text_26">
      <!-- 400 -->
      <defs>
       <path d="M 37.796875 64.3125 
L 12.890625 25.390625 
L 37.796875 25.390625 
z
M 35.203125 72.90625 
L 47.609375 72.90625 
L 47.609375 25.390625 
L 58.015625 25.390625 
L 58.015625 17.1875 
L 47.609375 17.1875 
L 47.609375 0 
L 37.796875 0 
L 37.796875 17.1875 
L 4.890625 17.1875 
L 4.890625 26.703125 
z
" id="DejaVuSans-52"/>
      </defs>
      <g transform="translate(43.4625 199.734411)scale(0.1 -0.1)">
       <use xlink:href="#DejaVuSans-52"/>
       <use x="63.623047" xlink:href="#DejaVuSans-48"/>
       <use x="127.246094" xlink:href="#DejaVuSans-48"/>
      </g>
     </g>
    </g>
    <g id="ytick_18">
     <g id="line2d_26">
      <g>
       <use style="stroke:#000000;stroke-width:0.8;" x="69.55" xlink:href="#mc91ea59ad0" y="156.344178"/>
      </g>
     </g>
     <g id="text_27">
      <!-- 425 -->
      <g transform="translate(43.4625 160.143397)scale(0.1 -0.1)">
       <use xlink:href="#DejaVuSans-52"/>
       <use x="63.623047" xlink:href="#DejaVuSans-50"/>
       <use x="127.246094" xlink:href="#DejaVuSans-53"/>
      </g>
     </g>
    </g>
    <g id="ytick_19">
     <g id="line2d_27">
      <g>
       <use style="stroke:#000000;stroke-width:0.8;" x="69.55" xlink:href="#mc91ea59ad0" y="116.753163"/>
      </g>
     </g>
     <g id="text_28">
      <!-- 450 -->
      <g transform="translate(43.4625 120.552382)scale(0.1 -0.1)">
       <use xlink:href="#DejaVuSans-52"/>
       <use x="63.623047" xlink:href="#DejaVuSans-53"/>
       <use x="127.246094" xlink:href="#DejaVuSans-48"/>
      </g>
     </g>
    </g>
    <g id="text_29">
     <!-- Number of health institutions -->
     <defs>
      <path d="M 7.421875 0 
L 7.421875 71.578125 
L 21.484375 71.578125 
L 50.78125 23.78125 
L 50.78125 71.578125 
L 64.203125 71.578125 
L 64.203125 0 
L 49.703125 0 
L 20.84375 46.6875 
L 20.84375 0 
z
" id="Arial-BoldMT-78"/>
      <path d="M 6.15625 51.859375 
L 18.796875 51.859375 
L 18.796875 44.78125 
Q 25.59375 53.03125 34.96875 53.03125 
Q 39.9375 53.03125 43.59375 50.96875 
Q 47.265625 48.921875 49.609375 44.78125 
Q 53.03125 48.921875 56.984375 50.96875 
Q 60.9375 53.03125 65.4375 53.03125 
Q 71.140625 53.03125 75.09375 50.703125 
Q 79.046875 48.390625 81 43.890625 
Q 82.421875 40.578125 82.421875 33.15625 
L 82.421875 0 
L 68.703125 0 
L 68.703125 29.640625 
Q 68.703125 37.359375 67.28125 39.59375 
Q 65.375 42.53125 61.421875 42.53125 
Q 58.546875 42.53125 56 40.765625 
Q 53.46875 39.015625 52.34375 35.625 
Q 51.21875 32.234375 51.21875 24.90625 
L 51.21875 0 
L 37.5 0 
L 37.5 28.421875 
Q 37.5 35.984375 36.765625 38.171875 
Q 36.03125 40.375 34.484375 41.453125 
Q 32.953125 42.53125 30.328125 42.53125 
Q 27.15625 42.53125 24.609375 40.8125 
Q 22.078125 39.109375 20.96875 35.890625 
Q 19.875 32.671875 19.875 25.203125 
L 19.875 0 
L 6.15625 0 
z
" id="Arial-BoldMT-109"/>
     </defs>
     <g transform="translate(21.515625 594.132901)rotate(-90)scale(0.2 -0.2)">
      <use xlink:href="#Arial-BoldMT-78"/>
      <use x="72.216797" xlink:href="#Arial-BoldMT-117"/>
      <use x="133.300781" xlink:href="#Arial-BoldMT-109"/>
      <use x="222.216797" xlink:href="#Arial-BoldMT-98"/>
      <use x="283.300781" xlink:href="#Arial-BoldMT-101"/>
      <use x="338.916016" xlink:href="#Arial-BoldMT-114"/>
      <use x="377.832031" xlink:href="#Arial-BoldMT-32"/>
      <use x="405.615234" xlink:href="#Arial-BoldMT-111"/>
      <use x="466.699219" xlink:href="#Arial-BoldMT-102"/>
      <use x="500" xlink:href="#Arial-BoldMT-32"/>
      <use x="527.783203" xlink:href="#Arial-BoldMT-104"/>
      <use x="588.867188" xlink:href="#Arial-BoldMT-101"/>
      <use x="644.482422" xlink:href="#Arial-BoldMT-97"/>
      <use x="700.097656" xlink:href="#Arial-BoldMT-108"/>
      <use x="727.880859" xlink:href="#Arial-BoldMT-116"/>
      <use x="761.181641" xlink:href="#Arial-BoldMT-104"/>
      <use x="822.265625" xlink:href="#Arial-BoldMT-32"/>
      <use x="850.048828" xlink:href="#Arial-BoldMT-105"/>
      <use x="877.832031" xlink:href="#Arial-BoldMT-110"/>
      <use x="938.916016" xlink:href="#Arial-BoldMT-115"/>
      <use x="994.53125" xlink:href="#Arial-BoldMT-116"/>
      <use x="1027.832031" xlink:href="#Arial-BoldMT-105"/>
      <use x="1055.615234" xlink:href="#Arial-BoldMT-116"/>
      <use x="1088.916016" xlink:href="#Arial-BoldMT-117"/>
      <use x="1150" xlink:href="#Arial-BoldMT-116"/>
      <use x="1183.300781" xlink:href="#Arial-BoldMT-105"/>
      <use x="1211.083984" xlink:href="#Arial-BoldMT-111"/>
      <use x="1272.167969" xlink:href="#Arial-BoldMT-110"/>
      <use x="1333.251953" xlink:href="#Arial-BoldMT-115"/>
     </g>
    </g>
   </g>
   <g id="patch_19">
    <path d="M 69.55 829.391427 
L 69.55 81.12125 
" style="fill:none;stroke:#000000;stroke-linecap:square;stroke-linejoin:miter;stroke-width:0.8;"/>
   </g>
   <g id="patch_20">
    <path d="M 69.55 829.391427 
L 1782.5775 829.391427 
" style="fill:none;stroke:#000000;stroke-linecap:square;stroke-linejoin:miter;stroke-width:0.8;"/>
   </g>
   <g id="text_30">
    <!-- 450 -->
    <g transform="translate(195.907365 111.753163)rotate(-90)scale(0.15 -0.15)">
     <use xlink:href="#DejaVuSans-52"/>
     <use x="63.623047" xlink:href="#DejaVuSans-53"/>
     <use x="127.246094" xlink:href="#DejaVuSans-48"/>
    </g>
   </g>
   <g id="text_31">
    <!-- 180 -->
    <defs>
     <path d="M 31.78125 34.625 
Q 24.75 34.625 20.71875 30.859375 
Q 16.703125 27.09375 16.703125 20.515625 
Q 16.703125 13.921875 20.71875 10.15625 
Q 24.75 6.390625 31.78125 6.390625 
Q 38.8125 6.390625 42.859375 10.171875 
Q 46.921875 13.96875 46.921875 20.515625 
Q 46.921875 27.09375 42.890625 30.859375 
Q 38.875 34.625 31.78125 34.625 
z
M 21.921875 38.8125 
Q 15.578125 40.375 12.03125 44.71875 
Q 8.5 49.078125 8.5 55.328125 
Q 8.5 64.0625 14.71875 69.140625 
Q 20.953125 74.21875 31.78125 74.21875 
Q 42.671875 74.21875 48.875 69.140625 
Q 55.078125 64.0625 55.078125 55.328125 
Q 55.078125 49.078125 51.53125 44.71875 
Q 48 40.375 41.703125 38.8125 
Q 48.828125 37.15625 52.796875 32.3125 
Q 56.78125 27.484375 56.78125 20.515625 
Q 56.78125 9.90625 50.3125 4.234375 
Q 43.84375 -1.421875 31.78125 -1.421875 
Q 19.734375 -1.421875 13.25 4.234375 
Q 6.78125 9.90625 6.78125 20.515625 
Q 6.78125 27.484375 10.78125 32.3125 
Q 14.796875 37.15625 21.921875 38.8125 
z
M 18.3125 54.390625 
Q 18.3125 48.734375 21.84375 45.5625 
Q 25.390625 42.390625 31.78125 42.390625 
Q 38.140625 42.390625 41.71875 45.5625 
Q 45.3125 48.734375 45.3125 54.390625 
Q 45.3125 60.0625 41.71875 63.234375 
Q 38.140625 66.40625 31.78125 66.40625 
Q 25.390625 66.40625 21.84375 63.234375 
Q 18.3125 60.0625 18.3125 54.390625 
z
" id="DejaVuSans-56"/>
    </defs>
    <g transform="translate(393.03366 539.336121)rotate(-90)scale(0.15 -0.15)">
     <use xlink:href="#DejaVuSans-49"/>
     <use x="63.623047" xlink:href="#DejaVuSans-56"/>
     <use x="127.246094" xlink:href="#DejaVuSans-48"/>
    </g>
   </g>
   <g id="text_32">
    <!-- 177 -->
    <g transform="translate(590.159954 544.087043)rotate(-90)scale(0.15 -0.15)">
     <use xlink:href="#DejaVuSans-49"/>
     <use x="63.623047" xlink:href="#DejaVuSans-55"/>
     <use x="127.246094" xlink:href="#DejaVuSans-55"/>
    </g>
   </g>
   <g id="text_33">
    <!-- 114 -->
    <g transform="translate(787.286249 643.8564)rotate(-90)scale(0.15 -0.15)">
     <use xlink:href="#DejaVuSans-49"/>
     <use x="63.623047" xlink:href="#DejaVuSans-49"/>
     <use x="127.246094" xlink:href="#DejaVuSans-52"/>
    </g>
   </g>
   <g id="text_34">
    <!-- 60 -->
    <defs>
     <path d="M 33.015625 40.375 
Q 26.375 40.375 22.484375 35.828125 
Q 18.609375 31.296875 18.609375 23.390625 
Q 18.609375 15.53125 22.484375 10.953125 
Q 26.375 6.390625 33.015625 6.390625 
Q 39.65625 6.390625 43.53125 10.953125 
Q 47.40625 15.53125 47.40625 23.390625 
Q 47.40625 31.296875 43.53125 35.828125 
Q 39.65625 40.375 33.015625 40.375 
z
M 52.59375 71.296875 
L 52.59375 62.3125 
Q 48.875 64.0625 45.09375 64.984375 
Q 41.3125 65.921875 37.59375 65.921875 
Q 27.828125 65.921875 22.671875 59.328125 
Q 17.53125 52.734375 16.796875 39.40625 
Q 19.671875 43.65625 24.015625 45.921875 
Q 28.375 48.1875 33.59375 48.1875 
Q 44.578125 48.1875 50.953125 41.515625 
Q 57.328125 34.859375 57.328125 23.390625 
Q 57.328125 12.15625 50.6875 5.359375 
Q 44.046875 -1.421875 33.015625 -1.421875 
Q 20.359375 -1.421875 13.671875 8.265625 
Q 6.984375 17.96875 6.984375 36.375 
Q 6.984375 53.65625 15.1875 63.9375 
Q 23.390625 74.21875 37.203125 74.21875 
Q 40.921875 74.21875 44.703125 73.484375 
Q 48.484375 72.75 52.59375 71.296875 
z
" id="DejaVuSans-54"/>
    </defs>
    <g transform="translate(984.412544 729.372992)rotate(-90)scale(0.15 -0.15)">
     <use xlink:href="#DejaVuSans-54"/>
     <use x="63.623047" xlink:href="#DejaVuSans-48"/>
    </g>
   </g>
   <g id="text_35">
    <!-- 21 -->
    <g transform="translate(1181.538838 791.134975)rotate(-90)scale(0.15 -0.15)">
     <use xlink:href="#DejaVuSans-50"/>
     <use x="63.623047" xlink:href="#DejaVuSans-49"/>
    </g>
   </g>
   <g id="text_36">
    <!-- 10 -->
    <g transform="translate(1378.665133 808.555021)rotate(-90)scale(0.15 -0.15)">
     <use xlink:href="#DejaVuSans-49"/>
     <use x="63.623047" xlink:href="#DejaVuSans-48"/>
    </g>
   </g>
   <g id="text_37">
    <!-- 1 -->
    <g transform="translate(1575.791427 822.807786)rotate(-90)scale(0.15 -0.15)">
     <use xlink:href="#DejaVuSans-49"/>
    </g>
   </g>
   <g id="text_38">
    <!-- 33 -->
    <g transform="translate(284.614198 772.131288)rotate(-90)scale(0.15 -0.15)">
     <use xlink:href="#DejaVuSans-51"/>
     <use x="63.623047" xlink:href="#DejaVuSans-51"/>
    </g>
   </g>
   <g id="text_39">
    <!-- 43 -->
    <g transform="translate(481.740492 756.294882)rotate(-90)scale(0.15 -0.15)">
     <use xlink:href="#DejaVuSans-52"/>
     <use x="63.623047" xlink:href="#DejaVuSans-51"/>
    </g>
   </g>
   <g id="text_40">
    <!-- 13 -->
    <g transform="translate(678.866787 803.804099)rotate(-90)scale(0.15 -0.15)">
     <use xlink:href="#DejaVuSans-49"/>
     <use x="63.623047" xlink:href="#DejaVuSans-51"/>
    </g>
   </g>
   <g id="text_41">
    <!-- 111 -->
    <g transform="translate(875.993081 648.607322)rotate(-90)scale(0.15 -0.15)">
     <use xlink:href="#DejaVuSans-49"/>
     <use x="63.623047" xlink:href="#DejaVuSans-49"/>
     <use x="127.246094" xlink:href="#DejaVuSans-49"/>
    </g>
   </g>
   <g id="text_42">
    <!-- 27 -->
    <g transform="translate(1073.119376 781.633131)rotate(-90)scale(0.15 -0.15)">
     <use xlink:href="#DejaVuSans-50"/>
     <use x="63.623047" xlink:href="#DejaVuSans-55"/>
    </g>
   </g>
   <g id="text_43">
    <!-- 5 -->
    <g transform="translate(1270.245671 816.473224)rotate(-90)scale(0.15 -0.15)">
     <use xlink:href="#DejaVuSans-53"/>
    </g>
   </g>
   <g id="text_44">
    <!-- 2 -->
    <g transform="translate(1467.371965 821.224146)rotate(-90)scale(0.15 -0.15)">
     <use xlink:href="#DejaVuSans-50"/>
    </g>
   </g>
   <g id="text_45">
    <!-- 40 -->
    <g transform="translate(1664.49826 761.045803)rotate(-90)scale(0.15 -0.15)">
     <use xlink:href="#DejaVuSans-52"/>
     <use x="63.623047" xlink:href="#DejaVuSans-48"/>
    </g>
   </g>
   <g id="text_46">
    <!-- Out of 33 types, 8 types of healtcare institutions are also operated by the private sector. -->
    <defs>
     <path d="M 3.765625 19 
L 17.046875 20.609375 
Q 17.671875 15.53125 20.453125 12.84375 
Q 23.25 10.15625 27.203125 10.15625 
Q 31.453125 10.15625 34.34375 13.375 
Q 37.25 16.609375 37.25 22.078125 
Q 37.25 27.25 34.46875 30.265625 
Q 31.6875 33.296875 27.6875 33.296875 
Q 25.046875 33.296875 21.390625 32.28125 
L 22.90625 43.453125 
Q 28.46875 43.3125 31.390625 45.875 
Q 34.328125 48.4375 34.328125 52.6875 
Q 34.328125 56.296875 32.171875 58.4375 
Q 30.03125 60.59375 26.46875 60.59375 
Q 22.953125 60.59375 20.453125 58.15625 
Q 17.96875 55.71875 17.4375 51.03125 
L 4.78125 53.171875 
Q 6.109375 59.671875 8.765625 63.546875 
Q 11.421875 67.4375 16.1875 69.65625 
Q 20.953125 71.875 26.859375 71.875 
Q 36.96875 71.875 43.0625 65.4375 
Q 48.09375 60.15625 48.09375 53.515625 
Q 48.09375 44.09375 37.796875 38.484375 
Q 43.953125 37.15625 47.625 32.5625 
Q 51.3125 27.984375 51.3125 21.484375 
Q 51.3125 12.0625 44.421875 5.421875 
Q 37.546875 -1.21875 27.296875 -1.21875 
Q 17.578125 -1.21875 11.171875 4.375 
Q 4.78125 9.96875 3.765625 19 
z
" id="Arial-BoldMT-51"/>
     <path d="M 6.84375 13.71875 
L 20.5625 13.71875 
L 20.5625 3.90625 
Q 20.5625 -2.046875 19.53125 -5.484375 
Q 18.5 -8.9375 15.640625 -11.671875 
Q 12.796875 -14.40625 8.40625 -15.96875 
L 5.71875 -10.296875 
Q 9.859375 -8.9375 11.609375 -6.546875 
Q 13.375 -4.15625 13.484375 0 
L 6.84375 0 
z
" id="Arial-BoldMT-44"/>
     <path d="M 16.015625 38.625 
Q 10.6875 40.875 8.265625 44.796875 
Q 5.859375 48.734375 5.859375 53.421875 
Q 5.859375 61.421875 11.453125 66.640625 
Q 17.046875 71.875 27.34375 71.875 
Q 37.546875 71.875 43.1875 66.640625 
Q 48.828125 61.421875 48.828125 53.421875 
Q 48.828125 48.4375 46.234375 44.546875 
Q 43.65625 40.671875 38.96875 38.625 
Q 44.921875 36.234375 48.015625 31.640625 
Q 51.125 27.046875 51.125 21.046875 
Q 51.125 11.140625 44.796875 4.9375 
Q 38.484375 -1.265625 27.984375 -1.265625 
Q 18.21875 -1.265625 11.71875 3.859375 
Q 4.046875 9.90625 4.046875 20.453125 
Q 4.046875 26.265625 6.921875 31.125 
Q 9.8125 35.984375 16.015625 38.625 
z
M 18.84375 52.4375 
Q 18.84375 48.34375 21.15625 46.046875 
Q 23.484375 43.75 27.34375 43.75 
Q 31.25 43.75 33.59375 46.0625 
Q 35.9375 48.390625 35.9375 52.484375 
Q 35.9375 56.34375 33.609375 58.65625 
Q 31.296875 60.984375 27.484375 60.984375 
Q 23.53125 60.984375 21.1875 58.640625 
Q 18.84375 56.296875 18.84375 52.4375 
z
M 17.578125 21.78125 
Q 17.578125 16.109375 20.484375 12.9375 
Q 23.390625 9.765625 27.734375 9.765625 
Q 31.984375 9.765625 34.765625 12.8125 
Q 37.546875 15.875 37.546875 21.625 
Q 37.546875 26.65625 34.71875 29.703125 
Q 31.890625 32.765625 27.546875 32.765625 
Q 22.515625 32.765625 20.046875 29.296875 
Q 17.578125 25.828125 17.578125 21.78125 
z
" id="Arial-BoldMT-56"/>
     <path d="M 21.4375 0 
L 0.53125 51.859375 
L 14.9375 51.859375 
L 24.703125 25.390625 
L 27.546875 16.546875 
Q 28.65625 19.921875 28.953125 21 
Q 29.640625 23.1875 30.421875 25.390625 
L 40.28125 51.859375 
L 54.390625 51.859375 
L 33.796875 0 
z
" id="Arial-BoldMT-118"/>
     <path d="M 7.171875 0 
L 7.171875 13.71875 
L 20.90625 13.71875 
L 20.90625 0 
z
" id="Arial-BoldMT-46"/>
    </defs>
    <g transform="translate(300.948125 29.039062)scale(0.3 -0.3)">
     <use xlink:href="#Arial-BoldMT-79"/>
     <use x="77.783203" xlink:href="#Arial-BoldMT-117"/>
     <use x="138.867188" xlink:href="#Arial-BoldMT-116"/>
     <use x="172.167969" xlink:href="#Arial-BoldMT-32"/>
     <use x="199.951172" xlink:href="#Arial-BoldMT-111"/>
     <use x="261.035156" xlink:href="#Arial-BoldMT-102"/>
     <use x="294.335938" xlink:href="#Arial-BoldMT-32"/>
     <use x="322.119141" xlink:href="#Arial-BoldMT-51"/>
     <use x="377.734375" xlink:href="#Arial-BoldMT-51"/>
     <use x="433.349609" xlink:href="#Arial-BoldMT-32"/>
     <use x="461.132812" xlink:href="#Arial-BoldMT-116"/>
     <use x="494.433594" xlink:href="#Arial-BoldMT-121"/>
     <use x="550.048828" xlink:href="#Arial-BoldMT-112"/>
     <use x="611.132812" xlink:href="#Arial-BoldMT-101"/>
     <use x="666.748047" xlink:href="#Arial-BoldMT-115"/>
     <use x="722.363281" xlink:href="#Arial-BoldMT-44"/>
     <use x="750.146484" xlink:href="#Arial-BoldMT-32"/>
     <use x="777.929688" xlink:href="#Arial-BoldMT-56"/>
     <use x="833.544922" xlink:href="#Arial-BoldMT-32"/>
     <use x="861.328125" xlink:href="#Arial-BoldMT-116"/>
     <use x="894.628906" xlink:href="#Arial-BoldMT-121"/>
     <use x="950.244141" xlink:href="#Arial-BoldMT-112"/>
     <use x="1011.328125" xlink:href="#Arial-BoldMT-101"/>
     <use x="1066.943359" xlink:href="#Arial-BoldMT-115"/>
     <use x="1122.558594" xlink:href="#Arial-BoldMT-32"/>
     <use x="1150.341797" xlink:href="#Arial-BoldMT-111"/>
     <use x="1211.425781" xlink:href="#Arial-BoldMT-102"/>
     <use x="1244.726562" xlink:href="#Arial-BoldMT-32"/>
     <use x="1272.509766" xlink:href="#Arial-BoldMT-104"/>
     <use x="1333.59375" xlink:href="#Arial-BoldMT-101"/>
     <use x="1389.208984" xlink:href="#Arial-BoldMT-97"/>
     <use x="1444.824219" xlink:href="#Arial-BoldMT-108"/>
     <use x="1472.607422" xlink:href="#Arial-BoldMT-116"/>
     <use x="1505.908203" xlink:href="#Arial-BoldMT-99"/>
     <use x="1561.523438" xlink:href="#Arial-BoldMT-97"/>
     <use x="1617.138672" xlink:href="#Arial-BoldMT-114"/>
     <use x="1656.054688" xlink:href="#Arial-BoldMT-101"/>
     <use x="1711.669922" xlink:href="#Arial-BoldMT-32"/>
     <use x="1739.453125" xlink:href="#Arial-BoldMT-105"/>
     <use x="1767.236328" xlink:href="#Arial-BoldMT-110"/>
     <use x="1828.320312" xlink:href="#Arial-BoldMT-115"/>
     <use x="1883.935547" xlink:href="#Arial-BoldMT-116"/>
     <use x="1917.236328" xlink:href="#Arial-BoldMT-105"/>
     <use x="1945.019531" xlink:href="#Arial-BoldMT-116"/>
     <use x="1978.320312" xlink:href="#Arial-BoldMT-117"/>
     <use x="2039.404297" xlink:href="#Arial-BoldMT-116"/>
     <use x="2072.705078" xlink:href="#Arial-BoldMT-105"/>
     <use x="2100.488281" xlink:href="#Arial-BoldMT-111"/>
     <use x="2161.572266" xlink:href="#Arial-BoldMT-110"/>
     <use x="2222.65625" xlink:href="#Arial-BoldMT-115"/>
     <use x="2278.271484" xlink:href="#Arial-BoldMT-32"/>
     <use x="2306.054688" xlink:href="#Arial-BoldMT-97"/>
     <use x="2361.669922" xlink:href="#Arial-BoldMT-114"/>
     <use x="2400.585938" xlink:href="#Arial-BoldMT-101"/>
     <use x="2456.201172" xlink:href="#Arial-BoldMT-32"/>
     <use x="2483.984375" xlink:href="#Arial-BoldMT-97"/>
     <use x="2539.599609" xlink:href="#Arial-BoldMT-108"/>
     <use x="2567.382812" xlink:href="#Arial-BoldMT-115"/>
     <use x="2622.998047" xlink:href="#Arial-BoldMT-111"/>
     <use x="2684.082031" xlink:href="#Arial-BoldMT-32"/>
     <use x="2711.865234" xlink:href="#Arial-BoldMT-111"/>
     <use x="2772.949219" xlink:href="#Arial-BoldMT-112"/>
     <use x="2834.033203" xlink:href="#Arial-BoldMT-101"/>
     <use x="2889.648438" xlink:href="#Arial-BoldMT-114"/>
     <use x="2928.564453" xlink:href="#Arial-BoldMT-97"/>
     <use x="2984.179688" xlink:href="#Arial-BoldMT-116"/>
     <use x="3017.480469" xlink:href="#Arial-BoldMT-101"/>
     <use x="3073.095703" xlink:href="#Arial-BoldMT-100"/>
     <use x="3134.179688" xlink:href="#Arial-BoldMT-32"/>
     <use x="3161.962891" xlink:href="#Arial-BoldMT-98"/>
     <use x="3223.046875" xlink:href="#Arial-BoldMT-121"/>
     <use x="3278.662109" xlink:href="#Arial-BoldMT-32"/>
     <use x="3306.445312" xlink:href="#Arial-BoldMT-116"/>
     <use x="3339.746094" xlink:href="#Arial-BoldMT-104"/>
     <use x="3400.830078" xlink:href="#Arial-BoldMT-101"/>
     <use x="3456.445312" xlink:href="#Arial-BoldMT-32"/>
     <use x="3484.228516" xlink:href="#Arial-BoldMT-112"/>
     <use x="3545.3125" xlink:href="#Arial-BoldMT-114"/>
     <use x="3584.228516" xlink:href="#Arial-BoldMT-105"/>
     <use x="3612.011719" xlink:href="#Arial-BoldMT-118"/>
     <use x="3667.626953" xlink:href="#Arial-BoldMT-97"/>
     <use x="3723.242188" xlink:href="#Arial-BoldMT-116"/>
     <use x="3756.542969" xlink:href="#Arial-BoldMT-101"/>
     <use x="3812.158203" xlink:href="#Arial-BoldMT-32"/>
     <use x="3839.941406" xlink:href="#Arial-BoldMT-115"/>
     <use x="3895.556641" xlink:href="#Arial-BoldMT-101"/>
     <use x="3951.171875" xlink:href="#Arial-BoldMT-99"/>
     <use x="4006.787109" xlink:href="#Arial-BoldMT-116"/>
     <use x="4040.087891" xlink:href="#Arial-BoldMT-111"/>
     <use x="4101.171875" xlink:href="#Arial-BoldMT-114"/>
     <use x="4140.009766" xlink:href="#Arial-BoldMT-46"/>
    </g>
    <!--  There are more institutions operated by the private sector in general in the categories they are allowed to. -->
    <defs>
     <path d="M 16.84375 0 
L 0.4375 51.859375 
L 13.765625 51.859375 
L 23.484375 17.875 
L 32.421875 51.859375 
L 45.65625 51.859375 
L 54.296875 17.875 
L 64.203125 51.859375 
L 77.734375 51.859375 
L 61.078125 0 
L 47.90625 0 
L 38.96875 33.34375 
L 30.171875 0 
z
" id="Arial-BoldMT-119"/>
    </defs>
    <g transform="translate(168.416094 61.12125)scale(0.3 -0.3)">
     <use xlink:href="#Arial-BoldMT-32"/>
     <use x="27.783203" xlink:href="#Arial-BoldMT-84"/>
     <use x="88.867188" xlink:href="#Arial-BoldMT-104"/>
     <use x="149.951172" xlink:href="#Arial-BoldMT-101"/>
     <use x="205.566406" xlink:href="#Arial-BoldMT-114"/>
     <use x="244.482422" xlink:href="#Arial-BoldMT-101"/>
     <use x="300.097656" xlink:href="#Arial-BoldMT-32"/>
     <use x="327.880859" xlink:href="#Arial-BoldMT-97"/>
     <use x="383.496094" xlink:href="#Arial-BoldMT-114"/>
     <use x="422.412109" xlink:href="#Arial-BoldMT-101"/>
     <use x="478.027344" xlink:href="#Arial-BoldMT-32"/>
     <use x="505.810547" xlink:href="#Arial-BoldMT-109"/>
     <use x="594.726562" xlink:href="#Arial-BoldMT-111"/>
     <use x="655.810547" xlink:href="#Arial-BoldMT-114"/>
     <use x="694.726562" xlink:href="#Arial-BoldMT-101"/>
     <use x="750.341797" xlink:href="#Arial-BoldMT-32"/>
     <use x="778.125" xlink:href="#Arial-BoldMT-105"/>
     <use x="805.908203" xlink:href="#Arial-BoldMT-110"/>
     <use x="866.992188" xlink:href="#Arial-BoldMT-115"/>
     <use x="922.607422" xlink:href="#Arial-BoldMT-116"/>
     <use x="955.908203" xlink:href="#Arial-BoldMT-105"/>
     <use x="983.691406" xlink:href="#Arial-BoldMT-116"/>
     <use x="1016.992188" xlink:href="#Arial-BoldMT-117"/>
     <use x="1078.076172" xlink:href="#Arial-BoldMT-116"/>
     <use x="1111.376953" xlink:href="#Arial-BoldMT-105"/>
     <use x="1139.160156" xlink:href="#Arial-BoldMT-111"/>
     <use x="1200.244141" xlink:href="#Arial-BoldMT-110"/>
     <use x="1261.328125" xlink:href="#Arial-BoldMT-115"/>
     <use x="1316.943359" xlink:href="#Arial-BoldMT-32"/>
     <use x="1344.726562" xlink:href="#Arial-BoldMT-111"/>
     <use x="1405.810547" xlink:href="#Arial-BoldMT-112"/>
     <use x="1466.894531" xlink:href="#Arial-BoldMT-101"/>
     <use x="1522.509766" xlink:href="#Arial-BoldMT-114"/>
     <use x="1561.425781" xlink:href="#Arial-BoldMT-97"/>
     <use x="1617.041016" xlink:href="#Arial-BoldMT-116"/>
     <use x="1650.341797" xlink:href="#Arial-BoldMT-101"/>
     <use x="1705.957031" xlink:href="#Arial-BoldMT-100"/>
     <use x="1767.041016" xlink:href="#Arial-BoldMT-32"/>
     <use x="1794.824219" xlink:href="#Arial-BoldMT-98"/>
     <use x="1855.908203" xlink:href="#Arial-BoldMT-121"/>
     <use x="1911.523438" xlink:href="#Arial-BoldMT-32"/>
     <use x="1939.306641" xlink:href="#Arial-BoldMT-116"/>
     <use x="1972.607422" xlink:href="#Arial-BoldMT-104"/>
     <use x="2033.691406" xlink:href="#Arial-BoldMT-101"/>
     <use x="2089.306641" xlink:href="#Arial-BoldMT-32"/>
     <use x="2117.089844" xlink:href="#Arial-BoldMT-112"/>
     <use x="2178.173828" xlink:href="#Arial-BoldMT-114"/>
     <use x="2217.089844" xlink:href="#Arial-BoldMT-105"/>
     <use x="2244.873047" xlink:href="#Arial-BoldMT-118"/>
     <use x="2300.488281" xlink:href="#Arial-BoldMT-97"/>
     <use x="2356.103516" xlink:href="#Arial-BoldMT-116"/>
     <use x="2389.404297" xlink:href="#Arial-BoldMT-101"/>
     <use x="2445.019531" xlink:href="#Arial-BoldMT-32"/>
     <use x="2472.802734" xlink:href="#Arial-BoldMT-115"/>
     <use x="2528.417969" xlink:href="#Arial-BoldMT-101"/>
     <use x="2584.033203" xlink:href="#Arial-BoldMT-99"/>
     <use x="2639.648438" xlink:href="#Arial-BoldMT-116"/>
     <use x="2672.949219" xlink:href="#Arial-BoldMT-111"/>
     <use x="2734.033203" xlink:href="#Arial-BoldMT-114"/>
     <use x="2772.949219" xlink:href="#Arial-BoldMT-32"/>
     <use x="2800.732422" xlink:href="#Arial-BoldMT-105"/>
     <use x="2828.515625" xlink:href="#Arial-BoldMT-110"/>
     <use x="2889.599609" xlink:href="#Arial-BoldMT-32"/>
     <use x="2917.382812" xlink:href="#Arial-BoldMT-103"/>
     <use x="2978.466797" xlink:href="#Arial-BoldMT-101"/>
     <use x="3034.082031" xlink:href="#Arial-BoldMT-110"/>
     <use x="3095.166016" xlink:href="#Arial-BoldMT-101"/>
     <use x="3150.78125" xlink:href="#Arial-BoldMT-114"/>
     <use x="3189.697266" xlink:href="#Arial-BoldMT-97"/>
     <use x="3245.3125" xlink:href="#Arial-BoldMT-108"/>
     <use x="3273.095703" xlink:href="#Arial-BoldMT-32"/>
     <use x="3300.878906" xlink:href="#Arial-BoldMT-105"/>
     <use x="3328.662109" xlink:href="#Arial-BoldMT-110"/>
     <use x="3389.746094" xlink:href="#Arial-BoldMT-32"/>
     <use x="3417.529297" xlink:href="#Arial-BoldMT-116"/>
     <use x="3450.830078" xlink:href="#Arial-BoldMT-104"/>
     <use x="3511.914062" xlink:href="#Arial-BoldMT-101"/>
     <use x="3567.529297" xlink:href="#Arial-BoldMT-32"/>
     <use x="3595.3125" xlink:href="#Arial-BoldMT-99"/>
     <use x="3650.927734" xlink:href="#Arial-BoldMT-97"/>
     <use x="3706.542969" xlink:href="#Arial-BoldMT-116"/>
     <use x="3739.84375" xlink:href="#Arial-BoldMT-101"/>
     <use x="3795.458984" xlink:href="#Arial-BoldMT-103"/>
     <use x="3856.542969" xlink:href="#Arial-BoldMT-111"/>
     <use x="3917.626953" xlink:href="#Arial-BoldMT-114"/>
     <use x="3956.542969" xlink:href="#Arial-BoldMT-105"/>
     <use x="3984.326172" xlink:href="#Arial-BoldMT-101"/>
     <use x="4039.941406" xlink:href="#Arial-BoldMT-115"/>
     <use x="4095.556641" xlink:href="#Arial-BoldMT-32"/>
     <use x="4123.339844" xlink:href="#Arial-BoldMT-116"/>
     <use x="4156.640625" xlink:href="#Arial-BoldMT-104"/>
     <use x="4217.724609" xlink:href="#Arial-BoldMT-101"/>
     <use x="4273.339844" xlink:href="#Arial-BoldMT-121"/>
     <use x="4328.955078" xlink:href="#Arial-BoldMT-32"/>
     <use x="4356.738281" xlink:href="#Arial-BoldMT-97"/>
     <use x="4412.353516" xlink:href="#Arial-BoldMT-114"/>
     <use x="4451.269531" xlink:href="#Arial-BoldMT-101"/>
     <use x="4506.884766" xlink:href="#Arial-BoldMT-32"/>
     <use x="4534.667969" xlink:href="#Arial-BoldMT-97"/>
     <use x="4590.283203" xlink:href="#Arial-BoldMT-108"/>
     <use x="4618.066406" xlink:href="#Arial-BoldMT-108"/>
     <use x="4645.849609" xlink:href="#Arial-BoldMT-111"/>
     <use x="4706.933594" xlink:href="#Arial-BoldMT-119"/>
     <use x="4784.716797" xlink:href="#Arial-BoldMT-101"/>
     <use x="4840.332031" xlink:href="#Arial-BoldMT-100"/>
     <use x="4901.416016" xlink:href="#Arial-BoldMT-32"/>
     <use x="4929.199219" xlink:href="#Arial-BoldMT-116"/>
     <use x="4962.5" xlink:href="#Arial-BoldMT-111"/>
     <use x="5023.583984" xlink:href="#Arial-BoldMT-46"/>
    </g>
   </g>
   <g id="legend_1">
    <g id="patch_21">
     <path d="M 1486.144688 193.19 
L 1761.5775 193.19 
Q 1767.5775 193.19 1767.5775 187.19 
L 1767.5775 102.12125 
Q 1767.5775 96.12125 1761.5775 96.12125 
L 1486.144688 96.12125 
Q 1480.144688 96.12125 1480.144688 102.12125 
L 1480.144688 187.19 
Q 1480.144688 193.19 1486.144688 193.19 
z
" style="fill:#ffffff;opacity:0.8;stroke:#cccccc;stroke-linejoin:miter;"/>
    </g>
    <g id="patch_22">
     <path d="M 1492.144688 130.916563 
L 1552.144688 130.916563 
L 1552.144688 109.916563 
L 1492.144688 109.916563 
z
" style="fill:#66c2a5;"/>
    </g>
    <g id="text_47">
     <!-- Private Inst. -->
     <defs>
      <path d="M 19.671875 64.796875 
L 19.671875 37.40625 
L 32.078125 37.40625 
Q 38.96875 37.40625 42.71875 40.96875 
Q 46.484375 44.53125 46.484375 51.125 
Q 46.484375 57.671875 42.71875 61.234375 
Q 38.96875 64.796875 32.078125 64.796875 
z
M 9.8125 72.90625 
L 32.078125 72.90625 
Q 44.34375 72.90625 50.609375 67.359375 
Q 56.890625 61.8125 56.890625 51.125 
Q 56.890625 40.328125 50.609375 34.8125 
Q 44.34375 29.296875 32.078125 29.296875 
L 19.671875 29.296875 
L 19.671875 0 
L 9.8125 0 
z
" id="DejaVuSans-80"/>
      <path d="M 41.109375 46.296875 
Q 39.59375 47.171875 37.8125 47.578125 
Q 36.03125 48 33.890625 48 
Q 26.265625 48 22.1875 43.046875 
Q 18.109375 38.09375 18.109375 28.8125 
L 18.109375 0 
L 9.078125 0 
L 9.078125 54.6875 
L 18.109375 54.6875 
L 18.109375 46.1875 
Q 20.953125 51.171875 25.484375 53.578125 
Q 30.03125 56 36.53125 56 
Q 37.453125 56 38.578125 55.875 
Q 39.703125 55.765625 41.0625 55.515625 
z
" id="DejaVuSans-114"/>
      <path d="M 9.421875 54.6875 
L 18.40625 54.6875 
L 18.40625 0 
L 9.421875 0 
z
M 9.421875 75.984375 
L 18.40625 75.984375 
L 18.40625 64.59375 
L 9.421875 64.59375 
z
" id="DejaVuSans-105"/>
      <path d="M 2.984375 54.6875 
L 12.5 54.6875 
L 29.59375 8.796875 
L 46.6875 54.6875 
L 56.203125 54.6875 
L 35.6875 0 
L 23.484375 0 
z
" id="DejaVuSans-118"/>
      <path d="M 34.28125 27.484375 
Q 23.390625 27.484375 19.1875 25 
Q 14.984375 22.515625 14.984375 16.5 
Q 14.984375 11.71875 18.140625 8.90625 
Q 21.296875 6.109375 26.703125 6.109375 
Q 34.1875 6.109375 38.703125 11.40625 
Q 43.21875 16.703125 43.21875 25.484375 
L 43.21875 27.484375 
z
M 52.203125 31.203125 
L 52.203125 0 
L 43.21875 0 
L 43.21875 8.296875 
Q 40.140625 3.328125 35.546875 0.953125 
Q 30.953125 -1.421875 24.3125 -1.421875 
Q 15.921875 -1.421875 10.953125 3.296875 
Q 6 8.015625 6 15.921875 
Q 6 25.140625 12.171875 29.828125 
Q 18.359375 34.515625 30.609375 34.515625 
L 43.21875 34.515625 
L 43.21875 35.40625 
Q 43.21875 41.609375 39.140625 45 
Q 35.0625 48.390625 27.6875 48.390625 
Q 23 48.390625 18.546875 47.265625 
Q 14.109375 46.140625 10.015625 43.890625 
L 10.015625 52.203125 
Q 14.9375 54.109375 19.578125 55.046875 
Q 24.21875 56 28.609375 56 
Q 40.484375 56 46.34375 49.84375 
Q 52.203125 43.703125 52.203125 31.203125 
z
" id="DejaVuSans-97"/>
      <path d="M 18.3125 70.21875 
L 18.3125 54.6875 
L 36.8125 54.6875 
L 36.8125 47.703125 
L 18.3125 47.703125 
L 18.3125 18.015625 
Q 18.3125 11.328125 20.140625 9.421875 
Q 21.96875 7.515625 27.59375 7.515625 
L 36.8125 7.515625 
L 36.8125 0 
L 27.59375 0 
Q 17.1875 0 13.234375 3.875 
Q 9.28125 7.765625 9.28125 18.015625 
L 9.28125 47.703125 
L 2.6875 47.703125 
L 2.6875 54.6875 
L 9.28125 54.6875 
L 9.28125 70.21875 
z
" id="DejaVuSans-116"/>
      <path d="M 56.203125 29.59375 
L 56.203125 25.203125 
L 14.890625 25.203125 
Q 15.484375 15.921875 20.484375 11.0625 
Q 25.484375 6.203125 34.421875 6.203125 
Q 39.59375 6.203125 44.453125 7.46875 
Q 49.3125 8.734375 54.109375 11.28125 
L 54.109375 2.78125 
Q 49.265625 0.734375 44.1875 -0.34375 
Q 39.109375 -1.421875 33.890625 -1.421875 
Q 20.796875 -1.421875 13.15625 6.1875 
Q 5.515625 13.8125 5.515625 26.8125 
Q 5.515625 40.234375 12.765625 48.109375 
Q 20.015625 56 32.328125 56 
Q 43.359375 56 49.78125 48.890625 
Q 56.203125 41.796875 56.203125 29.59375 
z
M 47.21875 32.234375 
Q 47.125 39.59375 43.09375 43.984375 
Q 39.0625 48.390625 32.421875 48.390625 
Q 24.90625 48.390625 20.390625 44.140625 
Q 15.875 39.890625 15.1875 32.171875 
z
" id="DejaVuSans-101"/>
      <path id="DejaVuSans-32"/>
      <path d="M 9.8125 72.90625 
L 19.671875 72.90625 
L 19.671875 0 
L 9.8125 0 
z
" id="DejaVuSans-73"/>
      <path d="M 54.890625 33.015625 
L 54.890625 0 
L 45.90625 0 
L 45.90625 32.71875 
Q 45.90625 40.484375 42.875 44.328125 
Q 39.84375 48.1875 33.796875 48.1875 
Q 26.515625 48.1875 22.3125 43.546875 
Q 18.109375 38.921875 18.109375 30.90625 
L 18.109375 0 
L 9.078125 0 
L 9.078125 54.6875 
L 18.109375 54.6875 
L 18.109375 46.1875 
Q 21.34375 51.125 25.703125 53.5625 
Q 30.078125 56 35.796875 56 
Q 45.21875 56 50.046875 50.171875 
Q 54.890625 44.34375 54.890625 33.015625 
z
" id="DejaVuSans-110"/>
      <path d="M 44.28125 53.078125 
L 44.28125 44.578125 
Q 40.484375 46.53125 36.375 47.5 
Q 32.28125 48.484375 27.875 48.484375 
Q 21.1875 48.484375 17.84375 46.4375 
Q 14.5 44.390625 14.5 40.28125 
Q 14.5 37.15625 16.890625 35.375 
Q 19.28125 33.59375 26.515625 31.984375 
L 29.59375 31.296875 
Q 39.15625 29.25 43.1875 25.515625 
Q 47.21875 21.78125 47.21875 15.09375 
Q 47.21875 7.46875 41.1875 3.015625 
Q 35.15625 -1.421875 24.609375 -1.421875 
Q 20.21875 -1.421875 15.453125 -0.5625 
Q 10.6875 0.296875 5.421875 2 
L 5.421875 11.28125 
Q 10.40625 8.6875 15.234375 7.390625 
Q 20.0625 6.109375 24.8125 6.109375 
Q 31.15625 6.109375 34.5625 8.28125 
Q 37.984375 10.453125 37.984375 14.40625 
Q 37.984375 18.0625 35.515625 20.015625 
Q 33.0625 21.96875 24.703125 23.78125 
L 21.578125 24.515625 
Q 13.234375 26.265625 9.515625 29.90625 
Q 5.8125 33.546875 5.8125 39.890625 
Q 5.8125 47.609375 11.28125 51.796875 
Q 16.75 56 26.8125 56 
Q 31.78125 56 36.171875 55.265625 
Q 40.578125 54.546875 44.28125 53.078125 
z
" id="DejaVuSans-115"/>
      <path d="M 10.6875 12.40625 
L 21 12.40625 
L 21 0 
L 10.6875 0 
z
" id="DejaVuSans-46"/>
     </defs>
     <g transform="translate(1576.144688 130.916563)scale(0.3 -0.3)">
      <use xlink:href="#DejaVuSans-80"/>
      <use x="60.287109" xlink:href="#DejaVuSans-114"/>
      <use x="101.400391" xlink:href="#DejaVuSans-105"/>
      <use x="129.183594" xlink:href="#DejaVuSans-118"/>
      <use x="188.363281" xlink:href="#DejaVuSans-97"/>
      <use x="249.642578" xlink:href="#DejaVuSans-116"/>
      <use x="288.851562" xlink:href="#DejaVuSans-101"/>
      <use x="350.375" xlink:href="#DejaVuSans-32"/>
      <use x="382.162109" xlink:href="#DejaVuSans-73"/>
      <use x="411.654297" xlink:href="#DejaVuSans-110"/>
      <use x="475.033203" xlink:href="#DejaVuSans-115"/>
      <use x="527.132812" xlink:href="#DejaVuSans-116"/>
      <use x="566.341797" xlink:href="#DejaVuSans-46"/>
     </g>
    </g>
    <g id="patch_23">
     <path d="M 1492.144688 174.950938 
L 1552.144688 174.950938 
L 1552.144688 153.950938 
L 1492.144688 153.950938 
z
" style="fill:#e78ac3;"/>
    </g>
    <g id="text_48">
     <!-- Public Inst. -->
     <defs>
      <path d="M 8.5 21.578125 
L 8.5 54.6875 
L 17.484375 54.6875 
L 17.484375 21.921875 
Q 17.484375 14.15625 20.5 10.265625 
Q 23.53125 6.390625 29.59375 6.390625 
Q 36.859375 6.390625 41.078125 11.03125 
Q 45.3125 15.671875 45.3125 23.6875 
L 45.3125 54.6875 
L 54.296875 54.6875 
L 54.296875 0 
L 45.3125 0 
L 45.3125 8.40625 
Q 42.046875 3.421875 37.71875 1 
Q 33.40625 -1.421875 27.6875 -1.421875 
Q 18.265625 -1.421875 13.375 4.4375 
Q 8.5 10.296875 8.5 21.578125 
z
M 31.109375 56 
z
" id="DejaVuSans-117"/>
      <path d="M 48.6875 27.296875 
Q 48.6875 37.203125 44.609375 42.84375 
Q 40.53125 48.484375 33.40625 48.484375 
Q 26.265625 48.484375 22.1875 42.84375 
Q 18.109375 37.203125 18.109375 27.296875 
Q 18.109375 17.390625 22.1875 11.75 
Q 26.265625 6.109375 33.40625 6.109375 
Q 40.53125 6.109375 44.609375 11.75 
Q 48.6875 17.390625 48.6875 27.296875 
z
M 18.109375 46.390625 
Q 20.953125 51.265625 25.265625 53.625 
Q 29.59375 56 35.59375 56 
Q 45.5625 56 51.78125 48.09375 
Q 58.015625 40.1875 58.015625 27.296875 
Q 58.015625 14.40625 51.78125 6.484375 
Q 45.5625 -1.421875 35.59375 -1.421875 
Q 29.59375 -1.421875 25.265625 0.953125 
Q 20.953125 3.328125 18.109375 8.203125 
L 18.109375 0 
L 9.078125 0 
L 9.078125 75.984375 
L 18.109375 75.984375 
z
" id="DejaVuSans-98"/>
      <path d="M 9.421875 75.984375 
L 18.40625 75.984375 
L 18.40625 0 
L 9.421875 0 
z
" id="DejaVuSans-108"/>
      <path d="M 48.78125 52.59375 
L 48.78125 44.1875 
Q 44.96875 46.296875 41.140625 47.34375 
Q 37.3125 48.390625 33.40625 48.390625 
Q 24.65625 48.390625 19.8125 42.84375 
Q 14.984375 37.3125 14.984375 27.296875 
Q 14.984375 17.28125 19.8125 11.734375 
Q 24.65625 6.203125 33.40625 6.203125 
Q 37.3125 6.203125 41.140625 7.25 
Q 44.96875 8.296875 48.78125 10.40625 
L 48.78125 2.09375 
Q 45.015625 0.34375 40.984375 -0.53125 
Q 36.96875 -1.421875 32.421875 -1.421875 
Q 20.0625 -1.421875 12.78125 6.34375 
Q 5.515625 14.109375 5.515625 27.296875 
Q 5.515625 40.671875 12.859375 48.328125 
Q 20.21875 56 33.015625 56 
Q 37.15625 56 41.109375 55.140625 
Q 45.0625 54.296875 48.78125 52.59375 
z
" id="DejaVuSans-99"/>
     </defs>
     <g transform="translate(1576.144688 174.950938)scale(0.3 -0.3)">
      <use xlink:href="#DejaVuSans-80"/>
      <use x="60.287109" xlink:href="#DejaVuSans-117"/>
      <use x="123.666016" xlink:href="#DejaVuSans-98"/>
      <use x="187.142578" xlink:href="#DejaVuSans-108"/>
      <use x="214.925781" xlink:href="#DejaVuSans-105"/>
      <use x="242.708984" xlink:href="#DejaVuSans-99"/>
      <use x="297.689453" xlink:href="#DejaVuSans-32"/>
      <use x="329.476562" xlink:href="#DejaVuSans-73"/>
      <use x="358.96875" xlink:href="#DejaVuSans-110"/>
      <use x="422.347656" xlink:href="#DejaVuSans-115"/>
      <use x="474.447266" xlink:href="#DejaVuSans-116"/>
      <use x="513.65625" xlink:href="#DejaVuSans-46"/>
     </g>
    </g>
   </g>
  </g>
 </g>
 <defs>
  <clipPath id="p3145f4ef15">
   <rect height="748.270177" width="1713.0275" x="69.55" y="81.12125"/>
  </clipPath>
 </defs>
</svg>
